<svg width="23" height="23" viewBox="0 0 23 23" fill="none" xmlns="http://www.w3.org/2000/svg">
<g id="18+" clip-path="url(#clip0_50_15965)">
<path id="Vector" d="M20.4973 8.4591C20.5865 8.4591 20.6671 8.4591 20.7477 8.4591C21.3175 8.4591 21.8873 8.46198 22.4571 8.45622C22.555 8.45622 22.601 8.48212 22.6241 8.58285C23.5133 12.2896 22.8313 15.6739 20.4714 18.6698C18.7015 20.9174 16.3704 22.3017 13.553 22.814C8.06199 23.8097 2.68323 20.7361 0.723397 15.507C-1.00621 10.8909 0.447121 5.62151 4.3006 2.54506C6.1482 1.06871 8.25193 0.22837 10.6118 0.0384301C11.9011 -0.0651735 13.176 0.0528195 14.4279 0.380898C14.4969 0.398165 14.5458 0.415432 14.5458 0.507524C14.543 1.15505 14.543 1.79969 14.543 2.44721C14.543 2.4616 14.5372 2.47599 14.5343 2.48463C10.7643 1.43132 7.4231 2.15079 4.6517 4.97111C2.82425 6.83022 1.96376 9.12965 2.02708 11.737C2.15658 17.0237 6.57125 21.1592 11.8032 20.9692C14.9487 20.8541 17.4755 19.4756 19.2771 16.897C21.0815 14.3156 21.4096 11.4751 20.4973 8.4591Z" fill="#DDDDDD"/>
<path id="Vector_2" d="M15.8258 11.1889C16.0877 11.3904 16.3783 11.5631 16.6028 11.7962C17.5554 12.8006 17.2791 14.3575 16.0445 15.0395C15.397 15.3964 14.6919 15.5 13.9638 15.5029C13.3163 15.5058 12.6831 15.4194 12.0874 15.1518C11.4543 14.8669 10.9794 14.4294 10.8096 13.7301C10.5765 12.7747 11.0284 11.8365 11.9464 11.3559C12.0299 11.3127 12.1162 11.2724 12.2227 11.2206C12.1623 11.1803 12.1105 11.1458 12.0615 11.1141C11.2903 10.599 10.9708 9.75577 11.2442 8.9442C11.4341 8.38014 11.8342 8.00026 12.3752 7.79305C13.5149 7.35562 14.6603 7.34123 15.7538 7.91392C17.069 8.60174 17.0892 10.4292 15.8661 11.1659C15.8431 11.1774 15.8258 11.1918 15.8258 11.1889ZM13.9494 14.0611C13.9523 14.0755 13.9552 14.087 13.958 14.1014C14.2257 14.038 14.5048 14.0035 14.7581 13.9028C15.1236 13.7589 15.2876 13.451 15.2963 13.0624C15.3049 12.6768 15.1639 12.3574 14.8041 12.1933C14.2516 11.9372 13.6789 11.9372 13.1235 12.1876C12.7724 12.3459 12.6285 12.6509 12.6256 13.025C12.6227 13.402 12.7695 13.7042 13.1148 13.8855C13.3767 14.0265 13.6588 14.0611 13.9494 14.0611ZM13.9523 10.6134C14.1739 10.5616 14.3984 10.5357 14.6056 10.458C14.925 10.34 15.0747 10.0781 15.0862 9.74138C15.0948 9.40179 14.9855 9.10824 14.6631 8.95572C14.194 8.73412 13.7077 8.73124 13.2386 8.96147C12.9191 9.11976 12.8155 9.4133 12.8299 9.75289C12.8414 10.0838 12.9968 10.3371 13.3076 10.4551C13.5091 10.5357 13.7307 10.5644 13.9523 10.6134Z" fill="#DDDDDD"/>
<path id="Vector_3" d="M9.25507 15.408C8.59315 15.408 7.94275 15.408 7.27796 15.408C7.27796 13.3301 7.27796 11.2609 7.27796 9.17735C6.79448 9.17735 6.32538 9.17735 5.84766 9.17735C5.84766 8.63919 5.84766 8.11829 5.84766 7.58301C6.98154 7.58301 8.11255 7.58301 9.25794 7.58301C9.25507 10.1875 9.25507 12.792 9.25507 15.408Z" fill="#DDDDDD"/>
<path id="Vector_4" d="M18.3239 3.08747C18.3239 2.3421 18.3239 1.62551 18.3239 0.894531C18.8534 0.894531 19.3715 0.894531 19.9067 0.894531C19.9067 1.62263 19.9067 2.3421 19.9067 3.08172C20.6464 3.08172 21.3716 3.08172 22.1026 3.08172C22.1026 3.617 22.1026 4.13214 22.1026 4.66743C21.3773 4.66743 20.6521 4.66743 19.9096 4.66743C19.9096 5.4128 19.9096 6.13515 19.9096 6.869C19.3743 6.869 18.8592 6.869 18.3239 6.869C18.3239 6.14378 18.3239 5.41855 18.3239 4.67318C17.5843 4.67318 16.8648 4.67318 16.1367 4.67318C16.1367 4.1379 16.1367 3.62276 16.1367 3.08747C16.8619 3.08747 17.5814 3.08747 18.3239 3.08747Z" fill="#DDDDDD"/>
</g>
<defs>
<clipPath id="clip0_50_15965">
<rect width="23" height="23" fill="white"/>
</clipPath>
</defs>
</svg>
