<svg width="100" height="22" viewBox="0 0 100 22" fill="none" xmlns="http://www.w3.org/2000/svg">
<g id="app-store">
<path id="Vector" d="M16.0042 11.6993C15.9775 8.91995 18.4405 7.5678 18.5531 7.50484C17.1582 5.6051 14.9961 5.34554 14.2364 5.32484C12.4205 5.14633 10.6591 6.33982 9.73404 6.33982C8.79056 6.33982 7.3661 5.34209 5.83086 5.37141C3.85526 5.39986 2.00707 6.46831 0.993424 8.12746C-1.09849 11.5104 0.461676 16.4818 2.46589 19.2163C3.46845 20.5556 4.63996 22.0509 6.17336 21.9983C7.67351 21.9405 8.23388 21.1049 10.0442 21.1049C11.838 21.1049 12.3642 21.9983 13.928 21.9646C15.538 21.9405 16.5517 20.6194 17.5192 19.2681C18.6778 17.7331 19.143 16.2214 19.1615 16.1438C19.1236 16.1317 16.0347 15.0305 16.0042 11.6993Z" fill="white"/>
<path id="Vector_2" d="M13.0485 3.52612C13.8554 2.58358 14.4074 1.30128 14.2542 0C13.0864 0.0482913 11.6259 0.754551 10.7849 1.6764C10.0408 2.48872 9.37612 3.82018 9.54783 5.07231C10.8597 5.16372 12.2066 4.45401 13.0485 3.52612Z" fill="white"/>
<path id="Vector_3" d="M37.7507 15.3223H35.6874L34.5571 12.0298H30.6285L29.5518 15.3223H27.543L31.4353 4.11328H33.8393L37.7507 15.3223ZM34.2164 10.6485L33.1943 7.72159C33.0861 7.42258 32.8835 6.71844 32.5846 5.61001H32.5483C32.4292 6.08673 32.2375 6.79088 31.974 7.72159L30.9701 10.6485H34.2164Z" fill="white"/>
<path id="Vector_4" d="M47.7603 11.182C47.7603 12.5566 47.3596 13.6431 46.5583 14.4408C45.8405 15.1508 44.9492 15.5054 43.8853 15.5054C42.7369 15.5054 41.9119 15.123 41.4094 14.3582H41.3731V18.6159H39.436V9.9009C39.436 9.03672 39.4115 8.14981 39.3643 7.24015H41.0678L41.1759 8.52125H41.2123C41.8583 7.556 42.8386 7.07422 44.1542 7.07422C45.1827 7.07422 46.0413 7.45072 46.7282 8.20455C47.4169 8.95923 47.7603 9.95143 47.7603 11.182ZM45.7869 11.2477C45.7869 10.461 45.5961 9.81246 45.2127 9.30204C44.7939 8.76972 44.2314 8.50356 43.5264 8.50356C43.0485 8.50356 42.6142 8.6518 42.2262 8.94407C41.8374 9.23887 41.583 9.62379 41.464 10.1005C41.404 10.3229 41.374 10.5048 41.374 10.648V11.9956C41.374 12.5835 41.5684 13.0796 41.9573 13.4848C42.3462 13.8899 42.8513 14.0921 43.4728 14.0921C44.2024 14.0921 44.7702 13.831 45.1764 13.3104C45.5834 12.7891 45.7869 12.1018 45.7869 11.2477Z" fill="white"/>
<path id="Vector_5" d="M57.7877 11.182C57.7877 12.5566 57.3871 13.6431 56.5848 14.4408C55.8679 15.1508 54.9766 15.5054 53.9127 15.5054C52.7643 15.5054 51.9393 15.123 51.4378 14.3582H51.4014V18.6159H49.4644V9.9009C49.4644 9.03672 49.4398 8.14981 49.3926 7.24015H51.0961L51.2043 8.52125H51.2406C51.8857 7.556 52.866 7.07422 54.1825 7.07422C55.2101 7.07422 56.0687 7.45072 56.7574 8.20455C57.4434 8.95923 57.7877 9.95143 57.7877 11.182ZM55.8143 11.2477C55.8143 10.461 55.6226 9.81246 55.2392 9.30204C54.8204 8.76972 54.2598 8.50356 53.5538 8.50356C53.075 8.50356 52.6416 8.6518 52.2527 8.94407C51.8639 9.23887 51.6104 9.62379 51.4914 10.1005C51.4323 10.3229 51.4014 10.5048 51.4014 10.648V11.9956C51.4014 12.5835 51.5959 13.0796 51.9829 13.4848C52.3718 13.8891 52.8769 14.0921 53.5002 14.0921C54.2298 14.0921 54.7976 13.831 55.2038 13.3104C55.6108 12.7891 55.8143 12.1018 55.8143 11.2477Z" fill="white"/>
<path id="Vector_6" d="M69.0011 12.1791C69.0011 13.1326 68.6441 13.9083 67.9272 14.5071C67.1395 15.1616 66.0428 15.4884 64.6337 15.4884C63.3326 15.4884 62.2895 15.2559 61.5 14.7902L61.9488 13.2934C62.7993 13.7702 63.7324 14.0094 64.749 14.0094C65.4786 14.0094 66.0465 13.8561 66.4544 13.5512C66.8605 13.2463 67.0632 12.8369 67.0632 12.3265C67.0632 11.8717 66.896 11.4884 66.5607 11.1776C66.2273 10.8668 65.6703 10.5779 64.8926 10.3109C62.7756 9.57899 61.7181 8.50677 61.7181 7.09681C61.7181 6.17536 62.0888 5.41983 62.8311 4.83192C63.5706 4.24317 64.5573 3.94922 65.7912 3.94922C66.8914 3.94922 67.8055 4.12694 68.535 4.48154L68.0508 5.94541C67.3693 5.60176 66.5989 5.42994 65.7366 5.42994C65.0552 5.42994 64.5228 5.58576 64.1412 5.89572C63.8187 6.17283 63.6569 6.51058 63.6569 6.91066C63.6569 7.3537 63.8414 7.72009 64.2121 8.00815C64.5346 8.27431 65.1206 8.56236 65.9711 8.87316C67.0114 9.26145 67.7755 9.71544 68.267 10.236C68.7567 10.7548 69.0011 11.4042 69.0011 12.1791Z" fill="white"/>
<path id="Vector_7" d="M75.4083 8.58711H73.2732V12.5113C73.2732 13.5094 73.6493 14.008 74.4034 14.008C74.7496 14.008 75.0367 13.9802 75.2638 13.9246L75.3174 15.2883C74.9358 15.4205 74.4334 15.487 73.811 15.487C73.046 15.487 72.4482 15.2706 72.0166 14.8385C71.5869 14.4056 71.3706 13.6795 71.3706 12.6595V8.58543H70.0986V7.23778H71.3706V5.7579L73.2732 5.22559V7.23778H75.4083V8.58711Z" fill="white"/>
<path id="Vector_8" d="M85.0396 11.214C85.0396 12.4564 84.6562 13.4764 83.8912 14.274C83.0889 15.0952 82.0241 15.5046 80.6967 15.5046C79.4174 15.5046 78.3989 15.1112 77.6393 14.3245C76.8798 13.5378 76.5 12.5448 76.5 11.3479C76.5 10.0955 76.8907 9.06957 77.6748 8.27194C78.4571 7.47346 79.5128 7.07422 80.8402 7.07422C82.1195 7.07422 83.1489 7.46756 83.9257 8.25509C84.6689 9.01903 85.0396 10.0053 85.0396 11.214ZM83.0299 11.2721C83.0299 10.5267 82.8581 9.88742 82.5102 9.35426C82.104 8.70908 81.5235 8.38733 80.7712 8.38733C79.9925 8.38733 79.4011 8.70992 78.9949 9.35426C78.6469 9.88826 78.4752 10.5377 78.4752 11.3058C78.4752 12.0512 78.6469 12.6905 78.9949 13.2228C79.4138 13.868 79.9989 14.1898 80.7539 14.1898C81.4935 14.1898 82.0741 13.8613 82.4929 13.206C82.85 12.6627 83.0299 12.0167 83.0299 11.2721Z" fill="white"/>
<path id="Vector_9" d="M91.3365 8.81942C91.1448 8.78657 90.9403 8.76972 90.7259 8.76972C90.0445 8.76972 89.5175 9.00808 89.1468 9.48565C88.8243 9.90679 88.6625 10.4391 88.6625 11.0818V15.3226H86.7264L86.7446 9.78551C86.7446 8.85395 86.72 8.00578 86.6719 7.24099H88.3591L88.43 8.78741H88.4836C88.688 8.25593 89.0105 7.82806 89.4521 7.50715C89.8837 7.21825 90.3498 7.07422 90.8522 7.07422C91.0312 7.07422 91.1929 7.08601 91.3365 7.10707V8.81942Z" fill="white"/>
<path id="Vector_10" d="M100 10.8985C100 11.2203 99.9775 11.4915 99.9293 11.713H94.1182C94.1409 12.5115 94.4216 13.1221 94.9613 13.5433C95.451 13.9198 96.0843 14.1084 96.862 14.1084C97.7224 14.1084 98.5074 13.9813 99.2134 13.726L99.5169 14.9726C98.6919 15.3062 97.7179 15.4721 96.594 15.4721C95.242 15.4721 94.1808 15.1032 93.4086 14.3662C92.6381 13.6292 92.252 12.6395 92.252 11.398C92.252 10.1792 92.6108 9.16428 93.3295 8.35486C94.0818 7.49068 95.0985 7.05859 96.3778 7.05859C97.6343 7.05859 98.5856 7.49068 99.2316 8.35486C99.7431 9.04131 100 9.89033 100 10.8985ZM98.1531 10.4328C98.1658 9.90043 98.0395 9.44055 97.777 9.05226C97.4417 8.55279 96.9265 8.30348 96.2333 8.30348C95.6 8.30348 95.0849 8.5469 94.6915 9.03542C94.3689 9.4237 94.1772 9.88948 94.1182 10.4319H98.1531V10.4328Z" fill="white"/>
</g>
</svg>
