<svg width="23" height="23" viewBox="0 0 23 23" fill="none" xmlns="http://www.w3.org/2000/svg">
<g id="attention">
<path id="Vector" d="M13 8.99879C13 9.94857 13 10.8983 13 11.8481C13 12.376 12.5564 12.8215 11.9049 12.9582C10.9586 13.1585 10.0031 12.6141 10 11.867C10 9.95328 10 8.03723 10.0031 6.12353C10.0031 5.52963 10.605 5.06063 11.424 5.00407C12.1344 4.95458 12.8356 5.3623 12.9721 5.91143C12.9969 6.00805 13 6.10939 13 6.21073C13 7.1393 13 8.06787 13 8.99879Z" fill="#DDDDDD"/>
<path id="Vector_2" d="M12.9999 15.5015C13.0092 16.2924 12.336 16.9875 11.5512 16.9998C10.7198 17.0122 10.0094 16.3418 10.0001 15.5355C9.99079 14.6921 10.6609 14.0094 11.514 14.0001C12.3081 13.9908 12.9906 14.6797 12.9999 15.5015Z" fill="#DDDDDD"/>
<circle id="Ellipse" cx="11.5" cy="11.5" r="10.45" stroke="#DDDDDD" stroke-width="2.1"/>
</g>
</svg>
