<svg width="20" height="20" viewBox="0 0 20 20" fill="none" xmlns="http://www.w3.org/2000/svg">
<g id="&#208;&#188;&#209;&#143;&#209;&#135;">
<circle id="Ellipse" cx="10" cy="10" r="10" transform="rotate(90 10 10)" fill="white"/>
<path id="Vector" d="M17.1577 16.9851C17.87 16.2478 18.4633 15.4043 18.9165 14.4848V14.4848C19.8702 12.6139 20.2064 10.489 19.877 8.41509C19.5475 6.34121 18.5692 4.42504 17.0827 2.9417L17.0327 2.8917L16.9827 2.84169C15.4854 1.38148 13.5679 0.4273 11.5001 0.113351C9.43217 -0.200599 7.31788 0.141479 5.45456 1.09147V1.09147C4.48834 1.58694 3.60982 2.2373 2.85386 3.01671C2.0878 3.7897 1.45668 4.68554 0.986689 5.66704V5.66704C0.0805689 7.55268 -0.211356 9.67495 0.151999 11.7352C0.515354 13.7954 1.5157 15.6898 3.01223 17.1518L3.09559 17.2352C5.00066 19.0523 7.54549 20.0452 10.178 19.9984C12.8106 19.9516 15.3185 18.8689 17.1577 16.9851V16.9851ZM16.5575 16.4017C16.11 16.8581 15.6154 17.266 15.0822 17.6185L15.4239 15.2932L17.7495 14.8932C17.4071 15.437 17.0075 15.9427 16.5575 16.4017V16.4017ZM14.6154 15.0849L14.1652 18.1603C12.5067 19.0015 10.6324 19.3212 8.78879 19.077L7.33006 16.2934L8.16362 13.7931L10.3559 13.418L12.5481 13.043L14.6154 15.0849ZM18.2663 13.9597L15.1988 14.4848L13.14 12.5012L13.7735 8.08401L15.0655 7.60062L16.2325 7.16723L19.0582 8.5674C19.3508 10.4035 19.0745 12.2852 18.2663 13.9597V13.9597ZM8.09694 13.0013L7.09667 11.1011L6.0964 9.16748L7.5718 7.68396L9.09721 6.12543L12.9399 8.02567L12.3231 12.2762L8.09694 13.0013ZM18.8332 7.50061L16.6659 6.47548L17.0493 4.16686C17.8706 5.14114 18.4783 6.27685 18.8332 7.50061V7.50061ZM16.3325 3.33342L15.8324 6.4088L13.3817 7.32558L9.41396 5.35034L9.23891 3.19173L11.4228 0.949789C13.2605 1.22924 14.9698 2.06051 16.3242 3.33342L16.3325 3.33342ZM10.3642 0.833107L8.6971 2.49998L6.61321 1.48319C7.80381 1.00481 9.08204 0.78328 10.3642 0.833107V0.833107ZM3.42901 3.59178C4.0742 2.9283 4.81614 2.3663 5.62961 1.92491L8.40535 3.33342L8.5804 5.49202L7.30506 6.79218L5.41288 8.72576L3.2623 8.60908L1.82858 5.83373C2.24599 5.01043 2.78871 4.25692 3.43735 3.60012L3.42901 3.59178ZM1.39513 6.80885L2.49543 8.90911L0.828312 10.576C0.75519 9.29663 0.951123 8.01616 1.40347 6.81719L1.39513 6.80885ZM0.970017 11.6428L3.16227 9.40084L5.32119 9.51752L5.51291 9.88424L7.40508 13.4847L6.57153 15.985L3.53738 16.5101C2.2078 15.1966 1.31441 13.5061 0.978353 11.6678L0.970017 11.6428ZM4.30425 17.1851L6.66322 16.7934L7.75518 18.8687C6.50434 18.5607 5.33355 17.9896 4.32092 17.1935L4.30425 17.1851Z" fill="black"/>
</g>
</svg>
