<svg width="50" height="45" viewBox="0 0 50 45" fill="none" xmlns="http://www.w3.org/2000/svg">
<path id="Vector" d="M49.4101 8.91433C47.7524 7.93831 46.0948 6.96771 44.4372 5.99711C41.1386 4.06133 37.84 2.12014 34.5359 0.195205C34.3419 0.0813358 34.0869 0.0108453 33.8596 0.0108453C27.9443 6.5082e-07 22.029 -0.00542169 16.1137 0.00542299C15.8864 0.00542299 15.6369 0.0813358 15.4374 0.195205C11.3072 2.60815 7.17702 5.03736 3.05239 7.46114C2.30397 7.90035 1.55555 8.34499 0.796046 8.77335C0.446783 8.97398 0.130784 9.19629 -0.0078125 9.5867C-0.0078125 9.7331 -0.0078125 9.87409 -0.0078125 10.0205C0.563204 11.4032 1.13422 12.7913 1.69969 14.174C2.48692 16.0881 3.26306 18.0022 4.04474 19.9108C4.26095 20.4422 4.82642 20.67 5.41962 20.4531C6.89428 19.9163 8.3634 19.3686 9.83252 18.8264C9.86578 18.8155 9.89905 18.8047 9.98775 18.7776C9.98775 18.9186 9.98775 19.0378 9.98775 19.1571C9.98775 27.3611 9.98775 35.5706 9.99329 43.7746C9.99329 43.9806 10.0044 44.1975 10.0765 44.3873C10.2317 44.794 10.5699 44.9675 11.0023 45C11.0577 45.0054 11.1132 45 11.1686 45C20.388 45 29.6074 45 38.8269 45C39.4478 45 39.858 44.7235 39.9633 44.2192C39.9855 44.0945 39.9855 43.9698 39.9855 43.8396C39.9855 39.4801 39.9855 35.1259 39.9855 30.7664C39.9855 26.8677 39.9855 22.969 39.9855 19.0758C39.9855 18.989 39.9855 18.9023 39.9855 18.7721C40.551 18.9782 41.0832 19.1734 41.6154 19.3686C42.5911 19.7265 43.5613 20.0844 44.537 20.4422C45.2023 20.6862 45.7012 20.4802 45.9673 19.8403C47.2258 16.7659 48.4787 13.6914 49.7371 10.6224C49.7815 10.5139 49.8314 10.4055 49.8757 10.297C50.1252 9.69515 49.9811 9.25594 49.4101 8.91433ZM7.94761 15.2802C7.47638 15.7844 6.63926 15.6814 6.35653 15.0578C5.92965 14.0927 5.54158 13.1112 5.14242 12.1352C4.74327 11.17 4.34411 10.2048 3.93386 9.20714C4.51597 8.86553 5.0759 8.54019 5.65246 8.19858C5.97955 8.99567 6.29554 9.75479 6.61154 10.5193C7.0994 11.696 7.58172 12.8726 8.07512 14.0439C8.25807 14.4831 8.30242 14.906 7.94761 15.2802ZM32.1022 1.97916C29.7239 4.5873 27.3733 7.17376 24.9949 9.78733C22.6277 7.1846 20.2716 4.59815 17.8877 1.97916C22.6333 1.97916 27.3455 1.97916 32.1022 1.97916ZM45.2023 11.273C44.7033 12.4931 44.2044 13.7077 43.6999 14.9277C43.5059 15.394 43.1289 15.6326 42.6743 15.5947C42.2141 15.5513 41.8593 15.2314 41.7762 14.7433C41.754 14.5969 41.7706 14.4289 41.8261 14.2933C42.6355 12.2924 43.4504 10.297 44.2654 8.30161C44.2765 8.27992 44.2986 8.25823 44.3319 8.22027C44.8918 8.54019 45.4518 8.86553 46.0449 9.20714C45.7622 9.90662 45.485 10.5898 45.2023 11.273Z" fill="#5334EA"/>
</svg>
