<svg width="16" height="16" viewBox="0 0 16 16" fill="none" xmlns="http://www.w3.org/2000/svg">
<g id="icon present">
<g id="present">
<path d="M8.00123 4.69908C8.02998 4.67026 8.02998 4.63882 8.03259 4.60737C8.06657 4.03877 8.17896 3.48327 8.32793 2.93301C8.44554 2.49543 8.59713 2.06832 8.80099 1.6648C9.02576 1.22459 9.32633 0.844648 9.69484 0.519733C9.96143 0.283908 10.2724 0.142412 10.6174 0.0664242C10.9258 -0.00170319 11.2395 -0.0174249 11.5531 0.0192591C11.9713 0.0664242 12.3476 0.226261 12.677 0.49091C13.1396 0.86037 13.4297 1.33988 13.5421 1.92158C13.6623 2.54521 13.5394 3.12429 13.1892 3.65359C12.9357 4.03615 12.6038 4.33224 12.2144 4.57069C12.1281 4.6231 12.0366 4.67288 11.9504 4.72529C11.9399 4.73315 11.9269 4.74101 11.9059 4.75673C11.9399 4.75935 11.9608 4.76197 11.9791 4.76197C12.6743 4.77245 13.3696 4.78031 14.0674 4.79079C14.2608 4.79341 14.4516 4.80389 14.6424 4.81176C14.8123 4.817 14.9639 4.86678 15.1128 4.95063C15.4421 5.13405 15.6983 5.3856 15.8577 5.73148C15.9387 5.90965 15.9779 6.09569 15.9805 6.29222C15.9858 6.69312 15.9962 7.09664 15.9988 7.49755C16.0015 7.89583 15.9988 8.29411 15.9988 8.69239C15.9988 8.71598 15.9988 8.73694 15.9988 8.76576C13.61 8.76576 11.2238 8.76576 8.83236 8.76576C8.82974 8.73694 8.82713 8.71074 8.82713 8.68453C8.82713 8.23123 8.82713 7.78054 8.82713 7.32723C8.82713 6.77173 8.82713 6.21623 8.82713 5.66073C8.82713 5.63452 8.82713 5.60832 8.82713 5.58212C8.76702 5.56378 7.23545 5.56378 7.17533 5.58212C7.17533 6.63809 7.17533 7.69669 7.17533 8.75004C7.16749 8.7579 7.16488 8.76052 7.16488 8.76052C7.16227 8.76314 7.16227 8.76314 7.15965 8.76314C7.15181 8.76576 7.14397 8.76838 7.13613 8.76838C4.77082 8.76838 2.40552 8.76838 0.0402126 8.76838C0.0323718 8.76838 0.024531 8.76576 0.011463 8.76314C0.00623583 8.75004 0.00100863 8.73432 0.00100863 8.7186C0.00362223 7.93251 -0.00944576 7.14643 0.0166902 6.36296C0.024531 6.13238 0.0585078 5.90965 0.160438 5.70003C0.325095 5.3594 0.578614 5.11047 0.915768 4.94015C1.10656 4.8432 1.30781 4.81438 1.5169 4.80914C2.152 4.79603 2.7871 4.78555 3.42221 4.77245C3.61823 4.76983 3.81425 4.76721 4.01027 4.76197C4.02595 4.76197 4.04163 4.75935 4.07038 4.75673C4.05208 4.74101 4.04424 4.73053 4.03379 4.72529C3.91879 4.65454 3.80379 4.58903 3.69141 4.51566C3.39346 4.31652 3.13471 4.07284 2.9021 3.80295C2.76358 3.64311 2.67211 3.45445 2.5937 3.25793C2.45779 2.92253 2.39245 2.57665 2.41336 2.21506C2.42904 1.94255 2.49438 1.68314 2.59892 1.43159C2.80801 0.933738 3.15823 0.564278 3.62084 0.294389C3.83516 0.168615 4.06515 0.0795256 4.31083 0.0376011C4.48594 0.00615766 4.66367 0.00615766 4.84139 0.0113982C4.9773 0.0166388 5.11321 0.0192591 5.2465 0.0402213C5.58104 0.0900067 5.8816 0.226261 6.15864 0.420162C6.47489 0.642886 6.72841 0.928497 6.94272 1.25079C7.21715 1.6648 7.41317 2.11811 7.56737 2.58976C7.70067 2.99852 7.79476 3.41777 7.86794 3.83963C7.91237 4.0938 7.95157 4.34797 7.96464 4.60475C7.96987 4.65454 7.97248 4.65454 8.00123 4.69908ZM9.72882 3.82915C9.77325 3.82391 9.80461 3.82391 9.83336 3.81605C9.9745 3.78198 10.1182 3.7453 10.2568 3.70862C10.6279 3.60643 10.9833 3.47017 11.3127 3.27103C11.4904 3.1636 11.6577 3.04569 11.8014 2.89109C11.8772 2.80986 11.9452 2.72077 11.9739 2.61072C12.0575 2.2989 12 2.02115 11.77 1.78271C11.5557 1.56523 11.3022 1.50496 11.0121 1.56785C10.8553 1.60191 10.7246 1.691 10.6122 1.80367C10.4084 2.00281 10.2698 2.2465 10.1522 2.50067C10.0425 2.73649 9.95359 2.98018 9.87518 3.22648C9.82291 3.39156 9.78109 3.55926 9.73666 3.72696C9.73143 3.7584 9.73405 3.78723 9.72882 3.82915ZM6.26319 3.82653C6.25535 3.77936 6.25273 3.74268 6.24489 3.70862C6.22137 3.60381 6.19524 3.50161 6.1691 3.3968C6.06456 3.009 5.92603 2.63168 5.73001 2.27794C5.6307 2.09976 5.51831 1.93207 5.37195 1.78795C5.23866 1.65432 5.08446 1.56523 4.89628 1.54688C4.5931 1.51544 4.35004 1.63073 4.15924 1.86394C3.91618 2.16003 3.94231 2.61334 4.16447 2.8544C4.21151 2.90419 4.25856 2.9566 4.31083 3.00114C4.53299 3.19766 4.78651 3.34178 5.05309 3.45969C5.40332 3.61691 5.77183 3.71386 6.14296 3.80295C6.17694 3.81605 6.21353 3.81867 6.26319 3.82653Z" fill="white"/>
<path d="M15.2068 9.6065C15.2094 9.63009 15.2094 9.65105 15.2094 9.66939C15.2042 11.1341 15.1989 12.6015 15.1937 14.0662C15.1937 14.2444 15.1911 14.4226 15.1702 14.5981C15.1205 15.0122 14.9297 15.3502 14.6135 15.6201C14.441 15.7668 14.2424 15.8664 14.0228 15.9292C13.8765 15.9712 13.7249 15.9764 13.5759 15.979C13.1656 15.9869 12.7526 15.9948 12.3423 15.9948C11.2001 15.9974 10.058 15.9948 8.91324 15.9948C8.8871 15.9948 8.86358 15.9948 8.84006 15.9948C8.82438 15.945 8.82176 9.67725 8.83483 9.6065C8.87926 9.59864 15.1153 9.5934 15.2068 9.6065Z" fill="white"/>
<path d="M7.16762 9.60651C7.16762 11.7368 7.16762 13.8645 7.16762 15.9948C7.14671 15.9974 7.13103 16 7.11535 16C5.76673 16 4.42073 16 3.07211 15.9948C2.78723 15.9948 2.50496 15.9764 2.22008 15.9659C1.96656 15.9555 1.73134 15.8821 1.52225 15.7327C1.29748 15.5703 1.1093 15.3711 0.981236 15.1248C0.879306 14.9283 0.819193 14.7161 0.813966 14.4907C0.803511 13.6679 0.790444 12.8452 0.78783 12.0224C0.782603 11.2442 0.78783 10.4686 0.78783 9.69035C0.78783 9.66415 0.78783 9.63795 0.78783 9.61175C0.842715 9.59864 7.0866 9.5934 7.16762 9.60651Z" fill="white"/>
</g>
</g>
</svg>
