<svg width="13" height="13" viewBox="0 0 13 13" fill="none" xmlns="http://www.w3.org/2000/svg">
<g id="chat icon">
<g id="Chat">
<g id="Group">
<mask id="mask0_1_33503" style="mask-type:alpha" maskUnits="userSpaceOnUse" x="0" y="0" width="13" height="13">
<path id="Clip 2" fill-rule="evenodd" clip-rule="evenodd" d="M0 0H13V13H0V0Z" fill="white"/>
</mask>
<g mask="url(#mask0_1_33503)">
<path id="Fill 1" fill-rule="evenodd" clip-rule="evenodd" d="M3.08917 11.2951C3.43998 11.2951 3.77083 11.4282 4.12104 11.5691C6.26644 12.561 8.80377 12.1098 10.4568 10.4574C12.6379 8.27523 12.6379 4.72551 10.4568 2.54451C9.40076 1.48848 7.9963 0.907245 6.50112 0.907245C5.00533 0.907245 3.60027 1.48909 2.54481 2.54511C0.891153 4.1975 0.441146 6.73474 1.42402 8.85949C1.56556 9.20969 1.70225 9.55081 1.70225 9.90524C1.70225 10.2591 1.58068 10.6153 1.47362 10.9298C1.38531 11.1887 1.25164 11.5794 1.33753 11.6653C1.4216 11.7524 1.81476 11.6151 2.07424 11.5262C2.38573 11.4197 2.73896 11.2975 3.08917 11.2951ZM6.48665 13.0001C5.56245 13.0001 4.63219 12.8048 3.76181 12.4019C3.50536 12.2991 3.26523 12.2024 3.09285 12.2024C2.89446 12.2036 2.62772 12.2955 2.37006 12.3844C1.84142 12.5659 1.18335 12.7921 0.696445 12.307C0.211356 11.8213 0.43515 11.1651 0.615395 10.6371C0.704307 10.377 0.79564 10.1084 0.79564 9.90523C0.79564 9.7383 0.715195 9.5254 0.591806 9.21875C-0.541075 6.77223 -0.0172761 3.82371 1.90433 1.90339C3.13096 0.676195 4.76344 0 6.50117 0C8.2389 0 9.87199 0.67559 11.0986 1.90278C13.6341 4.43821 13.6341 8.56312 11.0986 11.0985C9.85566 12.3421 8.18204 13.0001 6.48665 13.0001Z" fill="#787878"/>
</g>
</g>
<path id="Fill 4" fill-rule="evenodd" clip-rule="evenodd" d="M8.88852 7.35662C8.55464 7.35662 8.28125 7.08627 8.28125 6.7518C8.28125 6.41733 8.5492 6.14697 8.88307 6.14697H8.88852C9.22239 6.14697 9.49336 6.41733 9.49336 6.7518C9.49336 7.08627 9.22239 7.35662 8.88852 7.35662Z" fill="#787878"/>
<path id="Fill 6" fill-rule="evenodd" clip-rule="evenodd" d="M6.46469 7.35662C6.13081 7.35662 5.85742 7.08627 5.85742 6.7518C5.85742 6.41733 6.12476 6.14697 6.45925 6.14697H6.46469C6.79857 6.14697 7.06954 6.41733 7.06954 6.7518C7.06954 7.08627 6.79857 7.35662 6.46469 7.35662Z" fill="#787878"/>
<path id="Fill 8" fill-rule="evenodd" clip-rule="evenodd" d="M4.03988 7.35662C3.70601 7.35662 3.43262 7.08627 3.43262 6.7518C3.43262 6.41733 3.70056 6.14697 4.03444 6.14697H4.03988C4.37376 6.14697 4.64473 6.41733 4.64473 6.7518C4.64473 7.08627 4.37376 7.35662 4.03988 7.35662Z" fill="#787878"/>
</g>
</g>
</svg>
