<svg width="32" height="27" viewBox="0 0 32 27" fill="none" xmlns="http://www.w3.org/2000/svg">
<path id="Vector" d="M0.0111565 27C0.0111565 26.8589 0.0111565 26.7648 0.0111565 26.6707C0.0111565 19.0265 0.0222928 11.387 2.02803e-05 3.74286C-0.00554784 2.10112 1.13592 0.708707 2.86203 0.205367C3.29635 0.0783557 3.78077 0.00779403 4.24293 0.00779403C12.094 -0.0016142 19.945 -0.0016142 27.7961 0.00308992C29.9676 0.00308992 31.8274 1.48959 31.9666 3.31479C31.9889 3.57822 32 3.84635 32 4.10978C32 8.7057 32 13.3016 32 17.8975C32 18.6831 31.7773 19.4123 31.2316 20.0567C30.4576 20.9693 29.4108 21.5009 28.0745 21.595C27.8183 21.6138 27.5566 21.6185 27.3005 21.6185C20.4963 21.6185 13.692 21.6232 6.89335 21.6138C6.54256 21.6138 6.29756 21.6938 6.047 21.9054C4.11486 23.5519 2.17159 25.1889 0.228313 26.8259C0.167064 26.8777 0.105815 26.9247 0.0111565 27Z" fill="#5334EA"/>
</svg>
