<svg width="32" height="27" viewBox="0 0 32 27" fill="none" xmlns="http://www.w3.org/2000/svg">
<path d="M31.9888 27C31.9888 26.8589 31.9888 26.7648 31.9888 26.6707C31.9888 19.0265 31.9777 11.387 32 3.74286C32.0055 2.10112 30.8641 0.708707 29.138 0.205367C28.7037 0.0783557 28.2192 0.00779403 27.7571 0.00779403C19.906 -0.0016142 12.055 -0.0016142 4.20393 0.00308992C2.03236 0.00308992 0.172614 1.48959 0.0334111 3.31479C0.0111387 3.57822 3.81322e-07 3.84635 3.81322e-07 4.10978C3.81322e-07 8.7057 3.81322e-07 13.3016 3.81322e-07 17.8975C3.81322e-07 18.6831 0.222724 19.4123 0.7684 20.0567C1.54237 20.9693 2.58918 21.5009 3.92552 21.595C4.18166 21.6138 4.44336 21.6185 4.69949 21.6185C11.5037 21.6185 18.308 21.6232 25.1066 21.6138C25.4574 21.6138 25.7024 21.6938 25.953 21.9054C27.8851 23.5519 29.8284 25.1889 31.7717 26.8259C31.8329 26.8777 31.8942 26.9247 31.9888 27Z" fill="#5334EA"/>
</svg>
