<svg width="86" height="50" viewBox="0 0 86 50" fill="none" xmlns="http://www.w3.org/2000/svg">
<rect width="86" height="50" fill="url(#paint0_linear_87_1197)"/>
<path d="M30.0054 35.82V32.052L30.238 32.424C30.0136 32.62 29.6934 32.772 29.2773 32.88C28.8653 32.984 28.4349 33.036 27.9861 33.036C27.2518 33.036 26.6664 32.894 26.2299 32.61C25.7934 32.322 25.4793 31.926 25.2876 31.422C25.0959 30.914 25 30.328 25 29.664V27.18H26.6889V29.172C26.6889 29.432 26.6991 29.698 26.7195 29.97C26.7399 30.242 26.799 30.494 26.8969 30.726C26.9989 30.958 27.1662 31.146 27.3987 31.29C27.6312 31.43 27.9576 31.5 28.3778 31.5C28.8306 31.5 29.214 31.424 29.5282 31.272C29.8423 31.116 30.0626 30.952 30.189 30.78L30.0054 31.512V27.18H31.6821V35.82H30.0054Z" fill="white"/>
<path d="M33.3899 35.82V27.18H34.883L37.7957 32.916L40.7084 27.18H42.2015V35.82H40.6472V30.66L38.0894 35.82H37.502L34.9442 30.66V35.82H33.3899Z" fill="white"/>
<path d="M43.7967 32.664V31.404H47.4682V32.664H43.7967Z" fill="white"/>
<path d="M48.8135 35.808V34.392L52.5094 31.176C52.7868 30.936 52.9826 30.71 53.0969 30.498C53.2111 30.286 53.2682 30.088 53.2682 29.904C53.2682 29.64 53.2131 29.406 53.103 29.202C52.9928 28.994 52.8378 28.832 52.6379 28.716C52.438 28.596 52.2035 28.536 51.9342 28.536C51.6527 28.536 51.4039 28.6 51.1877 28.728C50.9756 28.852 50.8103 29.018 50.692 29.226C50.5737 29.43 50.5187 29.652 50.5268 29.892H48.8135C48.8135 29.3 48.946 28.788 49.2112 28.356C49.4764 27.924 49.8456 27.59 50.3188 27.354C50.792 27.118 51.3427 27 51.9709 27C52.5461 27 53.0601 27.124 53.513 27.372C53.9699 27.616 54.3288 27.958 54.5899 28.398C54.851 28.838 54.9815 29.348 54.9815 29.928C54.9815 30.356 54.9204 30.712 54.798 30.996C54.6756 31.276 54.4941 31.536 54.2534 31.776C54.0127 32.012 53.7169 32.28 53.3661 32.58L50.9796 34.632L50.845 34.272H54.9815V35.808H48.8135Z" fill="white"/>
<path d="M59.7118 36C59.0591 36 58.488 35.866 57.9985 35.598C57.5089 35.33 57.1275 34.956 56.8542 34.476C56.5809 33.996 56.4442 33.436 56.4442 32.796V30.204C56.4442 29.564 56.5809 29.004 56.8542 28.524C57.1275 28.044 57.5089 27.67 57.9985 27.402C58.488 27.134 59.0591 27 59.7118 27C60.3645 27 60.9357 27.134 61.4252 27.402C61.9147 27.67 62.2961 28.044 62.5695 28.524C62.8428 29.004 62.9794 29.564 62.9794 30.204V32.796C62.9794 33.436 62.8428 33.996 62.5695 34.476C62.2961 34.956 61.9147 35.33 61.4252 35.598C60.9357 35.866 60.3645 36 59.7118 36ZM59.7118 34.452C60.0055 34.452 60.2707 34.384 60.5073 34.248C60.7439 34.112 60.9316 33.928 61.0703 33.696C61.209 33.464 61.2783 33.204 61.2783 32.916V30.072C61.2783 29.784 61.209 29.524 61.0703 29.292C60.9316 29.06 60.7439 28.876 60.5073 28.74C60.2707 28.604 60.0055 28.536 59.7118 28.536C59.4181 28.536 59.1529 28.604 58.9163 28.74C58.6797 28.876 58.4921 29.06 58.3534 29.292C58.2147 29.524 58.1453 29.784 58.1453 30.072V32.916C58.1453 33.204 58.2147 33.464 58.3534 33.696C58.4921 33.928 58.6797 34.112 58.9163 34.248C59.1529 34.384 59.4181 34.452 59.7118 34.452Z" fill="white"/>
<path d="M64.4459 35.808V34.392L68.1419 31.176C68.4193 30.936 68.6151 30.71 68.7293 30.498C68.8435 30.286 68.9007 30.088 68.9007 29.904C68.9007 29.64 68.8456 29.406 68.7354 29.202C68.6253 28.994 68.4703 28.832 68.2704 28.716C68.0705 28.596 67.8359 28.536 67.5667 28.536C67.2852 28.536 67.0364 28.6 66.8202 28.728C66.608 28.852 66.4428 29.018 66.3245 29.226C66.2062 29.43 66.1511 29.652 66.1593 29.892H64.4459C64.4459 29.3 64.5785 28.788 64.8437 28.356C65.1088 27.924 65.478 27.59 65.9512 27.354C66.4245 27.118 66.9752 27 67.6034 27C68.1786 27 68.6926 27.124 69.1454 27.372C69.6023 27.616 69.9613 27.958 70.2224 28.398C70.4835 28.838 70.614 29.348 70.614 29.928C70.614 30.356 70.5528 30.712 70.4304 30.996C70.3081 31.276 70.1265 31.536 69.8858 31.776C69.6452 32.012 69.3494 32.28 68.9986 32.58L66.6121 34.632L66.4775 34.272H70.614V35.808H64.4459Z" fill="white"/>
<path d="M71.8319 35.808V34.392L75.5279 31.176C75.8053 30.936 76.0011 30.71 76.1153 30.498C76.2295 30.286 76.2866 30.088 76.2866 29.904C76.2866 29.64 76.2316 29.406 76.1214 29.202C76.0113 28.994 75.8563 28.832 75.6564 28.716C75.4565 28.596 75.2219 28.536 74.9527 28.536C74.6712 28.536 74.4223 28.6 74.2061 28.728C73.994 28.852 73.8288 29.018 73.7105 29.226C73.5922 29.43 73.5371 29.652 73.5453 29.892H71.8319C71.8319 29.3 71.9645 28.788 72.2297 28.356C72.4948 27.924 72.864 27.59 73.3372 27.354C73.8104 27.118 74.3612 27 74.9894 27C75.5646 27 76.0786 27.124 76.5314 27.372C76.9883 27.616 77.3473 27.958 77.6084 28.398C77.8695 28.838 78 29.348 78 29.928C78 30.356 77.9388 30.712 77.8164 30.996C77.694 31.276 77.5125 31.536 77.2718 31.776C77.0311 32.012 76.7354 32.28 76.3845 32.58L73.9981 34.632L73.8635 34.272H78V35.808H71.8319Z" fill="white"/>
<defs>
<linearGradient id="paint0_linear_87_1197" x1="0" y1="0" x2="123.594" y2="6.16621" gradientUnits="userSpaceOnUse">
<stop stop-color="#A20C34"/>
<stop offset="1" stop-color="#1E010A"/>
</linearGradient>
</defs>
</svg>
