<svg width="13" height="13" viewBox="0 0 13 13" fill="none" xmlns="http://www.w3.org/2000/svg">
<g id="&#209;&#143;&#208;&#189;&#208;&#180;&#208;&#181;&#208;&#186;&#209;&#129; &#208;&#180;&#208;&#183;&#208;&#181;&#208;&#189;">
<g id="&#209;&#143;&#208;&#189;&#208;&#180;&#208;&#181;&#208;&#186;&#209;&#129; &#208;&#180;&#208;&#183;&#208;&#181;&#208;&#189;_2">
<path d="M0 7.78159C0 7.3742 0 6.96681 0 6.55943C0.0148915 6.56262 0.0308467 6.56794 0.0457382 6.56794C0.2255 6.57538 0.406325 6.58176 0.586086 6.58921C0.990284 6.60623 1.39555 6.62006 1.79974 6.64346C2.11034 6.66154 2.42093 6.686 2.7294 6.72004C3.10488 6.76153 3.4761 6.82854 3.83988 6.93703C4.42384 7.11147 4.93227 7.40505 5.34604 7.85711C5.646 8.18579 5.86193 8.56446 6.00765 8.98461C6.17678 9.46965 6.25868 9.97277 6.30229 10.4812C6.34271 10.9514 6.3693 11.4226 6.39377 11.8938C6.41185 12.2342 6.41823 12.5756 6.42993 12.917C6.431 12.9447 6.43738 12.9723 6.44163 13C6.0268 13 5.61303 13 5.19819 13C5.18968 12.9968 5.18011 12.9904 5.1716 12.9894C4.82484 12.9819 4.47915 12.9755 4.13239 12.967C4.03134 12.9649 3.93029 12.9543 3.82924 12.9468C3.64629 12.933 3.46334 12.9192 3.28038 12.9043C3.17614 12.8958 3.07084 12.8883 2.96873 12.8713C2.78258 12.8404 2.5975 12.8043 2.41242 12.7671C2.04545 12.6926 1.69444 12.5713 1.36895 12.3831C1.13707 12.248 0.933909 12.0778 0.77223 11.8629C0.600978 11.6332 0.475464 11.379 0.382924 11.1077C0.27762 10.8014 0.202099 10.4887 0.159552 10.1685C0.130832 9.95256 0.0999857 9.7377 0.0755211 9.52177C0.059566 9.37924 0.0521202 9.23564 0.0425471 9.09204C0.0340377 8.94526 0.0255283 8.7974 0.0212736 8.64955C0.0159552 8.45384 0.0127641 8.25812 0.0106368 8.0624C0.0095731 7.98476 0.0106368 7.90711 0.0095731 7.82839C0.0095731 7.8135 0.00319103 7.79755 0 7.78159Z" fill="white"/>
<path d="M0 6.44233C0 6.03813 0 5.635 0 5.2308C0.00319103 5.22016 0.0095731 5.20953 0.0106368 5.19889C0.0148915 4.97871 0.0180825 4.75746 0.0223372 4.53728C0.0255283 4.39262 0.029783 4.24796 0.032974 4.1033C0.032974 4.10011 0.032974 4.09585 0.032974 4.09266C0.0468018 3.91077 0.0616933 3.72995 0.0755211 3.54806C0.0829669 3.45233 0.0850942 3.35553 0.0978584 3.2598C0.123387 3.07047 0.145724 2.88007 0.182953 2.69286C0.227627 2.46949 0.279747 2.24718 0.340377 2.027C0.40207 1.80257 0.493547 1.58877 0.609487 1.38667C0.710537 1.21116 0.829669 1.05054 0.97752 0.910139C1.17111 0.727187 1.39235 0.589972 1.63275 0.480413C1.99014 0.317671 2.36881 0.227258 2.75386 0.162374C2.92405 0.133654 3.0953 0.115572 3.26656 0.0974893C3.45908 0.0772795 3.65267 0.0570696 3.84626 0.0453691C4.06112 0.0315413 4.27599 0.0262229 4.49085 0.0187772C4.71209 0.0113314 4.9344 0.00388568 5.15671 0.00175832C5.56091 -0.00143271 5.96404 0.000694647 6.36824 0.000694647C6.38739 0.000694647 6.40547 0.000694647 6.42249 0.000694647C6.42249 0.0900436 6.42461 0.171947 6.42249 0.254914C6.40972 0.64422 6.39696 1.03246 6.37888 1.4207C6.36505 1.71747 6.34697 2.01424 6.32357 2.30994C6.29272 2.68648 6.24485 3.0609 6.1672 3.43212C6.08105 3.84164 5.95128 4.2352 5.74173 4.59897C5.55665 4.9202 5.32158 5.19995 5.03651 5.43715C4.62913 5.77434 4.16217 5.99239 3.65054 6.11152C3.37824 6.17535 3.10062 6.22108 2.823 6.2615C2.58899 6.2966 2.35286 6.31681 2.11672 6.3349C1.85186 6.35511 1.58701 6.36787 1.32215 6.37851C0.942419 6.39446 0.562686 6.40723 0.182953 6.42212C0.122323 6.42637 0.0606296 6.43595 0 6.44233Z" fill="white"/>
<path d="M7.80206 13C7.38722 13 6.97345 13 6.55862 13C6.56393 12.983 6.57138 12.967 6.57244 12.95C6.57883 12.8032 6.58308 12.6564 6.5884 12.5096C6.60223 12.1597 6.61074 11.8097 6.63201 11.4598C6.65754 11.0577 6.68945 10.6557 6.72774 10.2546C6.76284 9.88555 6.83304 9.52177 6.93835 9.16438C7.10747 8.5868 7.39892 8.08262 7.84141 7.67097C8.19668 7.34017 8.61045 7.11254 9.06996 6.96363C9.56244 6.80408 10.073 6.73175 10.5868 6.68601C10.9463 6.6541 11.3058 6.63389 11.6664 6.61581C12.0483 6.59666 12.4301 6.58602 12.812 6.57219C12.8737 6.57007 12.9343 6.57219 13.0013 6.57219C13.0013 6.59347 13.0013 6.61368 13.0013 6.63495C12.9981 7.16892 12.9949 7.70395 12.9907 8.23791C12.9896 8.3262 12.9843 8.41449 12.98 8.50171C12.9662 8.78252 12.9534 9.06439 12.9375 9.3452C12.93 9.48348 12.9215 9.62176 12.9045 9.75897C12.8811 9.94512 12.8567 10.1313 12.8194 10.3153C12.7747 10.5387 12.7237 10.762 12.6631 10.9822C12.5929 11.2396 12.479 11.48 12.3397 11.7066C12.2206 11.9002 12.0695 12.0672 11.8919 12.2076C11.71 12.3512 11.509 12.4628 11.2941 12.5511C11.0601 12.6479 10.8186 12.7234 10.5708 12.7724C10.3187 12.8224 10.0634 12.8564 9.80921 12.8904C9.63796 12.9138 9.46565 12.9287 9.29333 12.9436C9.17526 12.9532 9.05613 12.9564 8.93806 12.9606C8.75086 12.9681 8.56259 12.9755 8.37538 12.9798C8.20306 12.984 8.02968 12.984 7.85737 12.9872C7.83716 12.9904 7.81907 12.9968 7.80206 13Z" fill="white"/>
<path d="M12.9949 6.43177C12.6365 6.41794 12.2833 6.40517 11.9302 6.39135C11.6792 6.38071 11.4281 6.37539 11.1782 6.35518C10.7857 6.32327 10.3932 6.2903 10.0018 6.2403C9.50289 6.17542 9.01785 6.05629 8.56472 5.8276C8.17967 5.63401 7.84887 5.37234 7.57019 5.0426C7.19577 4.59692 6.97985 4.07785 6.85327 3.51729C6.75966 3.10458 6.70861 2.68549 6.67563 2.26428C6.65117 1.95262 6.63415 1.6399 6.62032 1.32718C6.60224 0.933616 6.5916 0.540055 6.57671 0.145431C6.57458 0.0996925 6.57246 0.0539543 6.56927 0.00502515C6.59054 0.00396147 6.60756 0.00183412 6.62458 0.00183412C7.03516 0.00183412 7.4468 -0.00029324 7.85738 0.00289779C8.07437 0.00396147 8.2903 0.0124709 8.50729 0.0199166C8.72215 0.0273624 8.93701 0.0326808 9.15188 0.0465086C9.34546 0.058209 9.53905 0.0794826 9.73158 0.0986288C9.88581 0.114584 10.04 0.125221 10.1922 0.15394C10.4145 0.195423 10.6368 0.244353 10.8559 0.299664C11.1005 0.361357 11.3345 0.453897 11.5558 0.574093C11.7079 0.655996 11.8472 0.754918 11.9781 0.868732C12.2036 1.06445 12.3631 1.30803 12.4897 1.57395C12.6152 1.83881 12.7046 2.11749 12.7631 2.40468C12.8003 2.58657 12.8311 2.76952 12.8588 2.95248C12.8811 3.10033 12.8981 3.24924 12.912 3.39816C12.9301 3.59281 12.9428 3.78746 12.9545 3.98212C12.9641 4.14911 12.9705 4.31611 12.9758 4.48205C12.9811 4.63309 12.9854 4.78519 12.9864 4.93624C12.9907 5.42659 12.9939 5.91588 12.9971 6.40624C12.9992 6.41156 12.9971 6.41794 12.9949 6.43177Z" fill="white"/>
</g>
</g>
</svg>
