<svg width="22" height="22" viewBox="0 0 22 22" fill="none" xmlns="http://www.w3.org/2000/svg">
<g id="icon &#209;&#132;&#208;&#190;&#208;&#187;">
<g id="&#208;&#164;&#208;&#158;&#208;&#155;">
<path d="M3.00831 17V15.439C2.9179 15.4472 2.81926 15.4553 2.71241 15.4634C2.60556 15.4715 2.50282 15.4756 2.40418 15.4756C1.92746 15.4756 1.50826 15.3902 1.14661 15.2195C0.784955 15.0488 0.501385 14.7805 0.295899 14.4146C0.0986331 14.0407 0 13.5569 0 12.9634V10.2317C0 9.67073 0.0986331 9.20325 0.295899 8.82927C0.501385 8.45528 0.784955 8.1748 1.14661 7.98781C1.51648 7.80081 1.948 7.70732 2.44117 7.70732C2.5398 7.70732 2.64255 7.71138 2.7494 7.71951C2.85625 7.71951 2.94255 7.72358 3.00831 7.73171V6H4.59877V7.73171C4.67274 7.72358 4.75905 7.71951 4.85768 7.71951C4.96453 7.71138 5.06317 7.70732 5.15358 7.70732C5.66318 7.70732 6.09881 7.80081 6.46047 7.98781C6.83034 8.1748 7.11391 8.45935 7.31118 8.84146C7.51667 9.21545 7.61941 9.67886 7.61941 10.2317V12.9634C7.61941 13.5569 7.52077 14.0407 7.32351 14.4146C7.12624 14.7805 6.85911 15.0528 6.52211 15.2317C6.19334 15.4024 5.82346 15.4878 5.41249 15.4878C5.28098 15.4878 5.14536 15.4837 5.00563 15.4756C4.87412 15.4675 4.7385 15.4593 4.59877 15.4512V17H3.00831ZM2.71241 14.378C2.76173 14.378 2.81515 14.378 2.87269 14.378C2.93023 14.3699 2.97543 14.3618 3.00831 14.3537V8.80488C2.95077 8.79675 2.88913 8.79268 2.82337 8.79268C2.76584 8.78455 2.7083 8.78049 2.65076 8.78049C2.4124 8.78049 2.21514 8.82927 2.05897 8.92683C1.91102 9.02439 1.80005 9.17886 1.72608 9.39024C1.6521 9.60163 1.61512 9.87805 1.61512 10.2195V12.9756C1.61512 13.3089 1.64389 13.5772 1.70142 13.7805C1.76718 13.9837 1.87814 14.1341 2.03431 14.2317C2.19048 14.3293 2.41651 14.378 2.71241 14.378ZM4.94398 14.3659C5.21523 14.3659 5.42482 14.3211 5.57277 14.2317C5.72894 14.1423 5.83579 13.9959 5.89333 13.7927C5.95908 13.5813 5.99196 13.3089 5.99196 12.9756V10.2195C5.99196 9.86992 5.95908 9.58943 5.89333 9.37805C5.82757 9.16667 5.72072 9.01626 5.57277 8.92683C5.43304 8.82927 5.23577 8.78049 4.98097 8.78049C4.91522 8.78049 4.84946 8.78455 4.78371 8.79268C4.71795 8.79268 4.6563 8.79675 4.59877 8.80488V14.3415C4.64809 14.3496 4.70151 14.3577 4.75905 14.3659C4.8248 14.3659 4.88645 14.3659 4.94398 14.3659Z" fill="#787878"/>
<path d="M11.6623 16.7439C10.9554 16.7439 10.3924 16.6138 9.97321 16.3537C9.55402 16.0935 9.25401 15.7195 9.07319 15.2317C8.89236 14.7439 8.80195 14.1667 8.80195 13.5V9.80488C8.80195 9.13821 8.89236 8.56911 9.07319 8.09756C9.25401 7.61789 9.55402 7.25203 9.97321 7C10.3924 6.74797 10.9554 6.62195 11.6623 6.62195C12.3856 6.62195 12.9528 6.74797 13.3637 7C13.7829 7.25203 14.0829 7.61789 14.2638 8.09756C14.4528 8.56911 14.5473 9.13821 14.5473 9.80488V13.5122C14.5473 14.1707 14.4528 14.7439 14.2638 15.2317C14.0829 15.7114 13.7829 16.0854 13.3637 16.3537C12.9528 16.6138 12.3856 16.7439 11.6623 16.7439ZM11.6623 15.4146C11.9664 15.4146 12.1883 15.3496 12.3281 15.2195C12.476 15.0894 12.5747 14.9106 12.624 14.6829C12.6733 14.4553 12.698 14.2073 12.698 13.939V9.39024C12.698 9.11382 12.6733 8.86585 12.624 8.64634C12.5747 8.42683 12.476 8.2561 12.3281 8.13415C12.1883 8.00407 11.9664 7.93902 11.6623 7.93902C11.3746 7.93902 11.1568 8.00407 11.0089 8.13415C10.8609 8.2561 10.7623 8.42683 10.713 8.64634C10.6636 8.86585 10.639 9.11382 10.639 9.39024V13.939C10.639 14.2073 10.6595 14.4553 10.7006 14.6829C10.7499 14.9106 10.8486 15.0894 10.9965 15.2195C11.1445 15.3496 11.3664 15.4146 11.6623 15.4146Z" fill="#787878"/>
<path d="M15.2066 16.6098V15.3171C15.4368 15.3252 15.6299 15.313 15.7861 15.2805C15.9505 15.2398 16.0861 15.1545 16.193 15.0244C16.308 14.8943 16.4026 14.6951 16.4765 14.4268C16.5505 14.1504 16.6122 13.7805 16.6615 13.3171C16.7108 12.8537 16.7642 12.2642 16.8218 11.5488L17.1423 6.73171H22V16.6098H20.1876V8.08537H18.7574L18.5355 11.7683C18.4862 12.4919 18.4287 13.1301 18.3629 13.6829C18.3054 14.2358 18.2108 14.7073 18.0793 15.0976C17.956 15.4797 17.7793 15.7886 17.5492 16.0244C17.319 16.2602 17.0149 16.4268 16.6368 16.5244C16.2587 16.6138 15.782 16.6423 15.2066 16.6098Z" fill="#787878"/>
</g>
</g>
</svg>
