<svg width="22" height="22" viewBox="0 0 22 22" fill="none" xmlns="http://www.w3.org/2000/svg">
<g id="icon &#208;&#179;&#208;&#190;&#208;&#187;">
<g id="&#208;&#147;&#208;&#158;&#208;&#155;">
<path d="M1 16.8542V6.11928H5.62808V7.56386H2.98346V16.8542H1Z" fill="#EE0000"/>
<path d="M9.68649 17C8.9129 17 8.29672 16.8586 7.83796 16.5759C7.3792 16.2932 7.05088 15.8867 6.85298 15.3566C6.65508 14.8265 6.55614 14.1992 6.55614 13.4747V9.45904C6.55614 8.73454 6.65508 8.11606 6.85298 7.60362C7.05088 7.08233 7.3792 6.68474 7.83796 6.41084C8.29672 6.13695 8.9129 6 9.68649 6C10.4781 6 11.0988 6.13695 11.5485 6.41084C12.0073 6.68474 12.3356 7.08233 12.5335 7.60362C12.7404 8.11606 12.8438 8.73454 12.8438 9.45904V13.488C12.8438 14.2036 12.7404 14.8265 12.5335 15.3566C12.3356 15.8779 12.0073 16.2843 11.5485 16.5759C11.0988 16.8586 10.4781 17 9.68649 17ZM9.68649 15.5554C10.0193 15.5554 10.2622 15.4847 10.4151 15.3434C10.577 15.202 10.685 15.0076 10.7389 14.7602C10.7929 14.5129 10.8199 14.2434 10.8199 13.9518V9.00843C10.8199 8.70803 10.7929 8.43855 10.7389 8.2C10.685 7.96145 10.577 7.7759 10.4151 7.64337C10.2622 7.50201 10.0193 7.43133 9.68649 7.43133C9.37166 7.43133 9.13329 7.50201 8.97137 7.64337C8.80945 7.7759 8.70151 7.96145 8.64754 8.2C8.59357 8.43855 8.56658 8.70803 8.56658 9.00843V13.9518C8.56658 14.2434 8.58907 14.5129 8.63405 14.7602C8.68802 15.0076 8.79596 15.202 8.95788 15.3434C9.11979 15.4847 9.36266 15.5554 9.68649 15.5554Z" fill="#EE0000"/>
<path d="M13.5654 16.8542V15.4494C13.8173 15.4582 14.0287 15.445 14.1996 15.4096C14.3795 15.3655 14.5279 15.2727 14.6448 15.1313C14.7708 14.99 14.8742 14.7735 14.9552 14.4819C15.0361 14.1815 15.1036 13.7795 15.1576 13.2759C15.2115 12.7723 15.27 12.1317 15.333 11.3542L15.6838 6.11928H21V16.8542H19.0165V7.59036H17.4514L17.2085 11.5928C17.1545 12.3791 17.0915 13.0727 17.0196 13.6735C16.9566 14.2743 16.8532 14.7867 16.7092 15.2108C16.5743 15.6261 16.3809 15.9618 16.1291 16.2181C15.8772 16.4743 15.5444 16.6554 15.1306 16.7614C14.7168 16.8586 14.1951 16.8896 13.5654 16.8542Z" fill="#EE0000"/>
</g>
</g>
</svg>
