<svg width="113" height="25" viewBox="0 0 113 25" fill="none" xmlns="http://www.w3.org/2000/svg">
<path d="M57.3211 9.47396C56.5105 9.47768 55.7192 9.71536 55.0471 10.157C54.375 10.5987 53.8522 11.2245 53.5446 11.9555C53.237 12.6865 53.1586 13.4899 53.319 14.2644C53.4795 15.0388 53.8717 15.7496 54.4463 16.3069C55.0208 16.8643 55.7518 17.2433 56.5471 17.3961C57.3424 17.5488 58.1663 17.4686 58.9148 17.1653C59.6633 16.8621 60.3029 16.3496 60.7529 15.6924C61.2028 15.0352 61.4429 14.2629 61.4429 13.4728C61.4508 12.9439 61.3494 12.4189 61.1448 11.9291C60.9402 11.4392 60.6366 10.9945 60.252 10.6214C59.8674 10.2483 59.4097 9.95441 58.9062 9.75729C58.4027 9.56016 57.8636 9.46381 57.3211 9.47396V9.47396ZM57.3211 15.9003C56.8226 15.9343 56.3251 15.8213 55.8934 15.576C55.4616 15.3308 55.1155 14.9646 54.9001 14.5251C54.6847 14.0856 54.6099 13.5931 54.6855 13.1116C54.761 12.6301 54.9835 12.1819 55.3238 11.8253C55.6642 11.4687 56.1068 11.2201 56.594 11.1118C57.0812 11.0036 57.5906 11.0408 58.0559 11.2185C58.5211 11.3961 58.9208 11.7062 59.203 12.1082C59.4851 12.5102 59.6366 12.9857 59.6378 13.4728C59.6534 13.7814 59.6054 14.0899 59.4966 14.3802C59.3879 14.6704 59.2206 14.9365 59.0047 15.1628C58.7888 15.389 58.5286 15.5708 58.2394 15.6975C57.9503 15.8242 57.638 15.8931 57.3211 15.9003ZM48.3341 9.47396C47.5231 9.47582 46.7308 9.71193 46.0574 10.1525C45.3841 10.593 44.8597 11.2181 44.5507 11.949C44.2417 12.6798 44.1618 13.4836 44.3212 14.2586C44.4806 15.0337 44.8721 15.7454 45.4462 16.3037C46.0203 16.862 46.7513 17.2419 47.5469 17.3954C48.3424 17.5489 49.1668 17.4692 49.9159 17.1663C50.665 16.8633 51.3052 16.3508 51.7555 15.6934C52.2059 15.036 52.4463 14.2633 52.4463 13.4728C52.4541 12.9439 52.3528 12.4189 52.1482 11.9291C51.9436 11.4392 51.6399 10.9945 51.2553 10.6214C50.8707 10.2483 50.4131 9.95441 49.9095 9.75729C49.406 9.56016 48.8669 9.46381 48.3244 9.47396H48.3341ZM48.3341 15.9003C47.8353 15.9362 47.337 15.8249 46.9041 15.5809C46.4711 15.3369 46.1236 14.9715 45.9067 14.5323C45.6897 14.0931 45.6135 13.6004 45.6879 13.1184C45.7622 12.6363 45.9838 12.1873 46.3236 11.8297C46.6635 11.4721 47.1059 11.2225 47.5934 11.1134C48.0808 11.0043 48.5906 11.0408 49.0565 11.2181C49.5223 11.3954 49.9226 11.7053 50.2053 12.1074C50.4879 12.5095 50.6398 12.9853 50.6412 13.4728C50.6567 13.7814 50.6087 14.0899 50.5 14.3802C50.3912 14.6704 50.224 14.9365 50.008 15.1628C49.7921 15.389 49.5319 15.5708 49.2428 15.6975C48.9536 15.8242 48.6413 15.8931 48.3244 15.9003H48.3341ZM37.6288 10.7065V12.4001H41.7989C41.7336 13.1978 41.3934 13.9505 40.8336 14.536C40.4164 14.9502 39.9149 15.2747 39.3613 15.4886C38.8076 15.7025 38.2142 15.8011 37.6192 15.778C36.3903 15.778 35.2117 15.3021 34.3428 14.4552C33.4739 13.6082 32.9857 12.4595 32.9857 11.2617C32.9857 10.0639 33.4739 8.91513 34.3428 8.06816C35.2117 7.22119 36.3903 6.74536 37.6192 6.74536C38.7947 6.72667 39.9299 7.16317 40.7757 7.95912L42.0017 6.76418C41.4307 6.20061 40.7494 5.75449 39.9983 5.45226C39.2471 5.15003 38.4414 4.99784 37.6288 5.0047C36.7707 4.97215 35.9146 5.10879 35.1119 5.40644C34.3092 5.70409 33.5764 6.15661 32.9575 6.7369C32.3385 7.31719 31.8461 8.01331 31.5097 8.78353C31.1734 9.55375 31 10.3822 31 11.2193C31 12.0564 31.1734 12.8849 31.5097 13.6551C31.8461 14.4253 32.3385 15.1215 32.9575 15.7017C33.5764 16.282 34.3092 16.7346 35.1119 17.0322C35.9146 17.3299 36.7707 17.4665 37.6288 17.4339C38.4551 17.4703 39.2797 17.3338 40.0473 17.0336C40.8149 16.7333 41.5076 16.2763 42.0789 15.6933C43.0902 14.6102 43.6302 13.1865 43.5848 11.7227C43.5879 11.3661 43.5555 11.01 43.4882 10.6595L37.6288 10.7065ZM81.3669 12.0238C81.1151 11.3019 80.6444 10.6715 80.0169 10.2162C79.3894 9.76085 78.6349 9.50202 77.8532 9.47396C77.3251 9.47295 76.8025 9.57752 76.3176 9.78119C75.8327 9.98487 75.3958 10.2833 75.0339 10.6581C74.672 11.0329 74.3928 11.476 74.2136 11.9602C74.0344 12.4443 73.9589 12.9591 73.9919 13.4728C73.9802 13.9986 74.0773 14.5214 74.2775 15.0099C74.4777 15.4984 74.7769 15.9425 75.1571 16.3158C75.5373 16.689 75.9909 16.9837 76.4906 17.1823C76.9903 17.3809 77.5259 17.4793 78.0655 17.4716C78.7408 17.4751 79.4064 17.3154 80.0027 17.0067C80.5991 16.698 81.1076 16.2499 81.4827 15.7027L80.083 14.7618C79.8741 15.1013 79.5784 15.382 79.2247 15.5766C78.8711 15.7713 78.4716 15.8731 78.0655 15.8721C77.6474 15.8876 77.2341 15.7801 76.8795 15.5637C76.5248 15.3472 76.2452 15.0317 76.077 14.6583L81.5696 12.4472L81.3669 12.0238ZM75.7681 13.3599C75.7485 13.0688 75.7887 12.7769 75.8864 12.5012C75.984 12.2255 76.1371 11.9716 76.3366 11.7543C76.5362 11.537 76.7783 11.3607 77.0486 11.2357C77.319 11.1107 77.6122 11.0396 77.9111 11.0264C78.2225 11.0064 78.533 11.076 78.8041 11.2266C79.0753 11.3771 79.2951 11.602 79.4363 11.8732L75.7681 13.3599ZM71.3084 17.2363H73.1135V5.47515H71.3084V17.2363ZM68.3545 10.3678H68.287C68.0149 10.0713 67.6816 9.83425 67.309 9.6721C66.9364 9.50995 66.5328 9.42639 66.1247 9.42692C65.0698 9.47678 64.075 9.92034 63.3465 10.6657C62.618 11.411 62.2117 12.401 62.2117 13.4304C62.2117 14.4599 62.618 15.4498 63.3465 16.1952C64.075 16.9405 65.0698 17.3841 66.1247 17.4339C66.5337 17.4406 66.9393 17.3599 67.3129 17.1973C67.6865 17.0348 68.019 16.7944 68.287 16.493H68.3449V17.067C68.3449 18.6006 67.5051 19.4192 66.1536 19.4192C65.7035 19.409 65.2667 19.2684 64.8989 19.0154C64.531 18.7624 64.2487 18.4084 64.0879 17.9985L62.5144 18.6383C62.8106 19.3405 63.3153 19.9405 63.9637 20.3613C64.6121 20.7821 65.3747 21.0045 66.1536 20.9999C68.2677 20.9999 70.0149 19.7862 70.0149 16.8318V9.70918H68.3545V10.3678ZM66.2888 15.9003C65.6661 15.8468 65.0866 15.5679 64.6644 15.1186C64.2423 14.6692 64.0081 14.082 64.0081 13.4728C64.0081 12.8635 64.2423 12.2763 64.6644 11.827C65.0866 11.3776 65.6661 11.0987 66.2888 11.0453C66.5975 11.0607 66.8999 11.1362 67.1783 11.2673C67.4566 11.3985 67.7052 11.5826 67.9094 11.8088C68.1136 12.035 68.2693 12.2988 68.3673 12.5846C68.4653 12.8703 68.5036 13.1723 68.48 13.4728C68.5064 13.7745 68.4696 14.0783 68.3721 14.3658C68.2745 14.6533 68.1181 14.9186 67.9124 15.1455C67.7067 15.3724 67.4558 15.5563 67.1751 15.686C66.8944 15.8158 66.5896 15.8886 66.2791 15.9003H66.2888ZM89.823 5.47515H85.508V17.2363H87.3132V12.7765H89.8326C90.3471 12.8125 90.8636 12.7449 91.3501 12.5777C91.8365 12.4106 92.2825 12.1475 92.66 11.805C93.0376 11.4625 93.3387 11.0478 93.5446 10.5869C93.7505 10.1259 93.8567 9.62857 93.8567 9.12583C93.8567 8.62308 93.7505 8.12573 93.5446 7.66477C93.3387 7.20382 93.0376 6.78916 92.66 6.44663C92.2825 6.10411 91.8365 5.84108 91.3501 5.67394C90.8636 5.5068 90.3471 5.43913 89.8326 5.47515H89.823ZM89.823 11.1205H87.3035V7.11231H89.8616C90.4107 7.11231 90.9374 7.32494 91.3257 7.70343C91.714 8.08192 91.9322 8.59527 91.9322 9.13053C91.9322 9.6658 91.714 10.1791 91.3257 10.5576C90.9374 10.9361 90.4107 11.1488 89.8616 11.1488L89.823 11.1205ZM100.953 9.42692C100.296 9.38863 99.6415 9.53832 99.0704 9.85758C98.4993 10.1769 98.0364 10.6518 97.7385 11.224L99.3409 11.8732C99.4989 11.5894 99.7381 11.3565 100.029 11.2028C100.321 11.0491 100.652 10.9813 100.982 11.0076C101.211 10.9815 101.443 11.0002 101.665 11.0625C101.887 11.1248 102.093 11.2295 102.273 11.3705C102.453 11.5115 102.602 11.686 102.712 11.8838C102.821 12.0816 102.89 12.2987 102.913 12.5225V12.6448C102.333 12.3456 101.686 12.1904 101.03 12.1931C99.3023 12.1931 97.5551 13.134 97.5551 14.8371C97.5721 15.2002 97.6637 15.5563 97.8244 15.8843C97.9851 16.2124 98.2116 16.5057 98.4906 16.7469C98.7696 16.9881 99.0953 17.1724 99.4486 17.2888C99.802 17.4052 100.176 17.4513 100.548 17.4245C101.002 17.4563 101.457 17.3683 101.865 17.1696C102.272 16.971 102.618 16.669 102.864 16.2955H102.922V17.2363H104.66V12.7106C104.66 10.6501 103.057 9.45514 101.001 9.45514L100.953 9.42692ZM100.731 15.8721C100.142 15.8721 99.3216 15.5804 99.3216 14.8747C99.3216 13.9338 100.345 13.6233 101.252 13.6233C101.826 13.6095 102.392 13.746 102.893 14.0185C102.833 14.5279 102.586 14.9989 102.197 15.3447C101.809 15.6905 101.305 15.8878 100.779 15.9003L100.731 15.8721ZM110.992 9.70918L108.926 14.8088H108.868L106.726 9.70918H104.795L108.009 16.8412L106.175 20.8023H108.058L113 9.70918H110.992ZM94.7653 17.2363H96.5705V5.47515H94.7653V17.2363Z" fill="white"/>
<path d="M0.447767 0.394184C0.137071 0.774175 -0.0197487 1.26063 0.00927408 1.75439V23.2456C-0.0197487 23.7394 0.137071 24.2259 0.447767 24.6059L0.514493 24.6739L12.3252 12.6458V12.364L0.514493 0.326172L0.447767 0.394184Z" fill="url(#paint0_linear_50_15904)"/>
<path d="M16.2325 16.6585L12.3242 12.6459V12.3641L16.2325 8.3418L16.3183 8.39038L20.9987 11.1011C22.3333 11.8686 22.3333 13.1317 20.9987 13.9089L16.3374 16.6099L16.2325 16.6585Z" fill="url(#paint1_linear_50_15904)"/>
<path d="M16.3474 16.6001L12.3247 12.5L0.447266 24.6058C0.719285 24.8496 1.06629 24.9888 1.42832 24.9994C1.79035 25.0101 2.14466 24.8915 2.43001 24.6641L16.3569 16.6001" fill="url(#paint2_linear_50_15904)"/>
<path d="M16.3481 8.40002L2.42122 0.335943C2.13587 0.108607 1.78157 -0.00998509 1.41954 0.000658925C1.05751 0.0113029 0.710496 0.150516 0.438477 0.394239L12.3254 12.5001L16.3481 8.40002Z" fill="url(#paint3_linear_50_15904)"/>
<path opacity="0.2" d="M16.233 16.5127L2.42048 24.5282C2.14527 24.7379 1.81086 24.8512 1.46723 24.8512C1.12361 24.8512 0.789203 24.7379 0.513992 24.5282L0.447266 24.5962L0.513992 24.6642C0.788579 24.8754 1.12322 24.9897 1.46723 24.9897C1.81125 24.9897 2.14589 24.8754 2.42048 24.6642L16.3474 16.6001L16.233 16.5127Z" fill="black"/>
<path opacity="0.12" d="M0.447767 24.4698C0.137071 24.0898 -0.0197487 23.6034 0.00927408 23.1096V23.2553C-0.0197487 23.7491 0.137071 24.2356 0.447767 24.6156L0.514493 24.5475L0.447767 24.4698ZM20.9997 13.763L16.2335 16.5126L16.3193 16.6001L20.9997 13.8991C21.2653 13.7719 21.4932 13.5756 21.6606 13.33C21.828 13.0843 21.9288 12.798 21.9529 12.5C21.8993 12.7708 21.7855 13.0254 21.6203 13.2444C21.455 13.4634 21.2427 13.6408 20.9997 13.763Z" fill="black"/>
<path opacity="0.25" d="M2.42124 0.47219L20.9999 11.2373C21.243 11.3595 21.4553 11.5369 21.6205 11.7559C21.7858 11.9749 21.8996 12.2295 21.9532 12.5003C21.929 12.2023 21.8282 11.916 21.6608 11.6703C21.4935 11.4247 21.2655 11.2284 20.9999 11.1012L2.42124 0.336168C1.0867 -0.431377 0 0.209864 0 1.76439V1.91012C0.0285973 0.345884 1.09623 -0.295355 2.42124 0.47219Z" fill="white"/>
<defs>
<linearGradient id="paint0_linear_50_15904" x1="11.2766" y1="1.53093" x2="-5.02348" y2="17.5234" gradientUnits="userSpaceOnUse">
<stop stop-color="#00A0FF"/>
<stop offset="0.01" stop-color="#00A1FF"/>
<stop offset="0.26" stop-color="#00BEFF"/>
<stop offset="0.51" stop-color="#00D2FF"/>
<stop offset="0.76" stop-color="#00DFFF"/>
<stop offset="1" stop-color="#00E3FF"/>
</linearGradient>
<linearGradient id="paint1_linear_50_15904" x1="22.7432" y1="12.5001" x2="-0.315776" y2="12.5001" gradientUnits="userSpaceOnUse">
<stop stop-color="#FFE000"/>
<stop offset="0.41" stop-color="#FFBD00"/>
<stop offset="0.78" stop-color="#FFA500"/>
<stop offset="1" stop-color="#FF9C00"/>
</linearGradient>
<linearGradient id="paint2_linear_50_15904" x1="14.1644" y1="14.7346" x2="-7.94444" y2="36.4168" gradientUnits="userSpaceOnUse">
<stop stop-color="#FF3A44"/>
<stop offset="1" stop-color="#C31162"/>
</linearGradient>
<linearGradient id="paint3_linear_50_15904" x1="-2.54517" y1="-6.75656" x2="7.32425" y2="2.92663" gradientUnits="userSpaceOnUse">
<stop stop-color="#32A071"/>
<stop offset="0.07" stop-color="#2DA771"/>
<stop offset="0.48" stop-color="#15CF74"/>
<stop offset="0.8" stop-color="#06E775"/>
<stop offset="1" stop-color="#00F076"/>
</linearGradient>
</defs>
</svg>
