<svg width="20" height="21" viewBox="0 0 20 21" fill="none" xmlns="http://www.w3.org/2000/svg">
<g id="present mob">
<g id="present">
<path d="M8.50131 8.99278C8.53186 8.96215 8.53185 8.92874 8.53463 8.89533C8.57073 8.2912 8.69014 7.70098 8.84843 7.11633C8.97339 6.65139 9.13445 6.19759 9.35105 5.76885C9.58987 5.30113 9.90922 4.89744 10.3008 4.55222C10.584 4.30165 10.9145 4.15131 11.281 4.07058C11.6087 3.99819 11.9419 3.98149 12.2752 4.02046C12.7195 4.07058 13.1194 4.2404 13.4693 4.52159C13.9608 4.91414 14.269 5.42362 14.3884 6.04168C14.5162 6.70429 14.3857 7.31956 14.0135 7.88194C13.7442 8.28841 13.3915 8.60301 12.9777 8.85636C12.8861 8.91204 12.7889 8.96494 12.6973 9.02062C12.6862 9.02897 12.6723 9.03732 12.6501 9.05403C12.6862 9.05681 12.7084 9.05959 12.7278 9.05959C13.4665 9.07073 14.2052 9.07908 14.9466 9.09022C15.1521 9.093 15.3548 9.10414 15.5575 9.11249C15.738 9.11806 15.8991 9.17096 16.0574 9.26005C16.4073 9.45493 16.6794 9.7222 16.8488 10.0897C16.9349 10.279 16.9766 10.4767 16.9793 10.6855C16.9849 11.1114 16.996 11.5402 16.9988 11.9661C17.0015 12.3893 16.9988 12.8125 16.9988 13.2357C16.9988 13.2607 16.9988 13.283 16.9988 13.3136C14.4606 13.3136 11.9253 13.3136 9.38438 13.3136C9.3816 13.283 9.37882 13.2552 9.37882 13.2273C9.37882 12.7457 9.37882 12.2668 9.37882 11.7852C9.37882 11.195 9.37882 10.6047 9.37882 10.0145C9.37882 9.98668 9.37882 9.95884 9.37882 9.931C9.31495 9.91151 7.68766 9.91151 7.62379 9.931C7.62379 11.053 7.62379 12.1777 7.62379 13.2969C7.61546 13.3053 7.61269 13.3081 7.61269 13.3081C7.60991 13.3108 7.60991 13.3108 7.60713 13.3108C7.5988 13.3136 7.59047 13.3164 7.58214 13.3164C5.069 13.3164 2.55586 13.3164 0.0427259 13.3164C0.034395 13.3164 0.0260642 13.3136 0.0121795 13.3108C0.00662557 13.2969 0.00107167 13.2802 0.00107167 13.2635C0.00384862 12.4283 -0.0100361 11.5931 0.0177334 10.7606C0.0260642 10.5157 0.0621645 10.279 0.170465 10.0563C0.345413 9.69436 0.614777 9.42987 0.973003 9.24891C1.17572 9.1459 1.38955 9.11527 1.6117 9.10971C2.2865 9.09579 2.9613 9.08465 3.6361 9.07073C3.84437 9.06795 4.05264 9.06516 4.26091 9.05959C4.27757 9.05959 4.29423 9.05681 4.32478 9.05403C4.30534 9.03732 4.29701 9.02619 4.2859 9.02062C4.16372 8.94545 4.04153 8.87585 3.92212 8.79789C3.60555 8.5863 3.33063 8.32739 3.08348 8.04063C2.93631 7.8708 2.83911 7.67035 2.7558 7.46155C2.6114 7.10519 2.54198 6.7377 2.56419 6.3535C2.58086 6.06396 2.65028 5.78833 2.76136 5.52107C2.98351 4.9921 3.35562 4.59955 3.84714 4.31279C4.07485 4.17915 4.31922 4.0845 4.58026 4.03995C4.76631 4.00654 4.95515 4.00654 5.14398 4.01211C5.28838 4.01768 5.43278 4.02046 5.57441 4.04274C5.92985 4.09563 6.2492 4.2404 6.54356 4.44642C6.87957 4.68307 7.14894 4.98653 7.37665 5.32897C7.66822 5.76885 7.8765 6.25049 8.04033 6.75162C8.18196 7.18593 8.28193 7.63138 8.35968 8.07961C8.40689 8.34966 8.44855 8.61971 8.46243 8.89255C8.46799 8.94545 8.47076 8.94545 8.50131 8.99278ZM10.3369 8.06847C10.3841 8.0629 10.4174 8.0629 10.4479 8.05455C10.5979 8.01836 10.7506 7.97938 10.8978 7.94041C11.2921 7.83183 11.6698 7.68706 12.0197 7.47547C12.2085 7.36132 12.3863 7.23604 12.539 7.07178C12.6195 6.98548 12.6917 6.89082 12.7223 6.77389C12.8111 6.44259 12.75 6.14748 12.5057 5.89413C12.278 5.66305 12.0086 5.59902 11.7004 5.66584C11.5337 5.70203 11.3949 5.79669 11.2755 5.9164C11.0589 6.12799 10.9117 6.38691 10.7867 6.65696C10.6701 6.90752 10.5757 7.16644 10.4924 7.42814C10.4368 7.60354 10.3924 7.78171 10.3452 7.95989C10.3396 7.9933 10.3424 8.02393 10.3369 8.06847ZM6.65464 8.06569C6.64631 8.01557 6.64353 7.9766 6.6352 7.94041C6.61021 7.82904 6.58244 7.72047 6.55467 7.6091C6.44359 7.19706 6.29641 6.79616 6.08814 6.42031C5.98262 6.231 5.86321 6.05282 5.7077 5.8997C5.56607 5.75771 5.40223 5.66305 5.20229 5.64356C4.88017 5.61016 4.62191 5.73265 4.4192 5.98043C4.16094 6.29503 4.18871 6.77667 4.42475 7.0328C4.47473 7.0857 4.52472 7.14138 4.58026 7.18871C4.8163 7.39752 5.08566 7.55064 5.36891 7.67592C5.74102 7.84296 6.13257 7.94597 6.5269 8.04063C6.563 8.05455 6.60188 8.05734 6.65464 8.06569Z" fill="white"/>
<path d="M16.1572 14.2069C16.16 14.232 16.16 14.2542 16.16 14.2737C16.1544 15.83 16.1489 17.3891 16.1433 18.9454C16.1433 19.1347 16.1405 19.324 16.1183 19.5105C16.0656 19.9504 15.8628 20.3096 15.5268 20.5963C15.3436 20.7522 15.1325 20.858 14.8992 20.9248C14.7437 20.9694 14.5827 20.9749 14.4244 20.9777C13.9884 20.9861 13.5497 20.9944 13.1137 20.9944C11.9001 20.9972 10.6866 20.9944 9.47032 20.9944C9.44255 20.9944 9.41756 20.9944 9.39256 20.9944C9.3759 20.9415 9.37312 14.2821 9.38701 14.2069C9.43422 14.1986 16.06 14.193 16.1572 14.2069Z" fill="white"/>
<path d="M7.6156 14.2069C7.6156 16.4703 7.6156 18.731 7.6156 20.9944C7.59338 20.9972 7.57672 21 7.56006 21C6.12715 21 4.69703 21 3.26412 20.9944C2.96143 20.9944 2.66152 20.9749 2.35884 20.9638C2.08947 20.9527 1.83955 20.8747 1.61739 20.716C1.37857 20.5434 1.17863 20.3318 1.04256 20.0701C0.934262 19.8613 0.870393 19.6358 0.864839 19.3964C0.853731 18.5222 0.839846 17.648 0.837069 16.7738C0.831515 15.9469 0.837069 15.1229 0.837069 14.296C0.837069 14.2682 0.837069 14.2403 0.837069 14.2125C0.895385 14.1986 7.52951 14.193 7.6156 14.2069Z" fill="white"/>
</g>
<circle id="Ellipse" cx="16.5" cy="3.5" r="3.5" fill="#EE0000"/>
</g>
</svg>
