<svg width="70" height="28" viewBox="0 0 70 28" fill="none" xmlns="http://www.w3.org/2000/svg">
<g clip-path="url(#clip0_1_37879)">
<path d="M31.7061 3.7334V14.9334H34.7204V6.16006H40.042V14.9334H43.0564V3.7334H31.7061Z" fill="white"/>
<path d="M53.7372 7.65313C53.7372 8.02647 53.6628 8.32513 53.5512 8.54913C53.4395 8.77313 53.2907 8.88513 53.0674 8.99713C52.8813 9.0718 52.658 9.10913 52.3975 9.10913H48.4528V6.19713H52.3975C52.658 6.19713 52.8441 6.23447 53.0674 6.30913C53.2535 6.3838 53.4395 6.53313 53.5512 6.75713C53.6628 6.98113 53.7372 7.2798 53.7372 7.65313ZM52.3231 11.4611C52.8813 11.4611 53.4023 11.4238 53.9233 11.3118C54.4443 11.1998 54.8909 11.0505 55.3002 10.7518C55.7096 10.4905 56.0445 10.0798 56.2678 9.59447C56.4911 9.0718 56.64 8.43713 56.64 7.6158C56.64 6.79447 56.5283 6.1598 56.2678 5.63713C56.0445 5.11447 55.7096 4.74113 55.3002 4.44247C54.8909 4.1438 54.4443 3.95713 53.9233 3.84513C53.4023 3.73313 52.8441 3.6958 52.2859 3.6958H45.4385V14.8958H48.4156V11.4238H52.3231V11.4611Z" fill="white"/>
<path d="M64.0461 15.1573C65.0136 15.1573 65.8696 15.0826 66.5766 14.9706C67.2837 14.8213 67.8419 14.6346 68.2885 14.3359C68.7351 14.0373 69.07 13.6639 69.3305 13.2159C69.591 12.7679 69.7398 12.2079 69.8515 11.5733C69.9631 10.9386 70.0004 10.1919 70.0004 9.33328C70.0004 8.47461 69.9631 7.72794 69.8515 7.09328C69.7398 6.45861 69.591 5.89861 69.3305 5.45061C69.07 5.00261 68.7351 4.62928 68.2885 4.33061C67.8419 4.03194 67.2837 3.84528 66.5766 3.69594C65.8696 3.54661 65.0509 3.50928 64.0461 3.50928C63.0785 3.50928 62.2226 3.58394 61.5155 3.69594C60.8084 3.84528 60.2502 4.03194 59.8036 4.33061C59.3571 4.62928 59.0221 5.00261 58.7616 5.45061C58.5011 5.89861 58.3523 6.45861 58.2407 7.09328C58.129 7.72794 58.0918 8.47461 58.0918 9.33328C58.0918 10.1919 58.129 10.9386 58.2407 11.5733C58.3523 12.2079 58.5011 12.7679 58.7616 13.2159C59.0221 13.6639 59.3571 14.0373 59.8036 14.3359C60.2502 14.6346 60.8084 14.8213 61.5155 14.9706C62.2226 15.0826 63.0785 15.1573 64.0461 15.1573ZM64.0461 6.01061C64.6787 6.01061 65.1997 6.04794 65.6091 6.19728C66.0184 6.30928 66.3161 6.49594 66.5022 6.75728C66.7255 7.01861 66.8371 7.35461 66.9116 7.80261C66.986 8.21328 67.0232 8.77328 67.0232 9.37061C67.0232 10.0053 66.986 10.5279 66.9116 10.9386C66.8371 11.3493 66.6883 11.7226 66.5022 11.9839C66.2789 12.2453 65.9812 12.4319 65.6091 12.5439C65.1997 12.6559 64.6787 12.7306 64.0461 12.7306C63.4134 12.7306 62.8924 12.6933 62.4831 12.5439C62.0737 12.4319 61.776 12.2453 61.5899 11.9839C61.3666 11.7226 61.255 11.3866 61.1806 10.9386C61.1061 10.5279 61.0689 9.96794 61.0689 9.37061C61.0689 8.73594 61.1061 8.21328 61.1806 7.80261C61.255 7.39194 61.4039 7.01861 61.5899 6.75728C61.8132 6.49594 62.1109 6.30928 62.4831 6.19728C62.8924 6.04794 63.4134 6.01061 64.0461 6.01061Z" fill="white"/>
<path d="M36.5814 23.0344H33.8648C33.6787 23.0344 33.4926 22.997 33.381 22.9597C33.2321 22.9224 33.1205 22.8104 33.0461 22.6984C32.9716 22.5864 32.8972 22.3997 32.86 22.213C32.8228 21.989 32.7855 21.7277 32.8228 21.3917C32.8228 21.0557 32.8228 20.7944 32.86 20.5704C32.8972 20.3464 32.9716 20.197 33.0461 20.085C33.1205 19.973 33.2321 19.861 33.381 19.8237C33.5298 19.7864 33.6787 19.749 33.8648 19.749H36.5814V18.4424H33.8648C33.5298 18.4424 33.1949 18.4797 32.9344 18.517C32.6739 18.5544 32.4134 18.6664 32.1901 18.7784C31.9668 18.8904 31.818 19.077 31.6691 19.301C31.5203 19.525 31.4086 19.7864 31.3714 20.1597C31.297 20.4957 31.2598 20.9064 31.2598 21.3917C31.2598 21.877 31.297 22.2877 31.3714 22.6237C31.4458 22.9597 31.5575 23.2584 31.6691 23.4824C31.818 23.7064 31.9668 23.893 32.1901 24.005C32.4134 24.117 32.6367 24.229 32.9344 24.2664C33.1949 24.3037 33.5298 24.341 33.8648 24.341H36.5814V23.0344Z" fill="white"/>
<path d="M39.1494 24.3037H40.7124V19.7117H42.7964V18.4424H37.0654V19.7117H39.1494V24.3037Z" fill="white"/>
<path d="M45.9597 19.8611L46.9645 21.9891H44.9549L45.9597 19.8611ZM42.2383 24.3037H43.8757L44.3967 23.1464H47.5227L48.0437 24.3037H49.6439L46.7784 18.4424H45.0666L42.2383 24.3037Z" fill="white"/>
<path d="M51.8021 19.637H53.9606C54.0722 19.637 54.1839 19.637 54.2955 19.6744C54.4071 19.7117 54.4816 19.7864 54.5188 19.8611C54.5932 19.9357 54.5932 20.0851 54.5932 20.2344C54.5932 20.4584 54.556 20.6077 54.4444 20.6824C54.3327 20.7571 54.1839 20.8317 53.9606 20.8317H51.8021V19.637V19.637ZM53.9978 21.8024C54.1467 21.8024 54.2583 21.8024 54.3699 21.8397C54.4816 21.8771 54.556 21.9517 54.5932 22.0264C54.6304 22.1011 54.6676 22.2504 54.6676 22.3997C54.6676 22.5491 54.6304 22.6984 54.5932 22.7731C54.5188 22.8477 54.4444 22.9224 54.3327 22.9597C54.2211 22.9971 54.1094 22.9971 53.9978 22.9971H51.8021V21.7651H53.9978V21.8024ZM56.0818 20.085C56.0818 19.749 56.0074 19.4877 55.9329 19.2637C55.8213 19.0397 55.6724 18.8904 55.4864 18.7784C55.3003 18.6664 55.077 18.5917 54.8165 18.517C54.556 18.4797 54.2583 18.4424 53.9606 18.4424H50.2764V24.3037H53.9606C54.2955 24.3037 54.5932 24.2664 54.8909 24.2291C55.1514 24.1917 55.4119 24.0797 55.598 23.9677C55.7841 23.8557 55.9701 23.6691 56.0818 23.4451C56.1934 23.2211 56.2306 22.9224 56.2679 22.5864C56.2679 22.2504 56.1934 21.9517 56.119 21.7277C56.0074 21.5037 55.8585 21.3544 55.6724 21.2424C55.8213 21.1304 55.9701 20.981 56.0446 20.757C56.0446 20.6077 56.0818 20.3837 56.0818 20.085Z" fill="white"/>
<path d="M63.1524 18.4424H61.4778L59.8031 20.8317H58.7983V18.4424H57.2354V24.3037H58.7983V21.9144H59.8031L61.4778 24.3037H63.1896L61.1801 21.2797L63.1524 18.4424Z" fill="white"/>
<path d="M65.5345 18.4424H64.0459V24.3037H65.6461L68.5488 20.2717V24.3037H70.0002V18.4424H68.4L65.5345 22.5864V18.4424Z" fill="white"/>
<path fill-rule="evenodd" clip-rule="evenodd" d="M24.1893 24.2667V3.73333H3.72142V24.2667H24.1893ZM0 24.2667V3.73333C0 1.68 1.67464 0 3.72142 0H24.1893C26.236 0 27.9107 1.68 27.9107 3.73333V24.2667C27.9107 26.32 26.236 28 24.1893 28H3.72142C1.67464 28 0 26.32 0 24.2667Z" fill="white"/>
<path fill-rule="evenodd" clip-rule="evenodd" d="M11.9834 17.3601L10.6064 15.9788L12.5788 14.0001L10.6064 12.0215L11.9834 10.6401L13.9557 12.6188L15.9281 10.6401L17.305 12.0215L15.3327 14.0001L17.305 15.9788L15.9281 17.3601L13.9557 15.3815L11.9834 17.3601Z" fill="white"/>
<path fill-rule="evenodd" clip-rule="evenodd" d="M17.1562 22.4002V20.5708L19.9473 18.1815C20.0962 18.1068 20.1334 18.0322 20.1706 17.9948C20.2078 17.9575 20.2078 17.8828 20.2078 17.8082C20.2078 17.6962 20.1706 17.6588 20.1706 17.6588C20.1706 17.6588 20.0962 17.6215 19.9845 17.6215H17.1562V15.6802H20.2822C20.6916 15.6802 21.0265 15.7548 21.3242 15.8668C21.6592 16.0162 21.9197 16.2402 22.1057 16.5388C22.2918 16.8375 22.3662 17.2482 22.3662 17.6962C22.3662 18.0322 22.329 18.3308 22.2174 18.6295C22.1057 18.8908 21.9197 19.1522 21.6964 19.3388C21.2126 19.8242 20.58 20.1602 19.9845 20.5708H22.329V22.4375H17.1562V22.4002Z" fill="white"/>
<path fill-rule="evenodd" clip-rule="evenodd" d="M5.58203 12.3201V10.4534H7.10782V7.5041H5.58203V5.6001H9.22903V10.4534H10.7548V12.3201H5.58203Z" fill="white"/>
</g>
<defs>
<clipPath id="clip0_1_37879">
<rect width="70" height="28" fill="white"/>
</clipPath>
</defs>
</svg>
