<svg width="18" height="12" viewBox="0 0 18 12" fill="none" xmlns="http://www.w3.org/2000/svg">
<g id="icon youtube">
<path id="Exclude" fill-rule="evenodd" clip-rule="evenodd" d="M16.0428 0.367059C16.8138 0.564706 17.4217 1.14353 17.6292 1.87765C18.0147 3.21882 17.9999 6.01412 17.9999 6.01412C17.9999 6.01412 17.9999 8.79529 17.6292 10.1365C17.4217 10.8706 16.8138 11.4494 16.0428 11.6471C14.6342 12 8.99996 12 8.99996 12C8.99996 12 3.38055 12 1.95716 11.6329C1.18616 11.4353 0.578251 10.8565 0.370674 10.1224C0 8.79529 0 6 0 6C0 6 0 3.21882 0.370674 1.87765C0.578251 1.14353 1.20098 0.550588 1.95716 0.352941C3.36572 0 8.99996 0 8.99996 0C8.99996 0 14.6342 0 16.0428 0.367059ZM11.8904 6.00007L7.20508 8.56949V3.43066L11.8904 6.00007Z" fill="white"/>
</g>
</svg>
