<svg width="40" height="35" viewBox="0 0 40 35" fill="none" xmlns="http://www.w3.org/2000/svg">
<rect width="40" height="35" rx="3" fill="#5334EA"/>
<path d="M18.5013 15.9928C18.5319 15.9622 18.5319 15.9287 18.5346 15.8953C18.5707 15.2912 18.6901 14.701 18.8484 14.1163C18.9734 13.6514 19.1345 13.1976 19.3511 12.7688C19.5899 12.3011 19.9092 11.8974 20.3008 11.5522C20.584 11.3017 20.9145 11.1513 21.281 11.0706C21.6087 10.9982 21.9419 10.9815 22.2752 11.0205C22.7195 11.0706 23.1194 11.2404 23.4693 11.5216C23.9608 11.9141 24.269 12.4236 24.3884 13.0417C24.5162 13.7043 24.3857 14.3196 24.0135 14.8819C23.7442 15.2884 23.3915 15.603 22.9777 15.8564C22.8861 15.912 22.7889 15.9649 22.6973 16.0206C22.6862 16.029 22.6723 16.0373 22.6501 16.054C22.6862 16.0568 22.7084 16.0596 22.7278 16.0596C23.4665 16.0707 24.2052 16.0791 24.9466 16.0902C25.1521 16.093 25.3548 16.1041 25.5575 16.1125C25.738 16.1181 25.8991 16.171 26.0574 16.26C26.4073 16.4549 26.6794 16.7222 26.8488 17.0897C26.9349 17.279 26.9766 17.4767 26.9793 17.6855C26.9849 18.1114 26.996 18.5402 26.9988 18.9661C27.0015 19.3893 26.9988 19.8125 26.9988 20.2357C26.9988 20.2607 26.9988 20.283 26.9988 20.3136C24.4606 20.3136 21.9253 20.3136 19.3844 20.3136C19.3816 20.283 19.3788 20.2552 19.3788 20.2273C19.3788 19.7457 19.3788 19.2668 19.3788 18.7852C19.3788 18.195 19.3788 17.6047 19.3788 17.0145C19.3788 16.9867 19.3788 16.9588 19.3788 16.931C19.315 16.9115 17.6877 16.9115 17.6238 16.931C17.6238 18.053 17.6238 19.1777 17.6238 20.2969C17.6155 20.3053 17.6127 20.3081 17.6127 20.3081C17.6099 20.3108 17.6099 20.3108 17.6071 20.3108C17.5988 20.3136 17.5905 20.3164 17.5821 20.3164C15.069 20.3164 12.5559 20.3164 10.0427 20.3164C10.0344 20.3164 10.0261 20.3136 10.0122 20.3108C10.0066 20.2969 10.0011 20.2802 10.0011 20.2635C10.0038 19.4283 9.98996 18.5931 10.0177 17.7606C10.0261 17.5157 10.0622 17.279 10.1705 17.0563C10.3454 16.6944 10.6148 16.4299 10.973 16.2489C11.1757 16.1459 11.3895 16.1153 11.6117 16.1097C12.2865 16.0958 12.9613 16.0846 13.6361 16.0707C13.8444 16.0679 14.0526 16.0652 14.2609 16.0596C14.2776 16.0596 14.2942 16.0568 14.3248 16.054C14.3053 16.0373 14.297 16.0262 14.2859 16.0206C14.1637 15.9454 14.0415 15.8758 13.9221 15.7979C13.6055 15.5863 13.3306 15.3274 13.0835 15.0406C12.9363 14.8708 12.8391 14.6704 12.7558 14.4615C12.6114 14.1052 12.542 13.7377 12.5642 13.3535C12.5809 13.064 12.6503 12.7883 12.7614 12.5211C12.9835 11.9921 13.3556 11.5995 13.8471 11.3128C14.0749 11.1792 14.3192 11.0845 14.5803 11.04C14.7663 11.0065 14.9551 11.0065 15.144 11.0121C15.2884 11.0177 15.4328 11.0205 15.5744 11.0427C15.9299 11.0956 16.2492 11.2404 16.5436 11.4464C16.8796 11.6831 17.1489 11.9865 17.3766 12.329C17.6682 12.7688 17.8765 13.2505 18.0403 13.7516C18.182 14.1859 18.2819 14.6314 18.3597 15.0796C18.4069 15.3497 18.4485 15.6197 18.4624 15.8926C18.468 15.9454 18.4708 15.9454 18.5013 15.9928ZM20.3369 15.0685C20.3841 15.0629 20.4174 15.0629 20.4479 15.0546C20.5979 15.0184 20.7506 14.9794 20.8978 14.9404C21.2921 14.8318 21.6698 14.6871 22.0197 14.4755C22.2085 14.3613 22.3863 14.236 22.539 14.0718C22.6195 13.9855 22.6917 13.8908 22.7223 13.7739C22.8111 13.4426 22.75 13.1475 22.5057 12.8941C22.278 12.6631 22.0086 12.599 21.7004 12.6658C21.5337 12.702 21.3949 12.7967 21.2755 12.9164C21.0589 13.128 20.9117 13.3869 20.7867 13.657C20.6701 13.9075 20.5757 14.1664 20.4924 14.4281C20.4368 14.6035 20.3924 14.7817 20.3452 14.9599C20.3396 14.9933 20.3424 15.0239 20.3369 15.0685ZM16.6546 15.0657C16.6463 15.0156 16.6435 14.9766 16.6352 14.9404C16.6102 14.829 16.5824 14.7205 16.5547 14.6091C16.4436 14.1971 16.2964 13.7962 16.0881 13.4203C15.9826 13.231 15.8632 13.0528 15.7077 12.8997C15.5661 12.7577 15.4022 12.6631 15.2023 12.6436C14.8802 12.6102 14.6219 12.7327 14.4192 12.9804C14.1609 13.295 14.1887 13.7767 14.4247 14.0328C14.4747 14.0857 14.5247 14.1414 14.5803 14.1887C14.8163 14.3975 15.0857 14.5506 15.3689 14.6759C15.741 14.843 16.1326 14.946 16.5269 15.0406C16.563 15.0546 16.6019 15.0573 16.6546 15.0657Z" fill="white"/>
<path d="M26.1572 21.2069C26.16 21.232 26.16 21.2542 26.16 21.2737C26.1544 22.83 26.1489 24.3891 26.1433 25.9454C26.1433 26.1347 26.1405 26.324 26.1183 26.5105C26.0656 26.9504 25.8628 27.3096 25.5268 27.5963C25.3436 27.7522 25.1325 27.858 24.8992 27.9248C24.7437 27.9694 24.5827 27.9749 24.4244 27.9777C23.9884 27.9861 23.5497 27.9944 23.1137 27.9944C21.9001 27.9972 20.6866 27.9944 19.4703 27.9944C19.4425 27.9944 19.4176 27.9944 19.3926 27.9944C19.3759 27.9415 19.3731 21.2821 19.387 21.2069C19.4342 21.1986 26.06 21.193 26.1572 21.2069Z" fill="white"/>
<path d="M17.6156 21.2069C17.6156 23.4703 17.6156 25.731 17.6156 27.9944C17.5934 27.9972 17.5767 28 17.5601 28C16.1272 28 14.697 28 13.2641 27.9944C12.9614 27.9944 12.6615 27.9749 12.3588 27.9638C12.0895 27.9527 11.8395 27.8747 11.6174 27.716C11.3786 27.5434 11.1786 27.3318 11.0426 27.0701C10.9343 26.8613 10.8704 26.6358 10.8648 26.3964C10.8537 25.5222 10.8398 24.648 10.8371 23.7738C10.8315 22.9469 10.8371 22.1229 10.8371 21.296C10.8371 21.2682 10.8371 21.2403 10.8371 21.2125C10.8954 21.1986 17.5295 21.193 17.6156 21.2069Z" fill="white"/>
<circle cx="26.5" cy="10.5" r="3.5" fill="#EE0000"/>
</svg>
