<svg width="18" height="18" viewBox="0 0 18 18" fill="none" xmlns="http://www.w3.org/2000/svg">
<g id="icon ball" clip-path="url(#clip0_1_21536)">
<path id="Vector" d="M17.9998 8.59571C17.9998 8.86593 17.9998 9.13431 17.9998 9.40453C17.9943 9.43946 17.9851 9.47622 17.9833 9.51115C17.9594 9.98909 17.8987 10.4615 17.7921 10.9266C17.213 13.4229 15.8342 15.3512 13.6556 16.6987C12.5213 17.4009 11.2804 17.8089 9.95121 17.9468C9.7692 17.9652 9.5872 17.9817 9.4052 17.9983C9.13495 17.9983 8.86654 17.9983 8.59629 17.9983C8.5632 17.9928 8.53011 17.9854 8.49701 17.9817C8.20471 17.9505 7.91056 17.9321 7.62192 17.888C6.2045 17.6711 4.91025 17.1435 3.74653 16.3053C0.828952 14.206 -0.55722 10.5865 0.207564 7.07181C1.04589 3.22622 4.31276 0.36409 8.24331 0.0332076C9.28937 -0.0550277 10.3226 0.0276929 11.3355 0.308943C13.6795 0.95784 15.4793 2.331 16.7387 4.40637C17.4152 5.52218 17.8105 6.74093 17.9465 8.04056C17.9667 8.22622 17.9833 8.41005 17.9998 8.59571ZM10.4623 14.4615C11.3447 14.4211 12.218 14.3236 13.0857 14.16C13.1206 14.1527 13.1629 14.1214 13.1795 14.0902C13.8082 12.9229 14.4351 11.752 15.0583 10.5828C15.0749 10.5516 15.0749 10.4983 15.0602 10.467C14.6226 9.57549 14.1042 8.73174 13.5435 7.91372C13.5251 7.88615 13.4736 7.86409 13.4405 7.86593C12.8964 7.91924 12.3503 7.97622 11.8062 8.03137C11.0579 8.10858 10.3097 8.18578 9.56146 8.26666C9.52653 8.27034 9.48241 8.29791 9.46586 8.32916C8.98604 9.23358 8.50805 10.1398 8.03373 11.0461C8.01719 11.0792 8.01719 11.1361 8.03557 11.1692C8.65328 12.2446 9.27651 13.32 9.89605 14.3953C9.92731 14.4486 9.9604 14.4652 10.0192 14.4634C10.1681 14.4578 10.3152 14.4615 10.4623 14.4615ZM10.9752 1.87512C10.9752 1.86777 10.9734 1.86041 10.9734 1.85306C10.4347 1.89902 9.89422 1.9413 9.35556 1.99093C9.11289 2.01299 8.87021 2.04791 8.62754 2.07549C8.57239 2.081 8.54297 2.10858 8.52643 2.16188C8.18081 3.20968 7.83334 4.25563 7.48404 5.30159C7.4675 5.34938 7.47117 5.38247 7.50978 5.42291C7.71936 5.63983 7.9271 5.85858 8.12933 6.08284C8.56136 6.56262 8.99523 7.04056 9.41071 7.53505C9.52469 7.67108 9.63132 7.6913 9.79126 7.67291C10.4752 7.59387 11.1591 7.52953 11.8448 7.45784C12.3651 7.40453 12.8853 7.35122 13.4056 7.29424C13.4332 7.29056 13.4718 7.26299 13.481 7.23725C13.7751 6.50563 14.0877 5.78137 14.3175 5.02585C14.3414 4.94681 14.3358 4.89534 14.2789 4.83284C13.4185 3.8696 12.5636 2.90269 11.7032 1.93946C11.6756 1.90821 11.6223 1.88063 11.5819 1.88063C11.3797 1.87144 11.1774 1.87512 10.9752 1.87512ZM8.2617 16.3439C8.27456 16.3328 8.30582 16.3163 8.3242 16.2906C8.69189 15.7942 9.05773 15.2979 9.42174 14.7979C9.43829 14.774 9.4291 14.717 9.41255 14.6876C8.81322 13.6472 8.21022 12.6067 7.61089 11.5663C7.57964 11.5112 7.54103 11.4909 7.4822 11.4817C6.43982 11.3365 5.40846 11.1398 4.39182 10.8696C4.32012 10.8512 4.2907 10.8678 4.25393 10.9266C3.77411 11.6821 3.29428 12.4395 2.80709 13.1913C2.74459 13.2869 2.74275 13.3567 2.79606 13.4542C3.21155 14.1987 3.66748 14.9137 4.21349 15.57C4.24474 15.6086 4.29989 15.638 4.34769 15.6472C5.19337 15.8016 6.0372 15.9505 6.88288 16.1012C7.33513 16.1803 7.78554 16.2593 8.2617 16.3439ZM1.88788 5.37144C1.90627 5.38799 1.92465 5.41372 1.94855 5.42843C2.57913 5.80343 3.21155 6.17659 3.84213 6.55159C3.88993 6.581 3.92118 6.57181 3.9653 6.54424C4.15098 6.42659 4.33666 6.30711 4.52786 6.19681C5.29632 5.75196 6.08684 5.3549 6.91229 5.02953C6.94722 5.01666 6.98767 4.98174 6.9987 4.94865C7.32778 3.96703 7.65318 2.98358 7.98226 2.00196C8.00064 1.94865 7.98409 1.92475 7.94181 1.89718C7.81312 1.81446 7.68627 1.72806 7.55758 1.64718C7.18438 1.41556 6.7928 1.22806 6.38283 1.07181C6.29458 1.03872 6.2284 1.03872 6.14567 1.06997C4.9654 1.49828 3.93037 2.15269 3.04241 3.04056C2.91005 3.17291 2.77584 3.31446 2.68208 3.47622C2.35668 4.02953 2.14342 4.63247 1.92281 5.23174C1.90811 5.27034 1.90259 5.31446 1.88788 5.37144ZM1.57167 5.86593C1.55329 5.88983 1.53674 5.90453 1.52571 5.92108C1.30694 6.26483 1.08817 6.60674 0.874912 6.95233C0.834467 7.0185 0.792183 7.09387 0.781152 7.16924C0.716808 7.56813 0.643271 7.96519 0.608341 8.36593C0.509066 9.52953 0.665332 10.6656 1.04589 11.7703C1.05875 11.8089 1.08082 11.8512 1.11023 11.877C1.39151 12.1178 1.67095 12.3586 1.95774 12.592C2.07724 12.6895 2.21512 12.763 2.34749 12.8512C2.37507 12.8108 2.39345 12.7832 2.41183 12.7556C2.89902 11.9928 3.38436 11.2299 3.87338 10.467C3.91383 10.4027 3.92669 10.3457 3.91199 10.2703C3.70241 9.23909 3.59762 8.19681 3.60313 7.14534C3.60313 7.08468 3.58107 7.05343 3.53143 7.02402C3.29795 6.88983 3.06815 6.75196 2.83651 6.61409C2.41551 6.36593 1.99819 6.11777 1.57167 5.86593ZM13.9682 15.8071C14.619 15.3347 15.1944 14.7722 15.6889 14.1288C16.1853 13.4817 16.5806 12.7777 16.8692 12.0148C17.156 11.2593 17.3325 10.4799 17.395 9.65453C17.3435 9.70233 17.3104 9.73541 17.2755 9.76299C17.2369 9.79424 17.1964 9.82181 17.156 9.84938C16.7093 10.1637 16.2294 10.4174 15.7367 10.6527C15.6871 10.6766 15.6374 10.7225 15.6099 10.7722C14.9756 11.9486 14.3469 13.127 13.7126 14.3016C13.6593 14.4009 13.652 14.4836 13.6814 14.592C13.7843 14.9928 13.8726 15.399 13.9682 15.8071ZM16.6504 5.51115C16.1927 4.45784 15.5327 3.55527 14.6925 2.78321C13.9571 2.10858 13.128 1.581 12.1941 1.19865C12.1831 1.32916 12.1702 1.44497 12.1628 1.56078C12.161 1.58284 12.1812 1.61041 12.1978 1.63063C13.0545 2.59755 13.9093 3.56446 14.7679 4.52953C14.7936 4.5571 14.8285 4.581 14.8635 4.59387C15.404 4.79424 15.9169 5.04975 16.4059 5.35674C16.4886 5.40637 16.5695 5.45968 16.6504 5.51115ZM9.31511 17.4174C8.975 17.2667 8.64593 17.1214 8.31685 16.9762C8.25618 16.9487 8.19551 16.9137 8.13117 16.9027C7.16967 16.7281 6.20634 16.5589 5.24301 16.388C5.11799 16.3659 4.99482 16.3457 4.86981 16.3237C4.86797 16.331 4.86613 16.3384 4.86613 16.3457C6.24862 17.1104 7.72855 17.4689 9.31511 17.4174Z" fill="#343434"/>
</g>
<defs>
<clipPath id="clip0_1_21536">
<rect width="18" height="18" fill="white"/>
</clipPath>
</defs>
</svg>
