<svg width="30" height="30" viewBox="0 0 30 30" fill="none" xmlns="http://www.w3.org/2000/svg">
<rect width="30" height="30" rx="3" fill="url(#paint0_linear_128_6243)"/>
<g clip-path="url(#clip0_128_6243)">
<path d="M15 6C16.375 6 17.625 6 19 6C20.25 6 21.375 6.375 22.25 7.25C23.125 8 23.625 8.875 23.875 10C24 10.375 24 10.625 24 11C24 13.75 24 16.375 24 19.125C24 20.25 23.625 21.25 23 22.125C22.5 22.875 21.75 23.375 21 23.75C20.625 23.875 20.125 24 19.625 24.125C19.375 24.125 19.125 24.125 19 24.125C16.375 24.125 13.625 24.125 11 24.125C10 24.125 9.125 23.875 8.25 23.25C7.25 22.625 6.625 21.625 6.25 20.5C6.125 19.875 6 19.5 6 19C6 16.375 6 13.625 6 11C6 9.875 6.375 8.875 7 8C7.625 7.125 8.5 6.5 9.5 6.25C10 6.125 10.5 6 11 6C12.25 6 13.625 6 15 6ZM10 15C10 17.75 12.25 20 14.875 20C17.625 20 20 17.75 20 15C20 12.25 17.75 10 15 10C12.25 10 10 12.25 10 15ZM20 9C20 9.5 20.5 10 21 10C21.5 10 22 9.5 22 9C22 8.5 21.5 8 21 8C20.375 8 20 8.5 20 9Z" fill="white"/>
<path d="M15 18.0001C13.375 18.0001 12 16.6251 12 15.0001C12 13.3751 13.375 12.0001 15.125 12.1251C16.75 12.1251 18.125 13.5001 18 15.2501C18 16.6251 16.625 18.0001 15 18.0001Z" fill="white"/>
</g>
<defs>
<linearGradient id="paint0_linear_128_6243" x1="32" y1="-9.5" x2="-4.74859" y2="7.30543" gradientUnits="userSpaceOnUse">
<stop stop-color="#4A63D4"/>
<stop offset="0.328125" stop-color="#BD328A"/>
<stop offset="0.645833" stop-color="#ED6140"/>
<stop offset="1" stop-color="#FECA66"/>
</linearGradient>
<clipPath id="clip0_128_6243">
<rect width="18" height="18" fill="white" transform="translate(6 6)"/>
</clipPath>
</defs>
</svg>
