<svg width="13" height="13" viewBox="0 0 13 13" fill="none" xmlns="http://www.w3.org/2000/svg">
<g id="inst" clip-path="url(#clip0_1_37840)">
<path id="Vector" d="M6.5 0C7.49306 0 8.39583 0 9.38889 0C10.2917 0 11.1042 0.270833 11.7361 0.902778C12.3681 1.44444 12.7292 2.07639 12.9097 2.88889C13 3.15972 13 3.34028 13 3.61111C13 5.59722 13 7.49306 13 9.47917C13 10.2917 12.7292 11.0139 12.2778 11.6458C11.9167 12.1875 11.375 12.5486 10.8333 12.8194C10.5625 12.9097 10.2014 13 9.84028 13.0903C9.65972 13.0903 9.47917 13.0903 9.38889 13.0903C7.49306 13.0903 5.50694 13.0903 3.61111 13.0903C2.88889 13.0903 2.25694 12.9097 1.625 12.4583C0.902778 12.0069 0.451389 11.2847 0.180556 10.4722C0.0902778 10.0208 0 9.75 0 9.38889C0 7.49306 0 5.50694 0 3.61111C0 2.79861 0.270833 2.07639 0.722222 1.44444C1.17361 0.8125 1.80556 0.361111 2.52778 0.180556C2.88889 0.0902778 3.25 0 3.61111 0C4.51389 0 5.50694 0 6.5 0ZM2.88889 6.5C2.88889 8.48611 4.51389 10.1111 6.40972 10.1111C8.39583 10.1111 10.1111 8.48611 10.1111 6.5C10.1111 4.51389 8.48611 2.88889 6.5 2.88889C4.51389 2.88889 2.88889 4.51389 2.88889 6.5ZM10.1111 2.16667C10.1111 2.52778 10.4722 2.88889 10.8333 2.88889C11.1944 2.88889 11.5556 2.52778 11.5556 2.16667C11.5556 1.80556 11.1944 1.44444 10.8333 1.44444C10.3819 1.44444 10.1111 1.80556 10.1111 2.16667Z" fill="white"/>
<path id="Vector_2" d="M6.49967 8.66673C5.32606 8.66673 4.33301 7.67368 4.33301 6.50007C4.33301 5.32646 5.32606 4.3334 6.58995 4.42368C7.76356 4.42368 8.75662 5.41673 8.66634 6.68062C8.66634 7.67368 7.67329 8.66673 6.49967 8.66673Z" fill="white"/>
</g>
<defs>
<clipPath id="clip0_1_37840">
<rect width="13" height="13" fill="white"/>
</clipPath>
</defs>
</svg>
