<svg width="85" height="28" viewBox="0 0 85 28" fill="none" xmlns="http://www.w3.org/2000/svg">
<g id="&#208;&#187;&#208;&#184;&#208;&#179;&#208;&#176; &#209;&#129;&#209;&#130;&#208;&#176;&#208;&#178;&#208;&#190;&#208;&#186; &#208;&#187;&#208;&#190;&#208;&#179;&#208;&#190;">
<g id="Vector">
<path d="M5.317 27.9727C3.52275 27.9727 1.78173 27.9727 0 27.9727C0 27.8408 0 27.7281 0 27.6123C0 18.5369 0 9.46477 0 0.392622C0 0 0 0 0.397679 0C28.4795 0 56.5581 0 84.6399 0C84.7526 0 84.8654 0 85 0C85 9.33282 85 18.6367 85 27.9631C83.2621 27.9631 81.5242 27.9631 79.7488 27.9631C79.7425 27.8118 79.73 27.6606 79.73 27.5061C79.73 20.2265 79.73 12.9469 79.73 5.66728C79.73 5.06547 79.755 5.16845 79.2352 5.16845C54.7513 5.16523 30.2675 5.16845 5.78357 5.16845C5.64266 5.16845 5.49862 5.16845 5.32326 5.16845C5.317 12.7763 5.317 20.3552 5.317 27.9727Z" fill="white"/>
<path d="M43.394 19.6472C42.8084 19.6472 42.226 19.6536 41.6405 19.6375C41.5872 19.6343 41.4964 19.4799 41.4933 19.393C41.4807 18.8008 41.487 18.2119 41.487 17.6197C41.487 17.2335 41.3649 17.1145 40.986 17.1145C40.6134 17.1145 40.2376 17.1112 39.865 17.1145C39.555 17.1177 39.436 17.2368 39.4172 17.5554C39.4141 17.6133 39.4141 17.6744 39.4141 17.7324C39.4141 20.3327 39.4141 22.933 39.4141 25.5333C39.4141 26.0611 39.4861 26.1351 39.9934 26.1351C40.3566 26.1351 40.723 26.1383 41.0862 26.1319C41.3618 26.1255 41.487 26 41.4901 25.7135C41.4964 25.1536 41.4995 24.5904 41.487 24.0304C41.4839 23.818 41.5371 23.7279 41.7563 23.7343C42.2354 23.7472 42.7145 23.7408 43.1936 23.7376C43.3533 23.7376 43.4441 23.773 43.441 23.966C43.4284 24.7642 43.4598 25.5623 43.4128 26.3572C43.3596 27.2776 42.5798 27.9856 41.6812 27.992C40.8263 27.9985 39.9746 27.9985 39.1197 27.992C38.1678 27.9856 37.4069 27.2358 37.4038 26.2574C37.3912 23.1937 37.3944 20.1299 37.4038 17.0694C37.4069 16.1265 38.2022 15.3251 39.1229 15.3123C39.9871 15.3026 40.8482 15.3026 41.7125 15.3123C42.5798 15.3219 43.3627 16.0331 43.4128 16.9182C43.4598 17.771 43.4316 18.6302 43.4347 19.4863C43.4316 19.5281 43.4128 19.5764 43.394 19.6472Z" fill="white"/>
<path d="M13.8217 15.3058C14.5889 19.5378 15.3498 23.7376 16.117 27.9631C15.4155 27.9631 14.7423 27.9631 14.044 27.9631C13.4929 24.4423 12.9449 20.928 12.3938 17.4138C12.3656 17.4105 12.3374 17.4073 12.3124 17.4041C12.2842 17.4781 12.2435 17.5489 12.2341 17.6229C11.921 19.7212 11.611 21.8195 11.301 23.9178C11.11 25.2083 10.9158 26.502 10.7154 27.7893C10.7029 27.8601 10.6121 27.9759 10.5526 27.9759C9.92319 27.9888 9.29066 27.9856 8.62056 27.9856C8.73641 27.3548 8.84288 26.7595 8.95248 26.1641C9.40026 23.7118 9.84804 21.2627 10.2958 18.8105C10.4931 17.7291 10.6841 16.6478 10.8908 15.5665C10.9096 15.47 11.0192 15.3155 11.088 15.3155C11.9899 15.2994 12.8886 15.3058 13.8217 15.3058Z" fill="white"/>
<path d="M20.8359 22.5886C20.7889 22.6884 20.7357 22.7882 20.6981 22.8912C20.0812 24.5003 19.4612 26.1062 18.8569 27.7185C18.7786 27.9309 18.6753 28.0017 18.4592 27.992C17.9989 27.9759 17.5386 27.9856 17.0438 27.9856C17.0376 27.8794 17.0282 27.7861 17.0282 27.6927C17.0282 24.5035 17.0313 21.311 17.0219 18.1218C17.0219 17.8579 17.0971 17.7774 17.3476 17.7935C17.7014 17.8128 18.0553 17.7935 18.4122 17.7999C19.0416 17.8096 18.9821 17.6905 18.9853 18.3728C18.9884 19.9497 18.9853 21.5234 18.9884 23.1003C18.9884 23.2194 19.0072 23.3385 19.0197 23.4576C19.0448 23.4608 19.0729 23.464 19.098 23.4704C19.1418 23.3707 19.1919 23.2709 19.2295 23.1679C19.8401 21.4848 20.4539 19.8017 21.0519 18.1121C21.1396 17.8643 21.2586 17.7806 21.5091 17.7935C21.8911 17.8128 22.2763 17.8064 22.6583 17.7967C22.8587 17.7903 22.9276 17.8675 22.9276 18.0735C22.9213 18.833 22.9245 19.5893 22.9245 20.3488C22.9245 22.7721 22.9213 25.1922 22.9307 27.6155C22.9307 27.9051 22.8744 28.0146 22.5675 27.9985C22.0446 27.9695 21.5185 27.992 20.9486 27.992C20.9486 26.1802 20.9486 24.3973 20.9486 22.6144C20.9079 22.6047 20.8703 22.5951 20.8359 22.5886Z" fill="white"/>
<path d="M61.5244 22.962C61.609 22.9974 61.6935 23.0328 61.7749 23.0682C62.4262 23.361 62.8333 23.8502 62.8646 24.5936C62.8897 25.1922 62.8928 25.794 62.8584 26.3926C62.8114 27.2036 62.0442 27.9663 61.2582 27.9792C59.9838 27.9985 58.7093 27.9856 57.4318 27.9824C57.3942 27.9824 57.3597 27.9695 57.3002 27.9566C57.294 27.8376 57.2846 27.7217 57.2846 27.6058C57.2846 24.4745 57.2846 21.3432 57.2846 18.2119C57.2846 17.7999 57.2846 17.7999 57.6979 17.7999C58.7344 17.7999 59.7677 17.7999 60.8042 17.7999C62.0536 17.8032 62.802 18.5723 62.802 19.8628C62.802 20.3166 62.8176 20.7704 62.7957 21.2209C62.7582 21.9643 62.4106 22.5018 61.7248 22.7882C61.6559 22.8171 61.5933 22.8493 61.5244 22.8815C61.5275 22.9105 61.5244 22.9362 61.5244 22.962ZM59.2542 22.1059C59.6801 22.1059 60.0715 22.1091 60.4629 22.1059C60.6915 22.1027 60.823 21.974 60.8261 21.739C60.8324 21.1694 60.8293 20.5966 60.8261 20.0269C60.8261 19.8178 60.7071 19.6762 60.5161 19.6665C60.0996 19.6472 59.68 19.6601 59.2511 19.6601C59.2542 20.4839 59.2542 21.2756 59.2542 22.1059ZM59.2542 26.1287C59.7239 26.1287 60.1811 26.1448 60.6382 26.1158C60.7384 26.1094 60.9075 25.9388 60.9138 25.8358C60.942 25.2855 60.9482 24.7352 60.9138 24.1849C60.9075 24.069 60.7165 23.8824 60.5975 23.8727C60.1529 23.8341 59.7051 23.8566 59.2542 23.8566C59.2542 24.6258 59.2542 25.3595 59.2542 26.1287Z" fill="white"/>
<path d="M69.6533 22.8976C69.6533 23.9693 69.6565 25.0441 69.6533 26.1158C69.6502 27.1843 68.8736 27.9856 67.8434 27.9856C67.1358 27.9856 66.4249 27.9888 65.7173 27.9856C64.8186 27.9824 64.0702 27.2711 63.9825 26.3507C63.97 26.2252 63.9637 26.0965 63.9637 25.9678C63.9637 23.9306 63.9888 21.8935 63.9543 19.8564C63.9355 18.6174 64.7873 17.7581 65.9615 17.7999C66.688 17.8257 67.4207 17.7839 68.1409 17.8579C68.9989 17.9415 69.6471 18.7364 69.6533 19.6247C69.6565 20.7124 69.6533 21.8066 69.6533 22.8976ZM65.9114 22.8879C65.9114 23.8116 65.9083 24.7384 65.9114 25.662C65.9114 26.0257 66.021 26.1319 66.378 26.1351C66.616 26.1383 66.8571 26.1351 67.095 26.1351C67.6336 26.1351 67.6994 26.0675 67.6994 25.5044C67.6994 24.0497 67.6994 22.5919 67.6994 21.1372C67.6994 20.8025 67.7056 20.4678 67.6963 20.1331C67.6837 19.7824 67.5553 19.6601 67.214 19.6569C66.9447 19.6536 66.6786 19.6536 66.4093 19.6569C66.0429 19.6601 65.9114 19.7952 65.9114 20.175C65.9114 21.0761 65.9114 21.9836 65.9114 22.8879Z" fill="white"/>
<path d="M77.1247 27.9856C76.4327 27.9856 75.7908 27.9952 75.152 27.9727C75.0705 27.9695 74.9641 27.8279 74.9234 27.7249C74.413 26.5277 73.9088 25.3273 73.4141 24.1237C73.3233 23.8985 73.2168 23.773 72.9444 23.8856C72.9444 25.2244 72.9444 26.5825 72.9444 27.9598C72.2931 27.9598 71.6668 27.9598 71.0061 27.9598C71.0061 27.8504 71.0061 27.7442 71.0061 27.6412C71.0061 24.481 71.0092 21.3175 70.9998 18.1572C70.9998 17.8772 71.0656 17.7742 71.3474 17.7903C71.7576 17.8128 72.1741 17.8193 72.5843 17.7903C72.8911 17.7678 72.9475 17.8868 72.9444 18.1765C72.9287 19.3672 72.9381 20.5612 72.9381 21.7519C72.9381 21.8581 72.9381 21.9643 72.9381 22.0641C73.1698 22.1703 73.245 22.0512 73.3139 21.8742C73.8118 20.6062 74.3222 19.3447 74.8169 18.0799C74.8952 17.8804 74.9954 17.7903 75.2146 17.7967C75.797 17.8128 76.3826 17.8032 77.0245 17.8032C76.9713 17.9544 76.9399 18.0606 76.8961 18.1636C76.2792 19.6569 75.6655 21.1501 75.0424 22.6401C74.9641 22.83 74.9703 22.9781 75.0518 23.1647C75.7031 24.6515 76.345 26.1448 76.9869 27.638C77.0276 27.7281 77.0652 27.8279 77.1247 27.9856Z" fill="white"/>
<path d="M29.9825 27.9727C29.3249 27.9727 28.6955 27.9727 28.0254 27.9727C28.1288 27.4482 28.2227 26.9429 28.326 26.4376C28.8959 23.6539 29.469 20.8701 30.0295 18.0831C30.0733 17.8643 30.1516 17.7871 30.3645 17.7903C31.1035 17.7999 31.8394 17.7967 32.5784 17.7903C32.7569 17.7903 32.8508 17.8353 32.8915 18.0381C33.546 21.3046 34.2098 24.5711 34.8705 27.8376C34.8768 27.8665 34.8768 27.8955 34.8799 27.9534C34.2411 27.9534 33.6086 27.9534 32.9322 27.9534C32.8727 27.6412 32.7944 27.3098 32.7506 26.9751C32.7255 26.7788 32.6473 26.7047 32.4563 26.7047C31.7861 26.7112 31.116 26.7112 30.4428 26.7047C30.2643 26.7047 30.1923 26.7755 30.1673 26.959C30.1234 27.2937 30.0483 27.6187 29.9825 27.9727ZM30.5367 24.9347C31.1568 24.9347 31.7454 24.9347 32.378 24.9347C32.0899 23.1583 31.8049 21.4043 31.52 19.6504C31.4793 19.6504 31.4417 19.6536 31.401 19.6536C31.116 21.4076 30.828 23.1615 30.5367 24.9347Z" fill="white"/>
<path d="M49.5095 27.9888C49.6504 27.2872 49.7788 26.6339 49.9103 25.9806C50.4395 23.3868 50.975 20.7929 51.4916 18.199C51.5542 17.8868 51.6607 17.7806 51.9738 17.7935C52.6627 17.8193 53.3548 17.8096 54.0437 17.7967C54.2597 17.7935 54.3474 17.8707 54.3881 18.0799C54.7889 20.0881 55.1991 22.0963 55.6031 24.1044C55.8442 25.2952 56.0822 26.4891 56.3233 27.6799C56.3389 27.7668 56.3514 27.8536 56.3702 27.9888C55.9193 27.9888 55.4935 27.9888 55.0676 27.9888C54.4257 27.9888 54.4257 27.9888 54.3004 27.3355C54.1814 26.7144 54.1814 26.7144 53.552 26.7144C53.026 26.7144 52.4968 26.7241 51.9707 26.7112C51.764 26.7047 51.6764 26.7884 51.6482 26.9847C51.6106 27.2454 51.5762 27.5093 51.5104 27.7668C51.4885 27.8536 51.382 27.9792 51.31 27.9824C50.7307 27.9952 50.1483 27.9888 49.5095 27.9888ZM53.8714 24.9347C53.5802 23.1454 53.2953 21.4011 53.0103 19.6569C52.9696 19.6601 52.9289 19.6633 52.8913 19.6633C52.6064 21.414 52.3183 23.1647 52.0302 24.9347C52.6659 24.9347 53.2483 24.9347 53.8714 24.9347Z" fill="white"/>
<path d="M47.9031 19.6504C47.9031 22.4374 47.9031 25.189 47.9031 27.9663C47.2455 27.9663 46.6193 27.9663 45.9679 27.9663C45.9617 27.8182 45.9492 27.6734 45.9492 27.5286C45.9492 25.0377 45.9492 22.5468 45.9492 20.0559C45.9492 19.6536 45.9492 19.6536 45.5609 19.6536C45.1006 19.6536 44.6434 19.6536 44.133 19.6536C44.133 19.2353 44.133 18.8362 44.133 18.4372C44.133 17.8032 44.133 17.8032 44.7561 17.8032C46.2999 17.8032 47.8436 17.8096 49.3874 17.7967C49.666 17.7935 49.76 17.8804 49.7412 18.1636C49.7193 18.5369 49.7162 18.9134 49.7412 19.2868C49.7631 19.6021 49.6441 19.6697 49.3623 19.6569C48.8864 19.6343 48.4104 19.6504 47.9031 19.6504Z" fill="white"/>
<path d="M26.2061 19.6536C26.2061 22.4406 26.2061 25.1922 26.2061 27.9663C25.5517 27.9663 24.9223 27.9663 24.2741 27.9663C24.2678 27.8343 24.2553 27.7088 24.2553 27.5833C24.2553 24.4616 24.2553 21.3432 24.2553 18.2215C24.2553 17.7999 24.2553 17.7999 24.6592 17.7999C25.8679 17.7999 27.0735 17.8064 28.2822 17.7935C28.5546 17.7903 28.6329 17.8836 28.6204 18.1507C28.6016 18.5627 28.6078 18.9778 28.6172 19.3897C28.6235 19.5957 28.5515 19.6601 28.3511 19.6569C27.6559 19.6472 26.9545 19.6536 26.2061 19.6536Z" fill="white"/>
</g>
</g>
</svg>
