<svg width="14" height="13" viewBox="0 0 14 13" fill="none" xmlns="http://www.w3.org/2000/svg">
<g id="heart icon">
<g id="Group">
<mask id="mask0_1_33515" style="mask-type:alpha" maskUnits="userSpaceOnUse" x="0" y="0" width="14" height="13">
<path id="Clip 2" fill-rule="evenodd" clip-rule="evenodd" d="M0 0H14V13H0V0Z" fill="white"/>
</mask>
<g mask="url(#mask0_1_33515)">
<path id="Fill 1" fill-rule="evenodd" clip-rule="evenodd" d="M1.24709 6.0824C2.20584 8.99025 5.99365 11.3415 7.00027 11.9234C8.01031 11.3355 11.8255 8.95825 12.7534 6.08507C13.3628 4.22783 12.7972 1.87528 10.5501 1.16932C9.46142 0.828671 8.19153 1.03599 7.31484 1.69729C7.13157 1.83462 6.87718 1.83729 6.69254 1.70129C5.76388 1.02066 4.55074 0.821338 3.44497 1.16932C1.20128 1.87462 0.637788 4.22716 1.24709 6.0824ZM7.00116 13.0001C6.91637 13.0001 6.83225 12.9801 6.75566 12.9394C6.54162 12.8254 1.49964 10.1162 0.270772 6.38708C0.270089 6.38708 0.270089 6.38642 0.270089 6.38642C-0.501287 4.03854 0.357621 1.08802 3.13061 0.216734C4.43264 -0.193911 5.85162 -0.013254 6.99911 0.69271C8.11104 0.00741167 9.58814 -0.181912 10.8642 0.216734C13.6399 1.08936 14.5016 4.03921 13.7309 6.38642C12.5417 10.0729 7.46276 12.8228 7.24735 12.9381C7.17075 12.9794 7.08596 13.0001 7.00116 13.0001Z" fill="#787878"/>
<path id="Fill 4" fill-rule="evenodd" clip-rule="evenodd" d="M11.046 5.08199C10.7814 5.08199 10.5571 4.884 10.5352 4.62268C10.4901 4.07471 10.114 3.61207 9.57852 3.44341C9.3084 3.35808 9.16069 3.07609 9.24754 2.81411C9.33575 2.55145 9.62228 2.4088 9.89309 2.49146C10.8252 2.78544 11.4782 3.59007 11.5582 4.54135C11.5808 4.81667 11.3709 5.05799 11.0884 5.07999C11.0741 5.08133 11.0604 5.08199 11.046 5.08199Z" fill="#787878"/>
</g>
</g>
</g>
</svg>
