<svg width="40" height="35" viewBox="0 0 40 35" fill="none" xmlns="http://www.w3.org/2000/svg">
<rect width="40" height="35" rx="3" fill="url(#paint0_linear_141_8028)"/>
<g clip-path="url(#clip0_141_8028)">
<path d="M23.4066 17.9565C23.4954 17.7872 23.5842 17.6131 23.673 17.4365C24.7664 15.2781 25.9534 12.5898 25.9931 11.0201C26.0398 9.16824 25.7851 8.23864 25.5305 7.65979C25.4206 7.40961 25.3132 7.22565 25.2291 7.05886C25.1987 6.99999 25.173 6.94358 25.152 6.88962C25.0982 6.75227 25.0188 6.59038 24.9277 6.42114C24.9277 6.42114 24.9277 6.42114 24.9253 6.41869C24.8646 6.30341 24.7968 6.18322 24.7291 6.06794C24.7291 6.06794 24.7267 6.06304 24.722 6.05813C24.673 5.97229 24.6239 5.88889 24.5749 5.8104C24.3856 5.49155 24.2221 5.23401 24.1987 5.17759C24.1473 5.06231 23.937 4.91024 23.5235 4.91024C23.458 4.91024 23.3576 4.89062 23.2337 4.86119H23.2314C22.5538 4.68949 21.1706 4.13762 21.0749 4.08121C20.9604 4.01253 20.2898 3.99781 20.1192 4.00763C19.9487 4.01744 18.0608 4.39761 17.8015 4.40743C17.5421 4.41724 17.0702 4.51289 16.7361 4.99609C16.3996 5.47928 16.5001 5.43268 16.2548 5.51607C16.0118 5.59701 14.2174 6.77925 14.0071 10.3725C13.7968 13.9658 17.7618 19.7078 18.0935 20.6226C18.0935 20.6226 16.3973 24.5618 16.2618 26.8968C16.2431 27.2279 16.2477 27.5296 16.2711 27.8043C16.2805 27.9171 16.2945 28.0251 16.3108 28.1305C16.5328 29.5507 17.3132 30.1418 17.8529 30.3969C17.9767 30.4558 18.0842 30.5048 18.1777 30.544C18.3108 30.6005 18.4206 30.6397 18.5328 30.6593C18.7664 30.7059 18.9978 30.6765 19.437 30.5882C19.437 30.5882 19.673 30.7378 20.0772 30.8556C20.1426 30.8752 20.2127 30.8923 20.2875 30.9095C20.3435 30.9218 20.402 30.934 20.4627 30.9439C20.5749 30.9635 20.6963 30.9806 20.8225 30.988C20.8576 30.9905 20.8903 30.9929 20.9253 30.9929C20.958 30.9954 20.9907 30.9954 21.0235 30.9954C21.0959 30.9954 21.1706 30.9954 21.2478 30.9929C21.5094 30.9806 21.7921 30.9414 22.0889 30.8556C22.2968 30.7967 22.5118 30.7182 22.7337 30.6127C22.7641 30.598 22.7921 30.5833 22.8225 30.5686C22.8225 30.5686 22.9767 30.5416 23.1893 30.4141C23.4907 30.2301 23.909 29.8426 24.1543 29.0356C24.1917 28.913 24.2244 28.7781 24.2548 28.6334C24.437 27.7136 24.3809 26.8919 24.2407 26.2051C24.2361 26.1781 24.2291 26.1512 24.2244 26.1266C24.1403 25.7415 24.0305 25.4031 23.923 25.1161C23.8949 25.0425 23.8692 24.9738 23.8412 24.9076C23.8155 24.8414 23.7875 24.7776 23.7641 24.7187C23.5094 24.1154 22.6076 22.2733 22.1239 21.3241C22.0538 21.1868 21.9931 21.0666 21.9417 20.9734C21.93 20.9513 21.9183 20.9292 21.909 20.9096C21.8809 20.8556 21.8576 20.8115 21.8389 20.7845C21.8389 20.7845 21.909 20.6668 22.0305 20.4558C22.3038 19.9947 22.8249 19.0725 23.4066 17.9565ZM17.6403 8.18468C17.666 8.11845 17.694 8.05223 17.7244 7.98846C17.7361 7.97865 18.0795 7.69903 18.7898 7.63771C19.1146 7.61073 19.5141 7.62545 19.9931 7.73582C20.4463 7.85356 21.8272 8.40297 21.8856 10.6865C21.8552 11.4763 21.673 12.4525 21.3015 13.6543C20.9791 14.6968 20.5164 15.9035 19.8809 17.304C19.8739 17.2967 19.7758 17.1618 19.6192 16.9288C19.5024 16.7546 19.3529 16.5216 19.1847 16.2445C18.5935 15.2584 17.7828 13.6862 17.4253 11.9816C17.166 10.7282 17.1473 9.40125 17.6403 8.18468Z" fill="#EFECE8"/>
<path d="M19.7734 27.8309C19.6496 28.5766 19.3996 29.1432 19.1333 29.5601C18.68 30.2665 18.18 30.5437 18.18 30.5437C18.0865 30.5044 17.979 30.4554 17.8552 30.3965C17.3155 30.1414 16.5351 29.5503 16.3132 28.1302C16.2968 28.0272 16.2828 27.9168 16.2734 27.804C16.729 29.3075 17.7921 29.6607 18.4557 29.4301C18.8155 29.305 18.9814 29.1162 19.0561 28.9494C19.1473 28.7458 19.1005 28.5717 19.1005 28.5717L19.2804 27.8849L19.7734 27.8309Z" fill="#EBE7E3"/>
<path d="M17.5215 29.0108C17.1009 28.7214 16.7995 28.1474 16.8182 27.2914C16.879 24.5321 18.3252 21.1375 18.3252 21.1375C18.3252 21.1375 18.3416 21.1644 18.3696 21.2159C18.4561 21.3729 18.6593 21.7605 18.8906 22.3221C18.9981 22.5846 19.1126 22.8838 19.2224 23.2149C19.5402 24.1642 19.8322 25.3758 19.8883 26.7175C19.9818 28.8931 18.4561 29.6534 17.5215 29.0108Z" fill="#9A9794"/>
<path d="M17.6663 23.4529C17.442 24.5591 16.8603 27.7427 17.5215 29.0108C17.1009 28.7214 16.7995 28.1474 16.8182 27.2914C16.879 24.5321 18.3252 21.1375 18.3252 21.1375C18.3252 21.1375 18.3416 21.1644 18.3696 21.2159C18.2528 21.4857 17.8743 22.4227 17.6663 23.4529Z" fill="#ACA9A6"/>
<path d="M18.5869 27.7304C18.5261 27.7426 18.2902 27.6249 18.0869 26.1508C17.9257 24.9784 18.6056 23.0603 18.8906 22.322C18.9981 22.5845 19.1126 22.8837 19.2224 23.2148C17.7691 26.0919 18.6406 27.7181 18.5869 27.7304Z" fill="#8F8C8A"/>
<path d="M19.1336 29.5601C18.6803 30.2665 18.1803 30.5436 18.1803 30.5436C18.0868 30.5044 17.9794 30.4553 17.8555 30.3965C17.3158 30.1414 16.5354 29.5503 16.3135 28.1301C16.5518 28.7188 16.8836 29.3173 17.3158 29.6165C18.3088 30.2984 19.1149 29.5748 19.1336 29.5601Z" fill="#CCC9C6"/>
<path d="M16.2319 6.22705C16.2319 6.22705 15.344 8.97169 15.587 11.3877C15.83 13.8036 16.4305 14.9098 16.6525 16.5286C16.6525 16.5286 16.2553 14.1519 16.0987 13.5853C15.9422 13.0187 15.4959 10.4458 15.7202 9.43526C15.9468 8.42718 15.8627 8.05436 15.8627 8.05436C15.8627 8.05436 16.031 6.84515 16.2319 6.22705Z" fill="#CCC9C6"/>
<path d="M17.8737 20.0851C17.8737 20.0851 18.4344 19.0181 18.133 17.1884C17.8316 15.3586 17.9321 14.6448 17.9321 14.6448L17.5839 13.0996L17.5068 13.1609C17.5068 13.1609 18.0232 17.0314 18.0512 17.5563C18.0839 18.0836 18.2732 18.5349 17.8737 20.0851Z" fill="#E0DCD9"/>
<path d="M24.2572 28.6379C24.2291 28.7826 24.1941 28.9151 24.1567 29.0402C23.9114 29.8471 23.4932 30.2371 23.1918 30.4186C22.9791 30.5462 22.8249 30.5732 22.8249 30.5732C22.8249 30.5732 22.8857 30.4603 22.9721 30.2813C23.0142 30.1954 23.0609 30.0949 23.11 29.9845C23.3156 29.5209 23.5586 28.8832 23.5586 28.4417C23.5586 28.0493 23.5492 27.3895 23.5189 26.7714C23.5165 26.7027 23.5118 26.6365 23.5072 26.5703C23.4978 26.4157 23.4885 26.2637 23.4745 26.1238C23.4464 25.8099 23.4114 25.545 23.367 25.388C23.2128 24.8558 22.5726 23.6196 22.5726 23.6196C22.5726 23.6196 22.3576 23.3792 22.0609 23.0456C21.9044 22.8715 21.7268 22.6704 21.5446 22.4643C21.5422 22.4619 21.5399 22.4594 21.5399 22.457C21.5118 22.4251 21.4838 22.3932 21.4534 22.3589C21.1824 22.0523 20.909 21.7383 20.6918 21.4881C20.5819 21.3606 20.4861 21.2478 20.4137 21.1619C20.3436 21.0785 20.2969 21.0172 20.2759 20.9853C20.2315 20.9191 20.131 20.7425 19.9978 20.5095C19.6123 19.8301 18.9721 18.6773 18.7946 18.4271C18.6871 18.275 18.2735 16.9628 17.9324 15.4666C17.7805 14.8068 17.6427 14.1127 17.5492 13.4651C17.5469 13.448 17.5446 13.4308 17.5422 13.4161C17.5329 13.3572 17.5259 13.2984 17.5189 13.2419C17.5165 13.2321 17.5165 13.2223 17.5142 13.215C17.5142 13.2076 17.5118 13.2002 17.5118 13.1953C17.5118 13.1904 17.5095 13.188 17.5095 13.1831C17.5095 13.1806 17.5095 13.1757 17.5072 13.1733C17.5072 13.1708 17.5072 13.1708 17.5072 13.1684C17.5072 13.1659 17.5072 13.1635 17.5072 13.1635V13.161C17.5072 13.1585 17.5072 13.1585 17.5072 13.1585C17.4581 12.7563 17.4277 12.3786 17.4277 12.0499C17.4277 12.0254 17.4277 12.0008 17.4277 11.9763C17.7852 13.681 18.5936 15.2508 19.1871 16.2392C19.353 16.5164 19.5025 16.7494 19.6217 16.9235C19.7782 17.1566 19.8763 17.289 19.8833 17.2988C20.5165 15.8983 20.9815 14.6891 21.3039 13.6491L21.9534 14.6866L22.2058 15.0889L22.6006 15.7217L23.2805 16.8083L23.4768 17.1198L23.6707 17.4288C23.5819 17.6054 23.4908 17.7796 23.4044 17.9488C22.8249 19.0648 22.3016 19.987 22.0305 20.4531C21.909 20.664 21.8389 20.7817 21.8389 20.7817C21.8553 20.8087 21.8787 20.8529 21.909 20.9068C21.9184 20.9264 21.9301 20.9485 21.9418 20.9706C21.9908 21.0638 22.0539 21.184 22.124 21.3213C22.6076 22.2706 23.5095 24.1126 23.7642 24.716C23.7899 24.7748 23.8156 24.8386 23.8413 24.9048C23.8763 24.9588 23.9254 25.1133 23.9254 25.1133H23.9231C24.0305 25.4003 24.1404 25.7388 24.2245 26.1238C24.2291 26.1508 24.2361 26.1754 24.2408 26.2023C24.3833 26.8965 24.4394 27.7181 24.2572 28.6379Z" fill="#FFFBF7"/>
<path d="M19.0263 5.70459C19.0263 5.70459 16.9726 6.52872 16.5053 9.57014C16.038 12.6116 18.26 15.6236 17.2553 18.8244C17.2553 18.8244 17.9001 17.3429 16.6548 13.6515C15.4048 9.96258 16.5543 6.68324 19.0263 5.70459Z" fill="#CCC9C6"/>
<path d="M21.8886 10.6836C21.8302 8.40006 20.447 7.8531 19.9961 7.73291C20.1012 7.75744 20.2087 7.78442 20.3232 7.81876C21.2881 8.10082 21.9587 8.92495 21.8886 10.6836Z" fill="black"/>
<path d="M25.9929 11.0198C25.9532 12.5896 24.7663 15.2753 23.6728 17.4362C23.584 17.6128 23.4929 17.787 23.4065 17.9562C22.827 19.0722 22.3037 19.9945 22.0326 20.4605C21.9111 20.6714 21.841 20.7892 21.841 20.7892L21.5116 20.2029L21.4111 20.0239L21.2359 19.7099L21.021 19.3249L20.5653 18.5154L19.8831 17.3013C20.5163 15.9008 20.9812 14.6916 21.3037 13.6516C21.6752 12.4498 21.8574 11.4736 21.8878 10.6838C21.8294 8.40026 20.4462 7.85329 19.9953 7.7331C19.5163 7.62518 19.1144 7.60801 18.792 7.63499C18.0817 7.69631 17.7382 7.97593 17.7266 7.98574C18.5093 6.73238 19.1378 6.18051 19.7172 6.00391C19.9555 5.93278 20.1868 5.92542 20.4182 5.95731C20.7569 6.00636 21.0957 6.14617 21.4579 6.3056C21.9812 6.53616 22.3574 6.52635 22.6284 6.43314C22.7406 6.3939 22.8364 6.33994 22.9158 6.28352C23.0864 6.16088 23.1868 6.01862 23.2453 5.96712C23.2593 5.95485 23.2756 5.94014 23.2943 5.92542C23.4625 5.79052 23.7663 5.60656 24.1798 5.77825C24.6168 5.95976 24.8971 6.37673 24.9228 6.41597C24.9228 6.41842 24.9252 6.41842 24.9252 6.41842C25.0139 6.58767 25.0934 6.74955 25.1495 6.8869C25.1728 6.94332 25.1985 6.99728 25.2266 7.05614C25.3107 7.22293 25.4182 7.40689 25.528 7.65707C25.785 8.23837 26.042 9.16797 25.9929 11.0198Z" fill="#CCC9C6"/>
<path d="M25.5331 7.65951L25.4349 8.37817H25.2387C25.2387 8.37817 25.2387 8.37817 25.2387 8.37572C25.3859 6.83784 24.769 6.39389 24.3391 5.98918C23.9162 5.59183 23.3251 5.9156 23.3018 5.92786C23.47 5.79296 23.7737 5.609 24.1873 5.7807C24.6242 5.9622 24.9046 6.37917 24.9303 6.41841C24.9303 6.42087 24.9326 6.42087 24.9326 6.42087C25.0214 6.59011 25.1008 6.75199 25.1569 6.88934C25.1803 6.94576 25.206 6.99972 25.234 7.05858C25.3158 7.22292 25.4233 7.40933 25.5331 7.65951Z" fill="#BBB8B5"/>
<path d="M24.9532 11.4613C24.834 12.3664 23.9812 14.0269 23.7382 14.6769C23.4976 15.322 23.4649 16.4331 23.4649 16.4551L23.5139 16.7274L23.4789 17.1247L23.4065 17.9538C22.827 19.0698 22.3037 19.992 22.0326 20.458C21.9111 20.669 21.841 20.7867 21.841 20.7867L21.5116 20.2005L21.4111 20.0215L21.2359 19.7075L21.021 19.3224L20.5653 18.513L19.8831 17.2989C20.5163 15.8984 20.9812 14.6891 21.3037 13.6492C21.6752 12.4473 21.8574 11.4711 21.8878 10.6813C21.8294 8.39781 20.4462 7.85085 19.9953 7.73066C19.5163 7.62274 19.1144 7.60557 18.792 7.63255C18.0817 7.69387 17.7382 7.97349 17.7266 7.9833C18.5093 6.72993 19.1378 6.17806 19.7172 6.00146C19.9065 6.30315 20.1845 6.62201 20.584 6.9188C20.6425 6.96295 20.7055 7.00464 20.7686 7.04634C21.0934 7.26218 21.4906 7.46086 21.9766 7.62765C22.0653 7.65953 22.1565 7.68896 22.2523 7.71595C22.3457 7.74293 22.4345 7.77236 22.521 7.80179C25.3037 8.75346 25.07 10.5832 24.9532 11.4613Z" fill="#BBB8B5"/>
<path d="M25.9929 11.0198C25.9532 12.5896 24.7663 15.2754 23.6728 17.4362C23.584 17.6128 23.4929 17.787 23.4065 17.9562C22.827 19.0722 22.3037 19.9945 22.0326 20.4605C21.9111 20.6714 21.841 20.7892 21.841 20.7892L21.5116 20.203L21.4111 20.0239C21.4205 20.0092 21.82 19.4181 22.3597 18.4934C22.5817 18.1132 22.8294 17.6742 23.0817 17.1959C23.1471 17.0708 23.2149 16.9432 23.2803 16.8132C23.341 16.6955 23.3995 16.5778 23.4602 16.4551C24.6892 13.9828 25.8714 10.7843 25.0677 8.73875C25.0677 8.73875 25.1588 8.6063 25.2336 8.37574C25.2336 8.37574 25.2336 8.37574 25.2336 8.37329C25.3317 8.07405 25.4065 7.60802 25.2266 7.05615C25.3107 7.22294 25.4181 7.4069 25.528 7.65708C25.785 8.23838 26.042 9.16798 25.9929 11.0198Z" fill="#EFECE8"/>
<path d="M22.3627 18.4932L22.4515 18.6208L22.2832 19.3909C22.2435 19.5038 22.2108 19.6068 22.1804 19.7L21.5145 20.2003L21.4141 20.0213L21.2388 19.7073L21.0239 19.3223L20.5683 18.5128L19.886 17.2987C20.5192 15.8982 20.9842 14.689 21.3066 13.649C21.6781 12.4472 21.8603 11.471 21.8907 10.6812C21.8323 8.39765 20.4491 7.85069 19.9982 7.7305C19.5192 7.62258 19.1174 7.60541 18.7949 7.63239C19.0122 7.58334 19.2786 7.54409 19.5706 7.549C20.3744 7.55881 21.358 7.89974 21.9445 9.26348C21.9725 9.3297 22.0005 9.39593 22.0262 9.45725C23.0169 11.8364 22.4725 11.9885 22.0332 14.2303C22.0029 14.3848 21.9795 14.5369 21.9585 14.6865C21.9094 15.0692 21.8907 15.4371 21.8931 15.7854C21.8977 16.3103 21.9538 16.7886 22.0239 17.1908C22.1033 17.6446 22.2038 18.0027 22.2739 18.2259C22.323 18.3951 22.3603 18.4883 22.3627 18.4932Z" fill="#9A9794"/>
<path d="M23.306 13.2568C23.0653 14.5592 22.5186 16.0284 22.021 17.1934C21.4929 18.4272 21.021 19.3249 21.021 19.3249L20.5653 18.5155C20.8481 17.9342 21.4719 16.6538 21.8901 15.788C21.8925 15.7856 21.8925 15.7831 21.8948 15.7807C22.4509 14.6303 23.9672 11.1621 22.827 8.73877C22.5981 8.25558 22.3037 7.89748 21.9812 7.63503C21.6004 7.32843 21.1798 7.14938 20.7733 7.05373C20.1565 6.90656 19.5747 6.9458 19.2266 6.99486C19.7359 6.90901 20.1868 6.88939 20.5887 6.92373C21.4532 6.99731 22.0817 7.32353 22.528 7.80918C23.7289 9.11405 23.6191 11.5619 23.306 13.2568Z" fill="#A5A2A0"/>
<path d="M23.2246 17.0757C23.1102 17.1885 23.0097 17.603 22.5003 18.8245C22.4116 19.0379 22.3391 19.2243 22.2807 19.3911C22.241 19.5039 22.2083 19.6069 22.1779 19.7001C22.0097 20.252 22.0331 20.458 22.0331 20.458C21.9116 20.669 21.8415 20.7867 21.8415 20.7867L21.512 20.2005L21.4116 20.0215L21.2363 19.7075L22.2714 18.2285L22.8111 17.4559C22.8695 17.3847 22.9887 17.2744 23.0845 17.1934C23.1569 17.1321 23.2176 17.0806 23.2246 17.0757Z" fill="#DAD7D3"/>
<path d="M24.2314 15.4863C24.2314 15.4863 26.7221 11.297 25.4534 8.5376C25.4534 8.54005 26.2151 10.8898 24.2314 15.4863Z" fill="#FFFBF7"/>
<path d="M18.8906 7.05839C18.9046 7.05594 19.0261 7.02405 19.2224 6.99707C19.1149 7.01424 19.0051 7.03386 18.8906 7.05839Z" fill="#A5A2A0"/>
<path d="M22.8462 6.45751L22.6313 6.43789C22.6313 6.43789 22.0892 6.47714 21.6242 6.23186C21.1593 5.98413 20.0915 5.00548 18.7411 6.39129C17.3883 7.77955 16.1943 7.2007 16.1943 7.2007L16.2551 7.05599C16.2551 7.05599 16.3672 5.66527 16.5939 5.41264C16.7971 5.34151 18.3369 4.74794 18.5308 4.66455L19.2527 4.50757L19.7784 4.6253L20.671 5.10359L21.421 5.57943L22.1009 5.94734L22.4724 6.07979C22.4724 6.07979 22.8205 6.18771 23.2504 5.97187L22.8462 6.45751Z" fill="#FEFAF6"/>
<path d="M24.7242 6.05527C24.7031 6.02093 24.6354 5.91546 24.5209 5.78301C24.2545 5.47887 23.7429 5.04473 23.0139 5.12076C22.1541 5.21152 21.5139 5.39302 20.9672 5.22623C20.8106 5.17963 20.6634 5.10359 20.5209 4.98831C20.4905 4.96379 20.4648 4.94171 20.4391 4.92209C20.4041 4.89266 20.3737 4.86568 20.348 4.84115C19.9975 4.50512 20.4601 4.61549 20.4601 4.61549L21.2522 4.76757L21.8129 4.87549L22.0886 4.83134C22.0886 4.83134 22.7475 4.85341 23.2335 4.85341H23.2358C23.3597 4.8853 23.4601 4.90247 23.5256 4.90247C23.9415 4.90247 24.1517 5.05454 24.2008 5.16982C24.2242 5.22378 24.3877 5.48377 24.577 5.80263C24.626 5.88603 24.6751 5.96942 24.7242 6.05527Z" fill="#EBE7E3"/>
<path d="M22.0893 4.83391C22.0893 4.83391 21.5963 5.089 21.2739 5.06937C20.9515 5.04975 20.4468 4.88787 20.4328 4.92711L19.3253 4.50524L19.1758 4.47335C19.1758 4.47335 19.9655 4.18883 20.573 4.33109C21.1805 4.47581 21.2412 4.7824 22.0893 4.83391Z" fill="#BBB8B5"/>
<path d="M16.3369 6.4944C16.3369 6.4944 18.3182 4.06617 19.7762 4.72105C21.2341 5.37594 22.2878 6.56553 23.2505 5.96951C23.2505 5.96951 22.8182 6.31535 21.879 5.79536C20.9397 5.27538 20.1944 4.57634 19.2949 4.44389C18.3977 4.31144 16.9234 5.54763 16.3369 6.4944Z" fill="#CCC9C6"/>
<path d="M24.4324 7.27913V7.43366L23.4627 6.99952L22.916 6.28822C23.0866 6.16558 23.187 6.02332 23.2455 5.97181C23.2595 5.95955 23.2758 5.94483 23.2945 5.93011C24.388 5.47635 24.4324 7.25215 24.4324 7.27913Z" fill="#DEDBD7"/>
<path d="M25.0147 8.53991C24.3652 7.28901 22.0404 6.99958 21.3185 6.68317C20.7928 6.45261 20.5264 6.12394 20.4189 5.96206C20.7577 6.01112 21.0965 6.15092 21.4587 6.31035C21.982 6.54091 22.3582 6.5311 22.6292 6.4379C22.7414 6.39865 22.8372 6.34469 22.9166 6.28828C23.0872 6.16564 23.1876 6.02338 23.246 5.97187C23.2601 5.95961 23.2764 5.94489 23.2951 5.93018C23.8068 6.40601 24.1713 6.87449 24.4283 7.27919C24.9003 8.01257 25.0147 8.53991 25.0147 8.53991Z" fill="#BCBAB7"/>
<path d="M22.3575 28.3926C22.3575 28.3926 22.6402 27.539 22.444 26.0845C22.444 26.0845 22.0421 24.0536 20.9183 23.0235C19.7944 21.9933 20.6706 22.0767 20.7267 22.1184C20.7267 22.1184 20.4767 21.9982 20.2758 22.192C20.0748 22.3857 18.9136 20.583 18.1426 17.7451V18.2602L18.2197 18.1057C18.2197 18.1057 18.9113 20.4971 19.5842 21.5665C19.5842 21.5665 20.2898 22.9965 20.3739 23.2957C20.3739 23.2957 19.9463 22.0767 19.6379 21.591C19.6379 21.591 20.2968 22.528 20.6659 22.9278C21.0374 23.3276 22.8949 25.204 22.3575 28.3926Z" fill="#E1DEDA"/>
<path d="M23.1918 30.4187C22.9792 30.5462 22.825 30.5732 22.825 30.5732C22.7946 30.5879 22.7642 30.6026 22.7362 30.6173C22.5142 30.7228 22.2993 30.8013 22.0913 30.8601C21.7923 30.9435 21.5119 30.9852 21.2502 30.9975C21.1731 31 21.0983 31.0024 21.0259 31C20.9932 31 20.9605 30.9975 20.9278 30.9975C20.8927 30.9951 20.8577 30.9951 20.825 30.9926C20.6988 30.9828 20.5773 30.9681 20.4652 30.9484C20.4044 30.9386 20.346 30.9264 20.2899 30.9141C20.2152 30.8969 20.1451 30.8798 20.0796 30.8601C19.6754 30.7424 19.4395 30.5928 19.4395 30.5928C19.4395 30.5928 19.4535 30.5879 19.4792 30.5781C19.5282 30.5585 19.617 30.5241 19.7315 30.4849C19.8016 30.4604 19.881 30.4309 19.9652 30.4039C20.1077 30.3573 20.2642 30.3083 20.4161 30.269C20.4909 30.2494 20.5633 30.2322 20.6334 30.2175C20.7899 30.1856 20.9324 30.1685 21.0329 30.1807C21.131 30.1905 21.2455 30.2322 21.3694 30.2813C21.5726 30.3598 21.8039 30.4628 22.0609 30.502C22.2338 30.529 22.4161 30.5266 22.6053 30.4702C22.6591 30.453 22.7152 30.4334 22.7712 30.4064C22.8366 30.3745 22.9044 30.3377 22.9722 30.2911L23.1848 30.3402L23.1918 30.4187Z" fill="#CCC9C6"/>
<path d="M24.157 29.04C23.9116 29.847 23.4934 30.237 23.192 30.4185C22.9794 30.546 22.8252 30.573 22.8252 30.573C22.8252 30.573 22.8859 30.4602 22.9724 30.2811C23.0144 30.1953 23.0612 30.0947 23.1102 29.9844C23.1102 29.9844 23.3953 30.4038 24.157 29.04Z" fill="#CCC9C6"/>
<path d="M22.3836 26.0845C22.3836 26.0845 22.0892 27.0264 21.4303 27.6665C21.4303 27.6665 21.4303 26.1041 20.9186 24.7698C20.9186 24.7698 20.5261 23.8721 20.4771 23.8108C20.428 23.7495 19.657 22.4789 19.5098 22.2827C19.5098 22.2827 19.6359 22.6678 19.6593 22.7046C19.685 22.7414 20.4257 23.9285 20.4443 23.9751C20.4654 24.0217 20.5752 24.5368 20.5752 24.5368L20.8252 24.8409C20.8252 24.8409 21.5074 26.4966 21.3813 28.1841C21.3813 28.1841 20.9607 29.4374 21.3462 29.5306C21.7317 29.6214 22.0121 29.6042 22.2714 28.9371L22.4093 28.8022L22.4397 28.6108L22.3579 28.4441L22.3556 28.3925C22.3556 28.3925 22.4093 28.1644 22.4116 28.1129C22.414 28.0639 22.4654 27.5929 22.4654 27.5929L22.4841 27.2299C22.4841 27.2324 22.47 26.2071 22.3836 26.0845Z" fill="#E1DEDA"/>
<path d="M18.2832 19.3125C18.2832 19.3125 18.4888 20.6051 18.5846 20.7621V20.4579C18.5846 20.4604 18.365 19.5136 18.2832 19.3125Z" fill="#CECBC8"/>
<path d="M20.358 27.171C20.358 27.171 20.2155 24.473 19.5846 23.07C18.9561 21.667 18.4047 20.3327 17.4491 18.8709C16.4912 17.4115 14.9608 13.7397 14.7295 12.4643C14.4982 11.1888 14.4281 8.66495 15.351 6.73218C15.351 6.73218 14.3697 9.81285 14.851 12.2656C15.3299 14.7184 18.108 19.6754 18.4538 20.2126C18.7996 20.7473 20.4257 23.433 20.358 27.171Z" fill="#E1DEDA"/>
<path d="M20.2551 20.8921C20.2551 20.8921 20.3345 20.7498 20.3743 20.7866C20.414 20.8234 20.3883 20.9117 20.4724 20.9926C20.5565 21.0736 20.4864 21.1913 20.4116 21.1373C20.4116 21.1373 20.428 21.1962 20.3976 21.2256C20.3673 21.2551 20.3112 21.2526 20.2458 21.1987C20.1803 21.1447 20.1032 21.0834 20.0799 21.0662C20.0565 21.0515 20.0986 20.946 20.157 20.9387C20.157 20.9387 19.9911 20.8111 19.9233 20.6419C19.8556 20.4726 19.893 20.453 19.9163 20.4579C19.9373 20.4653 20.1149 20.556 20.2551 20.8921Z" fill="#8C1539"/>
<path d="M21.0161 21.9369C21.0161 21.9369 20.7614 21.7161 20.6984 21.6008C20.6376 21.4856 20.5278 21.3531 20.4273 21.3507C20.3269 21.3482 20.3572 21.5125 20.5301 21.6156C20.703 21.7186 20.71 21.7455 20.71 21.7897C20.7077 21.8338 20.7918 21.9638 20.8596 21.9933C20.9273 22.0252 21.0628 22.1208 21.0815 22.1674C21.1002 22.2116 21.2241 22.3857 21.4227 22.3686C21.6213 22.3514 21.5909 22.0227 21.5465 21.9687C21.5021 21.9148 21.3666 21.7652 21.3549 21.7186C21.3432 21.672 21.2217 21.4561 21.154 21.412C21.0862 21.3678 21.0512 21.4046 21.0138 21.3433C20.9764 21.282 20.7942 21.049 20.689 21.0563C20.5839 21.0637 20.654 21.2158 20.7614 21.282C20.8689 21.3482 21.175 21.5273 21.2357 21.7137C21.2357 21.7137 20.9928 21.4684 20.8876 21.412C20.7825 21.3556 20.675 21.3335 20.6727 21.3948C20.6703 21.4586 20.6563 21.4954 21.0161 21.9369Z" fill="#8C1539"/>
<path d="M20.6009 21.7652C20.6009 21.7652 20.3088 21.5788 20.1803 21.6598C20.0518 21.7407 20.2247 21.8879 20.3345 21.8683C20.4443 21.8486 20.3579 21.7432 20.6126 21.7701L20.6009 21.7652Z" fill="#8C1539"/>
<path d="M21.0144 21.2159C21.0144 21.2159 20.7644 20.9706 20.8041 20.8185C20.8438 20.6665 21.0237 20.8014 21.0377 20.9191C21.0494 21.0368 20.9279 20.978 21.0237 21.2281L21.0144 21.2159Z" fill="#8C1539"/>
<path d="M21.5466 22.4521C21.5466 22.4521 21.4438 22.5674 21.1844 22.4006C20.9274 22.2338 20.5139 21.8193 20.3199 21.9566C20.3199 21.9566 20.4111 22.0498 20.4111 22.0621C20.4111 22.0621 20.2358 22.0744 20.2031 22.1823C20.2031 22.1823 20.3433 22.2927 20.3386 22.3098C20.3363 22.327 20.2031 22.457 20.3083 22.5134C20.3083 22.5134 20.3363 22.4619 20.4017 22.5134C20.4671 22.5649 20.5092 22.7023 20.6657 22.7023C20.8223 22.7023 20.9087 22.4791 20.6891 22.3147C20.612 22.2657 20.5349 22.2976 20.5536 22.3761C20.5536 22.3761 20.7335 22.381 20.7125 22.5404C20.6891 22.6998 20.5069 22.5379 20.4531 22.4472C20.3971 22.3564 20.4251 22.1013 20.6377 22.1578C20.8503 22.2142 21.0209 22.4472 21.0933 22.511C21.1657 22.5796 21.5139 22.7464 21.5466 22.4521Z" fill="#8C1539"/>
<path d="M21.659 22.322C21.659 22.322 21.7758 22.2239 21.6403 21.9394C21.5024 21.6573 21.1403 21.1938 21.2875 21C21.2875 21 21.3693 21.103 21.3809 21.103C21.3809 21.103 21.4066 20.9215 21.5095 20.8945C21.5095 20.8945 21.6029 21.0491 21.6193 21.0466C21.6356 21.0441 21.7688 20.9166 21.8155 21.0319C21.8155 21.0319 21.7641 21.0564 21.8085 21.13C21.8529 21.2036 21.9791 21.2575 21.9674 21.4219C21.9557 21.5862 21.7361 21.6573 21.5982 21.4145C21.5585 21.3287 21.5936 21.2502 21.6683 21.2772C21.6683 21.2772 21.659 21.466 21.8109 21.4562C21.9627 21.4464 21.8225 21.2428 21.7431 21.1766C21.6613 21.1128 21.4183 21.1202 21.4534 21.3458C21.4908 21.5715 21.6964 21.7702 21.7524 21.8511C21.8085 21.932 21.9394 22.3122 21.659 22.322Z" fill="#8C1539"/>
<path d="M22.5956 22.2952C22.5956 22.2952 22.3339 22.148 22.3713 22.4693C22.4087 22.7906 22.7848 22.7882 23.0278 23.2051C23.2708 23.6246 22.9764 23.9336 22.9764 23.9336C22.9764 23.9336 23.0278 23.6564 22.8456 23.421C22.6633 23.1855 22.0816 22.6778 22.0091 22.4644C21.9367 22.251 21.9647 22.0523 22.1096 22.0278C22.2545 22.0008 22.4741 22.0548 22.5956 22.2952Z" fill="#8C1539"/>
<path d="M21.4444 23.5508C21.4444 23.5508 21.2762 23.4674 21.2855 23.1289C21.2949 22.7904 21.615 22.6605 21.9467 23.1436C22.2762 23.6268 22.1594 24.0217 22.6383 24.2155C22.6383 24.2155 22.5659 24.3627 22.3229 24.3013C22.0799 24.24 21.9888 24.0095 21.886 23.59C21.7809 23.1706 21.372 23.1976 21.4444 23.5508Z" fill="#8C1539"/>
<path d="M21.8838 22.7046C21.8838 22.7046 22.1922 23.2883 22.2132 23.3644C22.2343 23.4404 22.4726 24.007 22.6712 23.9972C22.7132 23.9972 22.8768 24.1934 23.3768 25.5866C23.4072 25.6577 23.3931 25.7338 23.3838 25.7607C23.3744 25.7877 23.2763 26.0109 23.6712 26.32C23.6712 26.32 23.7015 25.9815 23.6712 25.8417C23.6408 25.7019 23.5123 25.697 23.4586 25.5007C23.4072 25.3021 22.9796 24.2793 22.8558 24.0929C22.7319 23.9064 22.8394 23.8574 22.8184 23.7789C22.7997 23.6955 22.6104 23.1902 21.8838 22.7046Z" fill="#8C1539"/>
<path d="M23.246 23.8108C23.246 23.8108 23.0848 24.1419 23.1899 24.4313C23.2974 24.7208 23.4282 24.9342 23.4165 25.02C23.4165 25.02 23.5684 24.9906 23.6292 24.7306C23.6922 24.4706 23.2763 23.9114 23.246 23.8108Z" fill="#8C1539"/>
<path d="M22.4443 24.4143C22.4443 24.4143 22.6359 24.8681 22.6873 25.0839C22.7387 25.2998 23.0401 25.312 23.1523 25.1894C23.1523 25.1894 23.0378 24.8901 23.0098 24.8166C22.9817 24.743 22.9373 24.4388 22.4443 24.4143Z" fill="#8C1539"/>
<path d="M23.9277 25.1206C23.8365 25.1157 23.5889 25.2163 23.5889 25.2163C23.6566 25.0323 23.8365 24.9023 23.8365 24.9023C23.8389 24.9048 23.8412 24.9072 23.8435 24.9122C23.8786 24.9661 23.9277 25.1206 23.9277 25.1206Z" fill="#8C1539"/>
<path d="M23.1542 25.4811C23.1542 25.4811 22.5 25.9716 22.3996 26.4426C22.3996 26.4426 22.3388 26.3297 22.3528 26.2733C22.3528 26.2733 22.1706 26.391 22.1309 26.3763C22.1309 26.3763 22.2383 26.1409 22.2453 26.1237C22.25 26.1065 22.1753 26.1065 22.1753 26.1065C22.1753 26.1065 22.479 25.432 23.1542 25.4811Z" fill="#8C1539"/>
<path d="M23.3581 25.6799C23.3581 25.6799 23.1408 25.756 22.9912 26.016C22.8441 26.276 22.8791 26.4158 22.9819 26.4918C22.9819 26.4918 23.1875 26.3397 23.1268 26.1533C23.1268 26.1533 23.3581 26.1509 23.3698 26.1435C23.3791 26.1337 23.2179 25.9031 23.3581 25.6799Z" fill="#8C1539"/>
<path d="M23.5889 25.5375C23.5889 25.5375 23.6169 25.4075 24.0258 25.4247C24.0258 25.4247 24.1216 25.7141 24.1309 25.8171C24.1309 25.8171 24.0515 25.7067 24.0164 25.7067C24.0164 25.7067 23.9347 25.8907 23.8248 25.8956C23.8248 25.8931 23.8412 25.6013 23.5889 25.5375Z" fill="#8C1539"/>
<path d="M23.4232 26.1899C23.4232 26.1899 23.4793 26.4254 23.4139 26.5554C23.3485 26.6879 23.227 26.7639 23.1055 26.6265C23.1055 26.6265 23.2059 26.5996 23.234 26.5186C23.262 26.4377 23.3601 26.1899 23.4232 26.1899Z" fill="#8C1539"/>
<path d="M23.5093 26.3027C23.5093 26.3027 23.542 26.6878 23.4346 26.7737C23.4346 26.7737 23.6425 26.8056 23.6776 26.6339C23.7149 26.4597 23.5234 26.3027 23.5093 26.3027Z" fill="#8C1539"/>
<path d="M23.7807 26.5383C23.7807 26.5383 23.7293 26.867 23.8228 26.8915C23.9162 26.9161 23.9793 26.7738 23.9232 26.7149C23.8672 26.6561 23.7901 26.5629 23.7807 26.5383Z" fill="#8C1539"/>
<path d="M24.1594 26.4673C24.1594 26.4673 24.0707 26.6047 24.0193 26.6145C23.9702 26.6243 23.7809 26.5826 23.8277 26.249C23.8277 26.249 24.0169 26.4428 24.066 26.4575C24.1127 26.4698 24.1594 26.4673 24.1594 26.4673Z" fill="#8C1539"/>
<path d="M24.2436 26.2095C24.2389 26.2169 24.2342 26.2267 24.2272 26.2365C24.1291 26.3959 23.9749 26.2831 23.9445 26.2193C23.9142 26.1556 23.8184 26.0182 23.8184 26.0182C23.8184 26.0182 23.8838 25.9176 24.0216 26.0427C24.0964 26.1114 24.1805 26.1163 24.2249 26.131C24.2319 26.158 24.2389 26.1825 24.2436 26.2095Z" fill="#8C1539"/>
<path d="M21.1592 23.6636C21.1592 23.6636 21.5283 24.0021 21.248 24.3994C21.248 24.3994 21.5237 24.3773 21.5143 24.0707C21.5026 23.7666 21.1592 23.6636 21.1592 23.6636Z" fill="#8C1539"/>
<path d="M20.8713 24.1738C20.8713 24.1738 20.8549 24.4828 21.0629 24.4264C21.2685 24.3675 21.3409 24.0266 21.0909 23.774C20.8409 23.5213 20.5909 23.7494 20.5746 23.8279C20.5746 23.8279 20.4157 23.6955 20.411 23.6587C20.411 23.6587 20.2404 23.7494 20.4437 24.1271C20.4437 24.1271 20.2428 24.1247 20.2288 24.0781C20.2288 24.0781 20.1119 24.2915 20.4764 24.549C20.4764 24.549 20.3362 24.63 20.3199 24.6349C20.3199 24.6349 20.4204 24.9218 20.7475 24.8973C21.0746 24.8728 21.404 24.6471 21.7451 24.7232C22.0862 24.7992 22.3246 25.172 22.168 25.6552C22.1447 25.7043 22.1727 25.773 22.1867 25.7803C22.1867 25.7803 22.3129 25.5669 22.3105 25.3388C22.3082 25.1107 22.2848 24.8679 21.89 24.6422C21.4951 24.4141 20.9601 24.7869 20.6447 24.4141C20.3292 24.0413 20.8923 23.6047 21.0605 24.007C21.0932 24.0904 21.0792 24.3675 20.8713 24.1738Z" fill="#8C1539"/>
<path d="M22.1339 25.2973C22.1339 25.2973 21.4586 25.0961 20.9189 25.6799C20.9189 25.6799 20.9493 25.4567 21.0124 25.4101C21.0124 25.4101 20.7998 25.4003 20.7881 25.4076C20.7881 25.4076 20.9259 25.1673 21.1012 25.1231C21.1012 25.1231 21.0521 25.1059 21.0124 25.1133C21.01 25.1108 21.6806 24.5369 22.1339 25.2973Z" fill="#8C1539"/>
<path d="M19.8363 30.0898C19.8363 30.0898 19.8083 29.5699 19.334 29.3418C19.334 29.3418 19.4415 29.3148 19.5232 29.3589C19.5232 29.3589 19.5022 29.2167 19.4718 29.1921C19.4718 29.1921 19.6424 29.2559 19.7125 29.354C19.7125 29.354 19.7242 29.305 19.7055 29.2829C19.7055 29.2829 20.2218 29.6238 19.8363 30.0898Z" fill="#8C1539"/>
<path d="M20.2404 28.9224C20.2404 28.9224 20.0769 28.9543 20.1236 29.0892C20.1703 29.2241 20.4016 29.2707 20.5138 29.1628C20.6259 29.0549 20.7147 28.7286 20.3642 28.6035C20.3642 28.6035 20.3923 28.4441 20.4227 28.4441C20.4227 28.4441 20.2684 28.4024 20.1563 28.6183C20.1563 28.6183 20.0932 28.5275 20.1142 28.4392C20.1142 28.4392 19.9227 28.4883 19.8876 28.7581C19.8876 28.7581 19.8012 28.6943 19.8012 28.6771C19.8012 28.6771 19.6142 28.8513 19.7848 29.0867C19.9554 29.3222 20.1773 29.5552 20.1797 29.7245C20.182 29.8937 20.0255 30.2248 19.7451 30.2199C19.689 30.2199 19.6212 30.2739 19.6797 30.3205C19.7381 30.3695 20.1236 30.2346 20.2451 30.0261C20.3666 29.8177 20.3385 29.619 20.2124 29.462C20.0862 29.305 19.9133 29.0279 20.0348 28.8218C20.1563 28.6158 20.3666 28.6698 20.4203 28.79C20.4741 28.9101 20.3923 29.0279 20.3315 29.0401C20.2684 29.0598 20.1797 29.0107 20.2404 28.9224Z" fill="#8C1539"/>
<path d="M19.9699 30.816C19.9699 30.816 19.5563 30.4947 19.2269 30.5609C19.2269 30.5609 19.2783 30.475 19.3203 30.4726C19.3203 30.4726 19.2222 30.3794 19.2012 30.372C19.2012 30.372 19.3063 30.3426 19.3998 30.3818C19.3998 30.3818 19.3904 30.3401 19.3764 30.3303C19.3764 30.3303 19.8624 30.4039 19.9699 30.816Z" fill="#8C1539"/>
<path d="M20.3855 30.0017C20.3855 30.0017 20.1799 30.2151 20.1075 30.2568C20.0374 30.2985 19.9112 30.3917 19.9603 30.5094C20.0093 30.6272 20.0677 30.6689 20.0677 30.6689C20.0677 30.6689 20.3341 30.4309 20.3878 30.3377C20.4416 30.2445 20.4019 30.0311 20.3855 30.0017Z" fill="#8C1539"/>
<path d="M21.8532 29.7612C21.8532 29.7612 21.8532 29.5822 21.7598 29.6116C21.6663 29.641 21.5635 29.771 21.5378 29.9035C21.5191 29.9918 21.4654 30.1537 21.3673 30.2714C21.3182 30.3278 21.2621 30.3744 21.192 30.3989C20.9794 30.4701 20.8673 30.4063 20.8252 30.3572C20.8252 30.3572 20.5261 30.6663 20.2855 30.9091C20.2107 30.8919 20.1406 30.8748 20.0752 30.8551C20.1897 30.7693 20.5028 30.5265 20.6757 30.2714C20.6757 30.2714 20.6546 30.2444 20.6313 30.2101C20.5986 30.1635 20.5542 30.0972 20.5425 30.0605C20.5215 29.9942 20.5098 29.8201 20.6967 29.7073C20.8859 29.5969 21.0495 29.4252 21.0238 29.3124C20.9981 29.1995 20.8509 29.2069 20.8042 29.2707C20.8042 29.2707 20.8743 29.0254 21.1079 29.0352C21.1383 29.0377 21.1663 29.0426 21.1873 29.0524C21.3299 29.1137 21.2831 29.3173 21.2481 29.3688C21.2434 29.3761 21.2317 29.3908 21.2177 29.408C21.1359 29.5184 20.9397 29.7784 20.9654 29.8691C20.9654 29.8691 21.1616 29.6631 21.2972 29.511C21.3626 29.4399 21.4116 29.3786 21.4257 29.3565C21.4257 29.3565 21.4093 29.4325 21.3789 29.538C21.3369 29.6754 21.2715 29.8642 21.1803 29.9991C21.1897 29.9893 21.3556 29.8274 21.4093 29.7293C21.428 29.6925 21.4607 29.6288 21.5004 29.5601C21.5752 29.4325 21.6757 29.2927 21.7855 29.3099C21.8673 29.3222 21.9233 29.381 21.9397 29.462C21.963 29.5478 21.9373 29.6557 21.8532 29.7612Z" fill="#8C1539"/>
<path d="M21.1685 30.546L20.8227 30.99C20.6965 30.9802 20.575 30.9654 20.4629 30.9458C20.6264 30.7619 20.9021 30.519 21.1685 30.546Z" fill="#8C1539"/>
<path d="M22.6567 30.3792C22.6567 30.3792 22.638 30.416 22.6053 30.4602C22.5516 30.5362 22.4558 30.6441 22.346 30.6638C22.1847 30.6907 21.4908 30.4283 21.0259 30.9998C20.9932 30.9998 20.9604 30.9973 20.9277 30.9973C21.096 30.7717 21.4137 30.416 21.7408 30.47C21.867 30.4896 21.9721 30.4994 22.0609 30.497C22.3132 30.4896 22.4418 30.3964 22.5352 30.2051C22.6614 29.9476 22.5913 29.8372 22.3904 29.9108C22.1894 29.9843 22.2058 30.3792 22.3927 30.156C22.3904 30.1683 22.3296 30.4307 22.1427 30.3081C21.9511 30.1806 22.0983 29.5772 22.5539 29.771C22.61 29.7906 22.6684 29.8372 22.7455 29.6213C22.7455 29.6213 22.8483 29.6998 22.6731 30.0064C22.6731 30.0064 22.8039 29.9402 22.8203 29.8936C22.8203 29.8936 22.8763 30.0677 22.5609 30.3817C22.5632 30.3743 22.6193 30.3915 22.6567 30.3792Z" fill="#8C1539"/>
<path d="M22.0911 30.8577C21.7921 30.9411 21.5117 30.9828 21.25 30.995C21.4369 30.8601 21.785 30.6688 22.0911 30.8577Z" fill="#8C1539"/>
<path d="M21.9744 28.5446C21.9744 28.5446 22.0165 28.5201 22.0655 28.444C22.1146 28.368 22.2641 28.2503 22.3155 28.2797C22.3155 28.2797 22.2992 28.3827 22.3085 28.3901C22.3085 28.3901 22.3809 28.3337 22.4861 28.3876C22.4861 28.3876 22.416 28.5029 22.4347 28.5373C22.4347 28.5373 22.5422 28.5422 22.5609 28.6108C22.5609 28.6108 22.4627 28.6329 22.4534 28.7212C22.4464 28.8095 22.3856 28.9763 22.3015 28.9788C22.2197 28.9812 22.1543 28.9297 22.1496 28.8193C22.1473 28.7114 22.2174 28.5324 22.3225 28.6354C22.3225 28.6354 22.1823 28.7065 22.2641 28.8242C22.3459 28.9395 22.5258 28.5888 22.2992 28.4956C22.0702 28.4024 22.0492 28.9518 21.9534 29.0671C21.8576 29.1823 21.7641 29.1823 21.6543 29.1186C21.5445 29.0548 21.4627 29.1725 21.3389 29.0057C21.2127 28.8389 21.4066 28.574 21.3623 28.4048C21.3179 28.2356 21.18 28.189 21.1076 28.3018C21.0351 28.4146 21.0538 28.5691 21.1169 28.552C21.18 28.5348 21.2361 28.4441 21.1777 28.3999C21.1777 28.3999 21.2221 28.3288 21.2594 28.3901C21.2945 28.4514 21.2548 28.6967 21.1333 28.7016C21.0118 28.7065 20.9674 28.5888 20.9884 28.4661C21.0118 28.3435 21.0725 28.292 20.9837 28.2675C20.9837 28.2675 20.9744 28.1448 21.1403 28.2037C21.1403 28.2037 21.1426 28.0909 21.1169 28.0663C21.1169 28.0663 21.18 28.0197 21.3062 28.1497C21.3062 28.1497 21.3295 28.0835 21.3155 28.059C21.3155 28.059 21.3996 28.0492 21.458 28.2576C21.5165 28.4661 21.5468 28.4612 21.5468 28.4612C21.5468 28.4612 21.5632 28.2061 21.673 28.1669C21.7828 28.1301 21.6496 27.9976 21.6543 27.9314C21.6543 27.9314 21.7548 27.8922 21.7968 27.9682C21.7968 27.9682 21.7922 27.5562 21.8552 27.4605C21.9207 27.3648 21.9721 27.6077 21.9534 27.7377C21.9347 27.8677 21.8739 27.9314 21.951 27.9339C22.0281 27.9363 22.0422 28.0026 22.0422 28.0026C22.0422 28.0026 21.9534 28.1522 21.951 28.1792C21.9487 28.2086 21.9674 28.2625 21.9908 28.2748C22.0141 28.2871 22.0585 28.368 21.958 28.5373L21.9744 28.5446Z" fill="#8C1539"/>
<path d="M15.9328 9.96496C16.4528 9.96496 16.8744 9.52241 16.8744 8.9765C16.8744 8.43059 16.4528 7.98804 15.9328 7.98804C15.4128 7.98804 14.9912 8.43059 14.9912 8.9765C14.9912 9.52241 15.4128 9.96496 15.9328 9.96496Z" fill="#8C1539"/>
<path d="M15.5867 9.38376C15.5867 9.45489 15.561 9.51621 15.5189 9.56281C15.3881 9.46225 15.2946 9.31508 15.2549 9.14339C15.2829 9.13358 15.311 9.12622 15.3413 9.12622C15.4768 9.12622 15.5867 9.2415 15.5867 9.38376Z" fill="white"/>
<path d="M15.638 8.48113C15.638 8.62339 15.5281 8.73867 15.3926 8.73867C15.3552 8.73867 15.3179 8.72886 15.2852 8.71169C15.3436 8.55226 15.4557 8.41981 15.5959 8.33887C15.6216 8.38056 15.638 8.42962 15.638 8.48113Z" fill="white"/>
<path d="M16.3462 8.39276C16.3042 8.4688 16.2271 8.5203 16.136 8.5203C16.0004 8.5203 15.8906 8.40502 15.8906 8.26276C15.8906 8.25786 15.8906 8.25295 15.8906 8.2505C15.9046 8.2505 15.9163 8.24805 15.9303 8.24805C16.0869 8.24805 16.2317 8.30201 16.3462 8.39276Z" fill="white"/>
<path d="M16.6268 8.97658C16.6268 9.0796 16.6058 9.17771 16.5707 9.26601C16.4632 9.23903 16.3838 9.13847 16.3838 9.01583C16.3838 8.88338 16.4772 8.77546 16.5987 8.76074C16.6151 8.82942 16.6268 8.903 16.6268 8.97658Z" fill="white"/>
<path d="M16.3269 9.57732C16.2147 9.66071 16.0792 9.70731 15.932 9.70731C15.9087 9.70731 15.8853 9.70486 15.8643 9.70241C15.8643 9.69996 15.8643 9.69505 15.8643 9.6926C15.8643 9.55034 15.9741 9.43506 16.1096 9.43506C16.203 9.43506 16.2848 9.49147 16.3269 9.57732Z" fill="white"/>
<path d="M16.1517 9.20464L15.8012 9.2635L15.6377 8.92993L15.89 8.66748L16.2078 8.83672L16.1517 9.20464Z" fill="white"/>
<path d="M16.1238 10.7324L15.8066 10.3994L15.501 10.7203L15.8182 11.0533L16.1238 10.7324Z" fill="#8C1539"/>
<path d="M16.6364 7.33336L16.4121 6.92554L16.0378 7.15242L16.2621 7.56024L16.6364 7.33336Z" fill="#8C1539"/>
<path d="M16.7901 19.2046L16.6522 18.9618L16.7784 18.8833L17.1709 19.5701L17.0448 19.6486L16.9069 19.4057L16.234 19.8301L16.1172 19.6265L16.7901 19.2046Z" fill="#BCBAB7"/>
<path d="M17.1265 20.691C17.2621 20.6051 17.4209 20.5095 17.5121 20.4579L17.5097 20.453C17.3368 20.5095 17.0307 20.6174 16.7293 20.7057L16.6242 20.5217C16.8345 20.3157 17.0821 20.0704 17.2177 19.9355L17.213 19.9281C17.1242 19.9944 16.9583 20.1047 16.8205 20.1906L16.5378 20.3696L16.4326 20.1832L17.2317 19.6804L17.4046 19.9821C17.2177 20.1808 17.0237 20.3721 16.9209 20.4678V20.4702C17.0424 20.4261 17.3228 20.3451 17.5681 20.2715L17.7364 20.5683L16.9373 21.0711L16.8275 20.8774L17.1265 20.691Z" fill="#BCBAB7"/>
</g>
<defs>
<linearGradient id="paint0_linear_141_8028" x1="0" y1="0" x2="57.5654" y2="1.9083" gradientUnits="userSpaceOnUse">
<stop stop-color="#A20C34"/>
<stop offset="1" stop-color="#1E010A"/>
</linearGradient>
<clipPath id="clip0_141_8028">
<rect width="12" height="27" fill="white" transform="translate(14 4)"/>
</clipPath>
</defs>
</svg>
