<svg width="86" height="40" viewBox="0 0 86 40" fill="none" xmlns="http://www.w3.org/2000/svg">
<g id="LOGO" clip-path="url(#clip0_1_37901)">
<path id="Vector" fill-rule="evenodd" clip-rule="evenodd" d="M0 18.9998V5.43311H16.9885V18.9998H10.7087V9.69977H6.27978V18.9998H0Z" fill="black"/>
<path id="Vector_2" fill-rule="evenodd" clip-rule="evenodd" d="M19.4348 19.0001C19.2035 19.0001 19.0052 19.0001 18.8068 19.0001C18.5755 19.0001 18.3772 19.0001 18.2119 19.0001V15.3335H18.6085C18.8399 15.3335 19.0382 15.3001 19.2365 15.2001C19.4348 15.1001 19.6331 14.9668 19.8314 14.7001C20.0297 14.4668 20.195 14.1001 20.3272 13.6668C20.4925 13.2001 20.6247 12.6335 20.7238 11.9001C20.823 11.1668 20.9221 10.2668 20.9882 9.23347C21.0543 8.1668 21.0874 6.93346 21.0874 5.4668H32.4241V19.0001H27.4333V9.50013H25.7146C25.7146 11.2668 25.5824 12.7668 25.2849 13.9668C24.9875 15.1668 24.5909 16.1668 24.0951 16.9001C23.5993 17.6335 23.0044 18.2001 22.3434 18.5001C21.6493 18.8335 20.9552 19.0001 20.162 19.0001C19.8975 19.0001 19.6662 19.0001 19.4348 19.0001Z" fill="black"/>
<path id="Vector_3" fill-rule="evenodd" clip-rule="evenodd" d="M55.3606 19.0003V15.1003H60.3514V19.0003H55.3606ZM46.8994 19.0003V5.43359H51.8902V12.0336L54.964 5.43359H60.3514V14.1336H55.3606V12.4003L52.2868 19.0003H46.8994Z" fill="black"/>
<path id="Vector_4" fill-rule="evenodd" clip-rule="evenodd" d="M52.0559 3.60013C51.5932 3.40013 51.1636 3.1668 50.833 2.80013C50.5025 2.4668 50.2381 2.0668 50.0398 1.5668C49.8415 1.10013 49.7754 0.566797 49.7754 -0.0332031H52.6509C52.6509 0.266797 52.75 0.50013 52.9153 0.666797C53.0805 0.833463 53.3119 0.933463 53.6094 0.933463C53.9068 0.933463 54.1382 0.833463 54.3034 0.666797C54.4687 0.50013 54.5679 0.266797 54.5679 -0.0332031H57.4433C57.4433 0.533464 57.3442 1.0668 57.1789 1.5668C56.9806 2.03346 56.7493 2.4668 56.3857 2.80013C56.0552 3.13346 55.6585 3.40013 55.1628 3.60013C54.7001 3.80013 54.1712 3.8668 53.5763 3.8668C53.0475 3.8668 52.5517 3.7668 52.0559 3.60013Z" fill="black"/>
<path id="Vector_5" fill-rule="evenodd" clip-rule="evenodd" d="M0.0332031 34.5667V21H6.5113L8.49439 28.3667L10.5105 21H16.9886V34.5667H12.4275V27L10.3453 34.5667H6.67656L4.56126 27V34.5667H0.0332031Z" fill="black"/>
<path id="Vector_6" fill-rule="evenodd" clip-rule="evenodd" d="M46.8994 34.5667V21H51.9232V26.4333L54.2038 21H59.9878L56.3191 27.8L60.3514 34.5667H54.6004L51.9232 29.1333V34.5667H46.8994Z" fill="black"/>
<path id="Vector_7" fill-rule="evenodd" clip-rule="evenodd" d="M61.6074 34.5667V21H72.0847V24.8667H66.5982V25.8333H72.0847V29.7333H66.5982V30.7H72.0847V34.5667H61.6074Z" fill="black"/>
<path id="Vector_8" fill-rule="evenodd" clip-rule="evenodd" d="M34.4395 18.9998V5.43311H44.9168V9.29977H39.4302V10.2664H44.9168V14.1331H39.4302V15.1331H44.9168V18.9998H34.4395Z" fill="black"/>
<path id="Vector_9" fill-rule="evenodd" clip-rule="evenodd" d="M18.9717 34.5667V21H29.4821V24.8667H23.9625V25.8667H29.4821V29.7333H23.9625V30.7H29.4821V34.5667H18.9717Z" fill="black"/>
<path id="Vector_10" fill-rule="evenodd" clip-rule="evenodd" d="M80.6787 26.3333C80.91 26.1333 81.0092 25.9 81.0092 25.6C81.0092 25.3333 80.91 25.0667 80.6787 24.8667C80.4473 24.6667 80.1829 24.5667 79.8524 24.5667H79.0922V26.6H79.8524C80.1829 26.6333 80.4473 26.5333 80.6787 26.3333ZM74.0684 34.5667V21H79.8193C80.877 21 81.7694 21.1 82.5626 21.3333C83.3228 21.5667 83.9838 21.8667 84.4796 22.2667C84.9754 22.6667 85.372 23.1667 85.6033 23.7333C85.8347 24.3 85.9669 24.9333 85.9669 25.6333C85.9669 26.3333 85.8347 26.9333 85.6033 27.5333C85.372 28.1 85.0415 28.6 84.5787 29C84.1491 29.4 83.5872 29.7333 82.9592 29.9333C82.3312 30.1667 81.6041 30.2667 80.7778 30.2667H79.6541C79.4558 30.2667 79.2574 30.2333 79.0922 30.1667V34.5H74.0684V34.5667Z" fill="black"/>
<path id="Vector_11" fill-rule="evenodd" clip-rule="evenodd" d="M36.4556 21V24.9H31.4648V21H36.4556ZM44.9168 21V34.5667H39.926V27.9667L36.8522 34.5667H31.4648V25.8667H36.4556V27.6L39.5294 21H44.9168Z" fill="black"/>
<path id="Vector_12" fill-rule="evenodd" clip-rule="evenodd" d="M39.7604 36.4C40.2232 36.6 40.6528 36.8333 40.9834 37.2C41.3139 37.5333 41.5783 37.9333 41.7766 38.4333C41.9749 38.9 42.041 39.4333 42.041 40.0333H39.1655C39.1655 39.7333 39.0664 39.5 38.9011 39.3333C38.7358 39.1666 38.5045 39.0666 38.207 39.0666C37.9096 39.0666 37.6782 39.1666 37.5129 39.3333C37.3477 39.5 37.2485 39.7333 37.2485 40.0333H34.373C34.373 39.4666 34.4722 38.9333 34.6375 38.4333C34.8358 37.9666 35.0671 37.5333 35.4307 37.2C35.7612 36.8666 36.1578 36.6 36.6536 36.4C37.1163 36.2 37.6451 36.1333 38.2401 36.1333C38.7689 36.1333 39.2977 36.2333 39.7604 36.4Z" fill="black"/>
<path id="Vector_13" d="M85.9672 8.1665H62.4346V18.9998H85.9672V8.1665Z" fill="#5334EA"/>
<path id="Vector_14" d="M63.8222 5.43359H63.3926V7.43359H63.8222V5.43359Z" fill="#5334EA"/>
<path id="Vector_15" d="M66.7314 5.43359H66.3018V7.43359H66.7314V5.43359Z" fill="#5334EA"/>
<path id="Vector_16" d="M65.7724 5.43311H65.3428V7.43311H65.7724V5.43311Z" fill="#5334EA"/>
<path id="Vector_17" d="M82.1328 5.43359H81.7031V7.43359H82.1328V5.43359Z" fill="#5334EA"/>
<path id="Vector_18" d="M83.0918 5.43359H82.6621V7.43359H83.0918V5.43359Z" fill="#5334EA"/>
<path id="Vector_19" d="M84.0498 5.43311H83.6201V7.43311H84.0498V5.43311Z" fill="#5334EA"/>
<path id="Vector_20" d="M64.7812 5.43359H64.3516V7.43359H64.7812V5.43359Z" fill="#5334EA"/>
<path id="Vector_21" d="M67.6894 5.43311H67.2598V7.43311H67.6894V5.43311Z" fill="#5334EA"/>
<path id="Vector_22" d="M68.6474 5.43359H68.2178V7.43359H68.6474V5.43359Z" fill="#5334EA"/>
<path id="Vector_23" d="M69.6064 5.43311H69.1768V7.43311H69.6064V5.43311Z" fill="#5334EA"/>
<path id="Vector_24" d="M72.4814 5.43359H72.0518V7.43359H72.4814V5.43359Z" fill="#5334EA"/>
<path id="Vector_25" d="M71.5234 5.43359H71.0938V7.43359H71.5234V5.43359Z" fill="#5334EA"/>
<path id="Vector_26" d="M70.5644 5.43359H70.1348V7.43359H70.5644V5.43359Z" fill="#5334EA"/>
<path id="Vector_27" d="M73.4736 5.43359H73.0439V7.43359H73.4736V5.43359Z" fill="#5334EA"/>
<path id="Vector_28" d="M74.4316 5.43359H74.002V7.43359H74.4316V5.43359Z" fill="#5334EA"/>
<path id="Vector_29" d="M75.3906 5.43311H74.9609V7.43311H75.3906V5.43311Z" fill="#5334EA"/>
<path id="Vector_30" d="M78.2656 5.43359H77.8359V7.43359H78.2656V5.43359Z" fill="#5334EA"/>
<path id="Vector_31" d="M77.3076 5.43311H76.8779V7.43311H77.3076V5.43311Z" fill="#5334EA"/>
<path id="Vector_32" d="M76.3486 5.43359H75.9189V7.43359H76.3486V5.43359Z" fill="#5334EA"/>
<path id="Vector_33" d="M81.1748 5.43359H80.7451V7.43359H81.1748V5.43359Z" fill="#5334EA"/>
<path id="Vector_34" d="M80.1826 5.43359H79.7529V7.43359H80.1826V5.43359Z" fill="#5334EA"/>
<path id="Vector_35" d="M79.2246 5.43359H78.7949V7.43359H79.2246V5.43359Z" fill="#5334EA"/>
<path id="Vector_36" d="M85.0088 5.43359H84.5791V7.43359H85.0088V5.43359Z" fill="#5334EA"/>
<path id="Vector_37" d="M85.9668 5.43359H85.5371V7.43359H85.9668V5.43359Z" fill="#5334EA"/>
<path id="Vector_38" d="M62.8642 5.43359H62.4346V7.43359H62.8642V5.43359Z" fill="#5334EA"/>
</g>
<defs>
<clipPath id="clip0_1_37901">
<rect width="86" height="40" fill="white"/>
</clipPath>
</defs>
</svg>
