<svg width="196" height="90" viewBox="0 0 196 90" fill="none" xmlns="http://www.w3.org/2000/svg">
<g id="LOGO" clip-path="url(#clip0_50_15988)">
<path id="Vector" fill-rule="evenodd" clip-rule="evenodd" d="M0 42.7506V12.2256H38.7179V42.7506H24.4058V21.8256H14.3121V42.7506H0Z" fill="white"/>
<path id="Vector_2" fill-rule="evenodd" clip-rule="evenodd" d="M44.292 42.7498C43.7647 42.7498 43.3127 42.7498 42.8608 42.7498C42.3335 42.7498 41.8815 42.7498 41.5049 42.7498V34.4998H42.4088C42.9361 34.4998 43.3881 34.4248 43.84 34.1998C44.292 33.9748 44.7439 33.6748 45.1959 33.0748C45.6479 32.5498 46.0245 31.7248 46.3258 30.7498C46.7024 29.6998 47.0037 28.4248 47.2297 26.7748C47.4557 25.1248 47.6817 23.0998 47.8323 20.7748C47.983 18.3748 48.0583 15.5998 48.0583 12.2998H73.8953V42.7498H62.521V21.3748H58.604C58.604 25.3498 58.3027 28.7248 57.6248 31.4248C56.9468 34.1248 56.0429 36.3748 54.913 38.0248C53.7831 39.6748 52.4272 40.9498 50.9207 41.6248C49.3389 42.3748 47.757 42.7498 45.9492 42.7498C45.3465 42.7498 44.8193 42.7498 44.292 42.7498Z" fill="white"/>
<path id="Vector_3" fill-rule="evenodd" clip-rule="evenodd" d="M126.171 42.7506V33.9756H137.546V42.7506H126.171ZM106.888 42.7506V12.2256H118.262V27.0756L125.267 12.2256H137.546V31.8006H126.171V27.9006L119.166 42.7506H106.888Z" fill="white"/>
<path id="Vector_4" fill-rule="evenodd" clip-rule="evenodd" d="M118.64 8.0998C117.585 7.6498 116.606 7.1248 115.853 6.2998C115.1 5.5498 114.497 4.6498 114.045 3.5248C113.593 2.4748 113.442 1.2748 113.442 -0.0751953H119.996C119.996 0.599805 120.222 1.1248 120.598 1.4998C120.975 1.8748 121.502 2.0998 122.18 2.0998C122.858 2.0998 123.385 1.8748 123.762 1.4998C124.139 1.1248 124.365 0.599805 124.365 -0.0751953H130.918C130.918 1.1998 130.692 2.3998 130.316 3.5248C129.864 4.5748 129.336 5.5498 128.508 6.2998C127.754 7.0498 126.851 7.6498 125.721 8.0998C124.666 8.5498 123.461 8.6998 122.105 8.6998C120.9 8.6998 119.77 8.4748 118.64 8.0998Z" fill="white"/>
<path id="Vector_5" fill-rule="evenodd" clip-rule="evenodd" d="M0.0751953 77.775V47.25H14.8392L19.3588 63.825L23.9537 47.25H38.7178V77.775H28.3227V60.75L23.5771 77.775H15.2159L10.3949 60.75V77.775H0.0751953Z" fill="white"/>
<path id="Vector_6" fill-rule="evenodd" clip-rule="evenodd" d="M106.888 77.775V47.25H118.337V59.475L123.535 47.25H136.717L128.356 62.55L137.546 77.775H124.439L118.337 65.55V77.775H106.888Z" fill="white"/>
<path id="Vector_7" fill-rule="evenodd" clip-rule="evenodd" d="M140.409 77.775V47.25H164.288V55.95H151.784V58.125H164.288V66.9H151.784V69.075H164.288V77.775H140.409Z" fill="white"/>
<path id="Vector_8" fill-rule="evenodd" clip-rule="evenodd" d="M78.4902 42.7506V12.2256H102.369V20.9256H89.8646V23.1006H102.369V31.8006H89.8646V34.0506H102.369V42.7506H78.4902Z" fill="white"/>
<path id="Vector_9" fill-rule="evenodd" clip-rule="evenodd" d="M43.2373 77.775V47.25H67.1912V55.95H54.6116V58.2H67.1912V66.9H54.6116V69.075H67.1912V77.775H43.2373Z" fill="white"/>
<path id="Vector_10" fill-rule="evenodd" clip-rule="evenodd" d="M183.873 59.25C184.4 58.8 184.626 58.275 184.626 57.6C184.626 57 184.4 56.4 183.873 55.95C183.346 55.5 182.743 55.275 181.99 55.275H180.257V59.85H181.99C182.743 59.925 183.346 59.7 183.873 59.25ZM168.808 77.775V47.25H181.914C184.325 47.25 186.359 47.475 188.167 48C189.899 48.525 191.406 49.2 192.536 50.1C193.665 51 194.569 52.125 195.097 53.4C195.624 54.675 195.925 56.1 195.925 57.675C195.925 59.25 195.624 60.6 195.097 61.95C194.569 63.225 193.816 64.35 192.761 65.25C191.782 66.15 190.502 66.9 189.07 67.35C187.639 67.875 185.982 68.1 184.099 68.1H181.538C181.086 68.1 180.634 68.025 180.257 67.875V77.625H168.808V77.775Z" fill="white"/>
<path id="Vector_11" fill-rule="evenodd" clip-rule="evenodd" d="M83.0853 47.25V56.025H71.7109V47.25H83.0853ZM102.369 47.25V77.775H90.9946V62.925L83.9892 77.775H71.7109V58.2H83.0853V62.1L90.0906 47.25H102.369Z" fill="white"/>
<path id="Vector_12" fill-rule="evenodd" clip-rule="evenodd" d="M90.6181 81.8998C91.6727 82.3498 92.6519 82.8748 93.4052 83.6998C94.1585 84.4498 94.7611 85.3498 95.213 86.4748C95.665 87.5248 95.8156 88.7248 95.8156 90.0748H89.2622C89.2622 89.3998 89.0362 88.8748 88.6596 88.4998C88.283 88.1248 87.7557 87.8998 87.0777 87.8998C86.3998 87.8998 85.8725 88.1248 85.4959 88.4998C85.1192 88.8748 84.8933 89.3998 84.8933 90.0748H78.3398C78.3398 88.7998 78.5658 87.5998 78.9425 86.4748C79.3944 85.4248 79.9217 84.4498 80.7503 83.6998C81.5036 82.9498 82.4075 82.3498 83.5374 81.8998C84.592 81.4498 85.7972 81.2998 87.1531 81.2998C88.3583 81.2998 89.5635 81.5248 90.6181 81.8998Z" fill="white"/>
<path id="Vector_13" d="M195.925 18.375H142.292V42.75H195.925V18.375Z" fill="white"/>
<path id="Vector_14" d="M145.456 12.2256H144.477V16.7256H145.456V12.2256Z" fill="white"/>
<path id="Vector_15" d="M152.085 12.2256H151.105V16.7256H152.085V12.2256Z" fill="white"/>
<path id="Vector_16" d="M149.899 12.2256H148.92V16.7256H149.899V12.2256Z" fill="white"/>
<path id="Vector_17" d="M187.187 12.2256H186.208V16.7256H187.187V12.2256Z" fill="white"/>
<path id="Vector_18" d="M189.371 12.2256H188.392V16.7256H189.371V12.2256Z" fill="white"/>
<path id="Vector_19" d="M191.555 12.2256H190.576V16.7256H191.555V12.2256Z" fill="white"/>
<path id="Vector_20" d="M147.64 12.2256H146.661V16.7256H147.64V12.2256Z" fill="white"/>
<path id="Vector_21" d="M154.269 12.2256H153.29V16.7256H154.269V12.2256Z" fill="white"/>
<path id="Vector_22" d="M156.454 12.2256H155.475V16.7256H156.454V12.2256Z" fill="white"/>
<path id="Vector_23" d="M158.638 12.2256H157.659V16.7256H158.638V12.2256Z" fill="white"/>
<path id="Vector_24" d="M165.191 12.2256H164.212V16.7256H165.191V12.2256Z" fill="white"/>
<path id="Vector_25" d="M163.007 12.2256H162.027V16.7256H163.007V12.2256Z" fill="white"/>
<path id="Vector_26" d="M160.823 12.2256H159.844V16.7256H160.823V12.2256Z" fill="white"/>
<path id="Vector_27" d="M167.451 12.2256H166.472V16.7256H167.451V12.2256Z" fill="white"/>
<path id="Vector_28" d="M169.635 12.2256H168.656V16.7256H169.635V12.2256Z" fill="white"/>
<path id="Vector_29" d="M171.82 12.2256H170.841V16.7256H171.82V12.2256Z" fill="white"/>
<path id="Vector_30" d="M178.374 12.2256H177.395V16.7256H178.374V12.2256Z" fill="white"/>
<path id="Vector_31" d="M176.189 12.2256H175.21V16.7256H176.189V12.2256Z" fill="white"/>
<path id="Vector_32" d="M174.005 12.2256H173.025V16.7256H174.005V12.2256Z" fill="white"/>
<path id="Vector_33" d="M185.003 12.2256H184.023V16.7256H185.003V12.2256Z" fill="white"/>
<path id="Vector_34" d="M182.743 12.2256H181.764V16.7256H182.743V12.2256Z" fill="white"/>
<path id="Vector_35" d="M180.558 12.2256H179.579V16.7256H180.558V12.2256Z" fill="white"/>
<path id="Vector_36" d="M193.74 12.2256H192.761V16.7256H193.74V12.2256Z" fill="white"/>
<path id="Vector_37" d="M195.925 12.2256H194.945V16.7256H195.925V12.2256Z" fill="white"/>
<path id="Vector_38" d="M143.271 12.2256H142.292V16.7256H143.271V12.2256Z" fill="white"/>
</g>
<defs>
<clipPath id="clip0_50_15988">
<rect width="196" height="90" fill="white"/>
</clipPath>
</defs>
</svg>
