<svg width="15" height="34" viewBox="0 0 15 34" fill="none" xmlns="http://www.w3.org/2000/svg">
<g clip-path="url(#clip0_87_1244)">
<path d="M11.7576 17.5745C11.8685 17.3614 11.9795 17.1421 12.0905 16.9197C13.4573 14.2017 14.941 10.8165 14.9906 8.8398C15.049 6.50786 14.7307 5.33726 14.4123 4.60833C14.2751 4.29329 14.1407 4.06164 14.0356 3.85161C13.9976 3.77748 13.9655 3.70644 13.9392 3.63849C13.872 3.46553 13.7727 3.26167 13.6588 3.04856C13.6588 3.04856 13.6588 3.04856 13.6559 3.04547C13.58 2.9003 13.4953 2.74896 13.4106 2.60379C13.4106 2.60379 13.4077 2.59761 13.4018 2.59143C13.3405 2.48333 13.2792 2.37832 13.2178 2.27948C12.9813 1.87795 12.7768 1.55364 12.7476 1.4826C12.6834 1.33744 12.4205 1.14594 11.9036 1.14594C11.8218 1.14594 11.6962 1.12123 11.5414 1.08417H11.5385C10.6916 0.867961 8.96258 0.173012 8.84283 0.101972C8.69973 0.0154899 7.86153 -0.00304208 7.64833 0.00931257C7.43512 0.0216672 5.07531 0.50041 4.75113 0.512765C4.42695 0.525119 3.83699 0.645577 3.41935 1.25404C2.99879 1.86251 3.12438 1.80383 2.81772 1.90884C2.51398 2.01077 0.270988 3.4995 0.00813712 8.02439C-0.254713 12.5493 4.70148 19.7798 5.1162 20.9319C5.1162 20.9319 2.99587 25.8923 2.82648 28.8327C2.80311 29.2497 2.80896 29.6296 2.83816 29.9755C2.84984 30.1176 2.86737 30.2535 2.88781 30.3863C3.16526 32.1746 4.14073 32.919 4.81538 33.2402C4.97017 33.3144 5.10452 33.3761 5.22134 33.4256C5.38781 33.4966 5.52508 33.546 5.66526 33.5707C5.95732 33.6294 6.24646 33.5923 6.79552 33.4811C6.79552 33.4811 7.0905 33.6696 7.59576 33.8178C7.67753 33.8425 7.76515 33.8641 7.85861 33.8858C7.9287 33.9012 8.00171 33.9166 8.07765 33.929C8.21783 33.9537 8.3697 33.9753 8.52741 33.9846C8.57122 33.9877 8.61211 33.9908 8.65592 33.9908C8.69681 33.9939 8.73769 33.9939 8.77858 33.9939C8.86912 33.9939 8.96258 33.9939 9.05896 33.9908C9.38606 33.9753 9.73945 33.9259 10.1104 33.8178C10.3703 33.7437 10.639 33.6448 10.9164 33.512C10.9544 33.4935 10.9894 33.475 11.0274 33.4564C11.0274 33.4564 11.2202 33.4225 11.4859 33.2619C11.8627 33.0302 12.3855 32.5422 12.6921 31.526C12.7389 31.3716 12.7798 31.2017 12.8177 31.0195C13.0455 29.8612 12.9754 28.8265 12.8002 27.9617C12.7944 27.9277 12.7856 27.8938 12.7798 27.8629C12.6746 27.378 12.5373 26.9517 12.403 26.5903C12.368 26.4977 12.3358 26.4112 12.3008 26.3278C12.2687 26.2444 12.2336 26.1641 12.2044 26.09C11.8861 25.3302 10.7587 23.0106 10.1542 21.8153C10.0666 21.6423 9.99062 21.491 9.92636 21.3736C9.91176 21.3458 9.89716 21.318 9.88548 21.2933C9.85043 21.2253 9.82122 21.1697 9.79786 21.1358C9.79786 21.1358 9.88548 20.9875 10.0373 20.7219C10.3791 20.1412 11.0303 18.9799 11.7576 17.5745ZM4.54961 5.26931C4.58174 5.18591 4.61678 5.10252 4.65475 5.02221C4.66935 5.00986 5.09868 4.65775 5.98653 4.58053C6.39248 4.54656 6.8919 4.56509 7.49061 4.70408C8.0572 4.85234 9.78326 5.5442 9.85627 8.41974C9.8183 9.41429 9.5905 10.6436 9.12613 12.157C8.72309 13.4697 8.14482 14.9893 7.35043 16.753C7.34167 16.7437 7.219 16.5738 7.02332 16.2804C6.8773 16.0611 6.69038 15.7677 6.4801 15.4187C5.7412 14.177 4.72776 12.1972 4.28092 10.0506C3.95674 8.47225 3.93337 6.80128 4.54961 5.26931Z" fill="#EFECE8"/>
<path d="M7.21582 30.0096C7.06103 30.9485 6.74853 31.662 6.41559 32.1871C5.849 33.0766 5.224 33.4256 5.224 33.4256C5.10718 33.3762 4.97283 33.3144 4.81804 33.2403C4.14339 32.9191 3.16792 32.1747 2.89047 30.3864C2.87003 30.2567 2.8525 30.1177 2.84082 29.9756C3.41033 31.8689 4.73918 32.3137 5.56862 32.0234C6.01839 31.8658 6.22575 31.628 6.31921 31.418C6.43311 31.1616 6.3747 30.9423 6.3747 30.9423L6.59958 30.0775L7.21582 30.0096Z" fill="#EBE7E3"/>
<path d="M4.40063 31.4952C3.87493 31.1307 3.49817 30.408 3.52154 29.33C3.59747 25.8553 5.4053 21.5806 5.4053 21.5806C5.4053 21.5806 5.42574 21.6145 5.46079 21.6794C5.56885 21.8771 5.82294 22.3651 6.11208 23.0724C6.24642 23.4029 6.38953 23.7797 6.52679 24.1967C6.92399 25.392 7.28906 26.9178 7.35915 28.6073C7.47598 31.3469 5.56885 32.3044 4.40063 31.4952Z" fill="#9A9794"/>
<path d="M4.5817 24.4963C4.30133 25.8892 3.57411 29.8983 4.40063 31.4952C3.87493 31.1307 3.49817 30.408 3.52154 29.33C3.59747 25.8553 5.4053 21.5806 5.4053 21.5806C5.4053 21.5806 5.42574 21.6145 5.46079 21.6794C5.31476 22.0192 4.84163 23.199 4.5817 24.4963Z" fill="#ACA9A6"/>
<path d="M5.73264 29.883C5.65671 29.8985 5.36173 29.7502 5.10764 27.8939C4.90613 26.4175 5.75601 24.0022 6.11232 23.0725C6.24666 23.403 6.38977 23.7798 6.52704 24.1968C4.71045 27.8198 5.79982 29.8676 5.73264 29.883Z" fill="#8F8C8A"/>
<path d="M6.41574 32.1869C5.84915 33.0765 5.22415 33.4255 5.22415 33.4255C5.10733 33.3761 4.97298 33.3143 4.8182 33.2402C4.14355 32.9189 3.16808 32.1746 2.89062 30.3862C3.18852 31.1275 3.60324 31.8811 4.14355 32.258C5.38478 33.1166 6.39238 32.2055 6.41574 32.1869Z" fill="#CCC9C6"/>
<path d="M2.7884 2.80469C2.7884 2.80469 1.67859 6.2609 1.98233 9.30323C2.28607 12.3456 3.03665 13.7386 3.3141 15.7771C3.3141 15.7771 2.81761 12.7842 2.62193 12.0707C2.42625 11.3572 1.86843 8.11719 2.1488 6.84466C2.43209 5.57522 2.32695 5.10574 2.32695 5.10574C2.32695 5.10574 2.53724 3.58303 2.7884 2.80469Z" fill="#CCC9C6"/>
<path d="M4.84134 20.2555C4.84134 20.2555 5.54227 18.9119 5.16552 16.6078C4.78877 14.3036 4.91435 13.4048 4.91435 13.4048L4.47919 11.459L4.38281 11.5362C4.38281 11.5362 5.02826 16.4101 5.0633 17.0711C5.10419 17.7351 5.34076 18.3035 4.84134 20.2555Z" fill="#E0DCD9"/>
<path d="M12.821 31.0257C12.7859 31.208 12.7421 31.3747 12.6954 31.5323C12.3887 32.5484 11.866 33.0395 11.4892 33.2681C11.2234 33.4287 11.0307 33.4627 11.0307 33.4627C11.0307 33.4627 11.1066 33.3206 11.2147 33.0951C11.2672 32.987 11.3257 32.8604 11.387 32.7214C11.644 32.1376 11.9477 31.3346 11.9477 30.7786C11.9477 30.2844 11.9361 29.4536 11.8981 28.6752C11.8952 28.5888 11.8893 28.5054 11.8835 28.422C11.8718 28.2274 11.8601 28.0359 11.8426 27.8598C11.8075 27.4645 11.7637 27.1309 11.7082 26.9332C11.5155 26.263 10.7153 24.7063 10.7153 24.7063C10.7153 24.7063 10.4466 24.4036 10.0757 23.9836C9.87997 23.7643 9.65801 23.511 9.43021 23.2516C9.42729 23.2485 9.42437 23.2454 9.42437 23.2423C9.38932 23.2021 9.35427 23.162 9.31631 23.1187C8.97752 22.7327 8.63582 22.3373 8.3642 22.0223C8.22694 21.8617 8.10719 21.7196 8.01666 21.6115C7.92904 21.5065 7.87063 21.4292 7.84434 21.3891C7.78885 21.3057 7.66327 21.0833 7.4968 20.7899C7.0149 19.9343 6.21467 18.4827 5.99271 18.1676C5.85836 17.9761 5.34142 16.3237 4.91502 14.4396C4.72518 13.6088 4.55287 12.7347 4.43605 11.9193C4.43313 11.8976 4.43021 11.876 4.42729 11.8575C4.41561 11.7834 4.40684 11.7092 4.39808 11.6382C4.39516 11.6258 4.39516 11.6135 4.39224 11.6042C4.39224 11.5949 4.38932 11.5857 4.38932 11.5795C4.38932 11.5733 4.3864 11.5702 4.3864 11.5641C4.3864 11.561 4.3864 11.5548 4.38348 11.5517C4.38348 11.5486 4.38348 11.5486 4.38348 11.5455C4.38348 11.5424 4.38348 11.5393 4.38348 11.5393V11.5363C4.38348 11.5332 4.38348 11.5332 4.38348 11.5332C4.32215 11.0266 4.28418 10.551 4.28418 10.1371C4.28418 10.1062 4.28418 10.0753 4.28418 10.0444C4.73103 12.1911 5.74154 14.1678 6.48336 15.4125C6.69072 15.7615 6.87764 16.055 7.02659 16.2743C7.22226 16.5677 7.34493 16.7345 7.35369 16.7468C8.14516 14.9832 8.72635 13.4605 9.12939 12.1509L9.94131 13.4574L10.2567 13.9639L10.7503 14.7608L11.6002 16.1291L11.8455 16.5214L12.0879 16.9105C11.9769 17.1329 11.863 17.3522 11.755 17.5653C11.0307 18.9707 10.3765 20.132 10.0377 20.7189C9.88582 20.9845 9.7982 21.1327 9.7982 21.1327C9.81864 21.1667 9.84785 21.2223 9.88582 21.2903C9.8975 21.315 9.9121 21.3428 9.9267 21.3706C9.98804 21.4879 10.0669 21.6393 10.1545 21.8122C10.7591 23.0076 11.8864 25.3271 12.2047 26.0869C12.2369 26.1611 12.269 26.2414 12.3011 26.3248C12.3449 26.3927 12.4063 26.5873 12.4063 26.5873H12.4033C12.5377 26.9487 12.675 27.3749 12.7801 27.8598C12.7859 27.8938 12.7947 27.9247 12.8005 27.9587C12.9787 28.8328 13.0488 29.8675 12.821 31.0257Z" fill="#FFFBF7"/>
<path d="M6.28166 2.14673C6.28166 2.14673 3.71449 3.18452 3.13038 7.01446C2.54627 10.8444 5.32372 14.6373 4.06788 18.668C4.06788 18.668 4.87395 16.8024 3.3173 12.154C1.7548 7.50865 3.19171 3.3791 6.28166 2.14673Z" fill="#CCC9C6"/>
<path d="M9.85979 8.41659C9.78678 5.54104 8.05781 4.85227 7.49414 4.70093C7.62557 4.73181 7.75991 4.76579 7.90302 4.80903C9.10921 5.16423 9.94741 6.20202 9.85979 8.41659Z" fill="black"/>
<path d="M14.9911 8.83986C14.9415 10.8166 13.4579 14.1987 12.091 16.9198C11.98 17.1422 11.8661 17.3615 11.7581 17.5746C11.0338 18.9799 10.3796 20.1413 10.0408 20.7281C9.88893 20.9938 9.80131 21.142 9.80131 21.142L9.38951 20.4038L9.26393 20.1783L9.04489 19.783L8.77619 19.2981L8.20668 18.2788L7.35388 16.7499C8.14535 14.9863 8.72654 13.4636 9.12958 12.154C9.59395 10.6406 9.82176 9.41127 9.85972 8.41672C9.78671 5.54117 8.05774 4.8524 7.49407 4.70106C6.89535 4.56515 6.39302 4.54353 5.98998 4.57751C5.10213 4.65473 4.67281 5.00683 4.6582 5.01919C5.63659 3.44088 6.42222 2.74593 7.14652 2.52355C7.44442 2.43398 7.73355 2.42471 8.02269 2.46486C8.44617 2.52664 8.86965 2.70269 9.32234 2.90345C9.97655 3.19379 10.4468 3.18143 10.7855 3.06406C10.9257 3.01465 11.0455 2.9467 11.1448 2.87566C11.358 2.72122 11.4836 2.54208 11.5566 2.47722C11.5741 2.46178 11.5945 2.44324 11.6179 2.42471C11.8282 2.25483 12.2079 2.02319 12.7248 2.23939C13.2709 2.46795 13.6214 2.99303 13.6535 3.04244C13.6535 3.04553 13.6565 3.04553 13.6565 3.04553C13.7674 3.25865 13.8667 3.4625 13.9368 3.63547C13.966 3.70651 13.9982 3.77446 14.0332 3.84858C14.1383 4.05861 14.2727 4.29026 14.41 4.60531C14.7312 5.33732 15.0525 6.50792 14.9911 8.83986Z" fill="#CCC9C6"/>
<path d="M14.4151 4.60824L14.2924 5.51321H14.0471C14.0471 5.51321 14.0471 5.51321 14.0471 5.51013C14.2311 3.57353 13.4601 3.01449 12.9227 2.50486C12.3941 2.00449 11.6552 2.4122 11.626 2.42764C11.8363 2.25776 12.2159 2.02611 12.7329 2.24232C13.279 2.47088 13.6295 2.99595 13.6616 3.04537C13.6616 3.04846 13.6645 3.04846 13.6645 3.04846C13.7755 3.26158 13.8748 3.46543 13.9449 3.6384C13.9741 3.70944 14.0062 3.77739 14.0413 3.85151C14.1435 4.05845 14.2778 4.29319 14.4151 4.60824Z" fill="#BBB8B5"/>
<path d="M13.6915 9.39587C13.5425 10.5356 12.4765 12.6266 12.1728 13.4451C11.872 14.2574 11.8311 15.6566 11.8311 15.6844L11.8924 16.0272L11.8486 16.5276L11.7581 17.5716C11.0338 18.9769 10.3796 20.1382 10.0408 20.7251C9.88893 20.9907 9.80131 21.139 9.80131 21.139L9.38951 20.4008L9.26393 20.1753L9.04489 19.78L8.77619 19.295L8.20668 18.2758L7.35388 16.7469C8.14535 14.9833 8.72654 13.4606 9.12958 12.151C9.59395 10.6375 9.82175 9.40823 9.85972 8.41368C9.78671 5.53813 8.05774 4.84936 7.49407 4.69802C6.89535 4.56211 6.39302 4.54049 5.98998 4.57447C5.10213 4.65169 4.67281 5.00379 4.6582 5.01615C5.63659 3.43784 6.42222 2.74289 7.14652 2.52051C7.38309 2.90041 7.73063 3.30194 8.23005 3.67567C8.30306 3.73126 8.38192 3.78377 8.46077 3.83628C8.86673 4.10808 9.36323 4.35826 9.9707 4.56829C10.0817 4.60844 10.1956 4.64551 10.3153 4.67948C10.4322 4.71346 10.5431 4.75052 10.6512 4.78759C14.1296 5.98599 13.8375 8.29013 13.6915 9.39587Z" fill="#BBB8B5"/>
<path d="M14.9909 8.83991C14.9412 10.8167 13.4576 14.1987 12.0908 16.9199C11.9798 17.1422 11.8659 17.3615 11.7578 17.5746C11.0335 18.98 10.3793 20.1413 10.0405 20.7282C9.88867 20.9938 9.80105 21.1421 9.80105 21.1421L9.38926 20.4039L9.26367 20.1784C9.27535 20.1599 9.77477 19.4155 10.4494 18.2511C10.7269 17.7723 11.0365 17.2195 11.3519 16.6172C11.4336 16.4596 11.5183 16.299 11.6001 16.1353C11.6761 15.9871 11.7491 15.8388 11.825 15.6844C13.3612 12.571 14.839 8.5434 13.8343 5.96746C13.8343 5.96746 13.9483 5.80067 14.0417 5.51033C14.0417 5.51033 14.0417 5.51033 14.0417 5.50724C14.1644 5.13043 14.2578 4.54358 14.0329 3.84863C14.1381 4.05866 14.2724 4.29031 14.4097 4.60536C14.731 5.33737 15.0522 6.50797 14.9909 8.83991Z" fill="#EFECE8"/>
<path d="M10.4519 18.2509L10.5629 18.4115L10.3526 19.3813C10.3029 19.5234 10.262 19.6531 10.2241 19.7705L9.39172 20.4006L9.26614 20.1751L9.04709 19.7798L8.7784 19.2949L8.20889 18.2756L7.35609 16.7467C8.14756 14.9831 8.72875 13.4604 9.13179 12.1508C9.59616 10.6373 9.82396 9.40804 9.86193 8.41349C9.78892 5.53795 8.05995 4.84918 7.49628 4.69783C6.89756 4.56193 6.39522 4.54031 5.99219 4.57429C6.2638 4.51251 6.59674 4.4631 6.96181 4.46927C7.96649 4.48163 9.19604 4.91095 9.9291 6.62825C9.96415 6.71164 9.9992 6.79504 10.0313 6.87225C11.2696 9.86826 10.5892 10.0598 10.0401 12.8828C10.0021 13.0774 9.97291 13.2689 9.94663 13.4573C9.8853 13.9391 9.86193 14.4024 9.86485 14.841C9.87069 15.502 9.94079 16.1043 10.0284 16.6108C10.1277 17.1822 10.2533 17.6332 10.3409 17.9142C10.4022 18.1273 10.449 18.2447 10.4519 18.2509Z" fill="#9A9794"/>
<path d="M11.6325 11.6567C11.3317 13.2968 10.6483 15.1469 10.0262 16.614C9.36615 18.1676 8.77619 19.2981 8.77619 19.2981L8.20668 18.2788C8.56007 17.5468 9.33986 15.9345 9.86264 14.8442C9.86556 14.8411 9.86556 14.838 9.86848 14.8349C10.5636 13.3864 12.459 9.019 11.0338 5.9674C10.7476 5.35893 10.3796 4.90799 9.97654 4.5775C9.50049 4.19142 8.97479 3.96594 8.46661 3.84549C7.69559 3.66017 6.96837 3.70958 6.5332 3.77136C7.16989 3.66325 7.73355 3.63855 8.23589 3.68179C9.3165 3.77445 10.1021 4.18524 10.66 4.79679C12.1611 6.43996 12.0239 9.52245 11.6325 11.6567Z" fill="#A5A2A0"/>
<path d="M11.5303 16.4658C11.3872 16.6079 11.2616 17.1299 10.6249 18.668C10.514 18.9368 10.4234 19.1715 10.3504 19.3815C10.3008 19.5236 10.2599 19.6533 10.2219 19.7707C10.0116 20.4656 10.0408 20.7251 10.0408 20.7251C9.88896 20.9907 9.80135 21.139 9.80135 21.139L9.38955 20.4008L9.26396 20.1753L9.04492 19.78L10.3387 17.9175L11.0134 16.9446C11.0864 16.855 11.2353 16.716 11.3551 16.6141C11.4456 16.5369 11.5216 16.472 11.5303 16.4658Z" fill="#DAD7D3"/>
<path d="M12.7891 14.4643C12.7891 14.4643 15.9024 9.18886 14.3165 5.71411C14.3165 5.7172 15.2686 8.67614 12.7891 14.4643Z" fill="#FFFBF7"/>
<path d="M6.1123 3.85163C6.12983 3.84854 6.2817 3.80839 6.52702 3.77441C6.39268 3.79603 6.25541 3.82074 6.1123 3.85163Z" fill="#A5A2A0"/>
<path d="M11.057 3.09489L10.7883 3.07018C10.7883 3.07018 10.1108 3.1196 9.52957 2.81073C8.94838 2.49878 7.61368 1.2664 5.9256 3.0115C4.23459 4.75968 2.74219 4.03076 2.74219 4.03076L2.81812 3.84852C2.81812 3.84852 2.95831 2.09725 3.2416 1.77912C3.49569 1.68955 5.42034 0.942093 5.66275 0.837079L6.5652 0.639404L7.22233 0.78766L8.33798 1.38995L9.27548 1.98915L10.1254 2.45245L10.5897 2.61924C10.5897 2.61924 11.0249 2.75514 11.5623 2.48334L11.057 3.09489Z" fill="#FEFAF6"/>
<path d="M13.4047 2.58831C13.3784 2.54507 13.2937 2.41226 13.1506 2.24547C12.8177 1.86248 12.1781 1.31578 11.2669 1.41153C10.1921 1.52581 9.39187 1.75437 8.70845 1.54434C8.51278 1.48566 8.32878 1.38991 8.15063 1.24474C8.11266 1.21386 8.08053 1.18606 8.04841 1.16135C8.0046 1.12429 7.96663 1.09031 7.93451 1.05942C7.49642 0.636276 8.07469 0.775266 8.07469 0.775266L9.06476 0.966763L9.7657 1.10266L10.1103 1.04707C10.1103 1.04707 10.9339 1.07487 11.5414 1.07487H11.5443C11.6991 1.11502 11.8247 1.13664 11.9065 1.13664C12.4263 1.13664 12.6892 1.32814 12.7505 1.4733C12.7797 1.54125 12.9842 1.86865 13.2207 2.27018C13.2821 2.37519 13.3434 2.48021 13.4047 2.58831Z" fill="#EBE7E3"/>
<path d="M10.1107 1.05028C10.1107 1.05028 9.49445 1.3715 9.09141 1.34679C8.68838 1.32208 8.05753 1.11823 8.04001 1.16765L6.65567 0.636398L6.46875 0.596246C6.46875 0.596246 7.4559 0.237961 8.21525 0.417103C8.97459 0.599334 9.05053 0.985417 10.1107 1.05028Z" fill="#BBB8B5"/>
<path d="M2.91992 3.14135C2.91992 3.14135 5.39656 0.0835741 7.21899 0.908247C9.04142 1.73292 10.3586 3.23092 11.5619 2.48038C11.5619 2.48038 11.0216 2.91588 9.84749 2.26108C8.67343 1.60628 7.74177 0.726016 6.61735 0.559228C5.49586 0.39244 3.65298 1.94913 2.91992 3.14135Z" fill="#CCC9C6"/>
<path d="M13.04 4.12955V4.32414L11.8279 3.77744L11.1445 2.88173C11.3577 2.7273 11.4833 2.54816 11.5563 2.48329C11.5739 2.46785 11.5943 2.44932 11.6177 2.43079C12.9845 1.85938 13.04 4.09558 13.04 4.12955Z" fill="#DEDBD7"/>
<path d="M13.7672 5.71725C12.9553 4.14203 10.0493 3.77757 9.14688 3.37913C8.48975 3.08879 8.15681 2.67491 8.02246 2.47106C8.44594 2.53283 8.86942 2.70889 9.32211 2.90965C9.97632 3.19999 10.4465 3.18763 10.7853 3.07026C10.9255 3.02084 11.0452 2.95289 11.1445 2.88185C11.3577 2.72742 11.4833 2.54828 11.5563 2.48342C11.5739 2.46797 11.5943 2.44944 11.6177 2.43091C12.2573 3.03011 12.7129 3.62004 13.0341 4.12967C13.6241 5.05318 13.7672 5.71725 13.7672 5.71725Z" fill="#BCBAB7"/>
<path d="M10.4464 30.7167C10.4464 30.7167 10.7998 29.6419 10.5545 27.8103C10.5545 27.8103 10.0522 25.2529 8.64736 23.9556C7.24257 22.6584 8.33778 22.7634 8.40787 22.8159C8.40787 22.8159 8.09538 22.6646 7.84421 22.9086C7.59304 23.1526 6.14152 20.8824 5.17773 17.3088V17.9575L5.27411 17.7629C5.27411 17.7629 6.1386 20.7743 6.97972 22.121C6.97972 22.121 7.86173 23.9217 7.96687 24.2985C7.96687 24.2985 7.43241 22.7634 7.04689 22.1519C7.04689 22.1519 7.87049 23.3317 8.33194 23.8352C8.79631 24.3386 11.1182 26.7015 10.4464 30.7167Z" fill="#E1DEDA"/>
<path d="M11.4892 33.268C11.2235 33.4286 11.0307 33.4626 11.0307 33.4626C10.9928 33.4811 10.9548 33.4996 10.9197 33.5182C10.6423 33.651 10.3736 33.7498 10.1137 33.8239C9.73983 33.929 9.38937 33.9815 9.06226 33.9969C8.96588 34 8.87243 34.0031 8.78189 34C8.741 34 8.70011 33.9969 8.65923 33.9969C8.61542 33.9938 8.57161 33.9938 8.53072 33.9907C8.37301 33.9784 8.22114 33.9598 8.08095 33.9351C8.00502 33.9228 7.93201 33.9073 7.86191 33.8919C7.76845 33.8703 7.68084 33.8487 7.59906 33.8239C7.09381 33.6757 6.79883 33.4873 6.79883 33.4873C6.79883 33.4873 6.81635 33.4811 6.84848 33.4687C6.90981 33.444 7.02079 33.4008 7.1639 33.3514C7.25152 33.3205 7.35081 33.2834 7.45595 33.2495C7.63411 33.1908 7.82979 33.129 8.01962 33.0796C8.11308 33.0549 8.20362 33.0332 8.29123 33.0147C8.48691 32.9746 8.66507 32.9529 8.79065 32.9684C8.91331 32.9807 9.05642 33.0332 9.21121 33.095C9.4653 33.1939 9.75444 33.3236 10.0757 33.373C10.2918 33.407 10.5196 33.4039 10.7562 33.3328C10.8234 33.3112 10.8935 33.2865 10.9635 33.2525C11.0453 33.2124 11.13 33.1661 11.2147 33.1074L11.4805 33.1692L11.4892 33.268Z" fill="#CCC9C6"/>
<path d="M12.695 31.5322C12.3883 32.5484 11.8656 33.0395 11.4888 33.2681C11.223 33.4287 11.0303 33.4626 11.0303 33.4626C11.0303 33.4626 11.1062 33.3206 11.2143 33.0951C11.2668 32.987 11.3252 32.8604 11.3866 32.7214C11.3866 32.7214 11.7429 33.2495 12.695 31.5322Z" fill="#CCC9C6"/>
<path d="M10.478 27.8104C10.478 27.8104 10.11 28.9964 9.28644 29.8026C9.28644 29.8026 9.28644 27.8351 8.64684 26.1549C8.64684 26.1549 8.15619 25.0244 8.09485 24.9472C8.03352 24.87 7.06974 23.27 6.88574 23.0229C6.88574 23.0229 7.04345 23.5079 7.07266 23.5542C7.10478 23.6005 8.0306 25.0954 8.05397 25.1541C8.08025 25.2128 8.21752 25.8614 8.21752 25.8614L8.53002 26.2444C8.53002 26.2444 9.38282 28.3293 9.22511 30.4543C9.22511 30.4543 8.69941 32.0326 9.1813 32.1499C9.6632 32.2642 10.0137 32.2426 10.3378 31.4025L10.5102 31.2326L10.5481 30.9917L10.4459 30.7817L10.443 30.7168C10.443 30.7168 10.5102 30.4296 10.5131 30.3647C10.516 30.3029 10.5803 29.7099 10.5803 29.7099L10.6036 29.2528C10.6036 29.2559 10.5861 27.9648 10.478 27.8104Z" fill="#E1DEDA"/>
<path d="M5.35254 19.2825C5.35254 19.2825 5.60955 20.9102 5.72929 21.1079V20.7249C5.72929 20.728 5.45476 19.5357 5.35254 19.2825Z" fill="#CECBC8"/>
<path d="M7.94674 29.1787C7.94674 29.1787 7.76858 25.7812 6.98003 24.0145C6.1944 22.2478 5.50515 20.5676 4.31064 18.7267C3.11321 16.889 1.20024 12.2652 0.911105 10.6591C0.621969 9.05302 0.534352 5.87478 1.68797 3.44092C1.68797 3.44092 0.461338 7.32028 1.06297 10.4089C1.66169 13.4976 5.13424 19.7398 5.56648 20.4162C5.99872 21.0895 8.03143 24.4716 7.94674 29.1787Z" fill="#E1DEDA"/>
<path d="M7.81839 21.2716C7.81839 21.2716 7.91769 21.0925 7.96734 21.1388C8.01699 21.1851 7.98487 21.2963 8.09001 21.3983C8.19515 21.5002 8.10753 21.6484 8.01407 21.5805C8.01407 21.5805 8.03452 21.6546 7.99655 21.6917C7.95858 21.7287 7.88849 21.7257 7.80671 21.6577C7.72494 21.5898 7.62856 21.5125 7.59935 21.4909C7.57015 21.4724 7.62272 21.3396 7.69573 21.3303C7.69573 21.3303 7.48837 21.1697 7.40367 20.9566C7.31898 20.7435 7.36571 20.7188 7.39491 20.7249C7.4212 20.7342 7.64316 20.8485 7.81839 21.2716Z" fill="#8C1539"/>
<path d="M8.77039 22.5873C8.77039 22.5873 8.45205 22.3093 8.37319 22.1642C8.29726 22.019 8.15999 21.8522 8.03441 21.8491C7.90882 21.846 7.94679 22.053 8.16291 22.1827C8.37903 22.3124 8.3878 22.3464 8.3878 22.402C8.38488 22.4576 8.49002 22.6213 8.57471 22.6584C8.65941 22.6985 8.8288 22.819 8.85216 22.8776C8.87553 22.9332 9.03032 23.1525 9.27857 23.1309C9.52681 23.1093 9.48885 22.6954 9.43336 22.6275C9.37787 22.5595 9.20847 22.3711 9.19387 22.3124C9.17927 22.2537 9.0274 21.9819 8.9427 21.9263C8.85801 21.8707 8.8142 21.9171 8.76747 21.8399C8.72074 21.7626 8.49294 21.4692 8.36151 21.4785C8.23008 21.4878 8.3177 21.6792 8.45205 21.7626C8.58639 21.846 8.96899 22.0715 9.04492 22.3062C9.04492 22.3062 8.74118 21.9974 8.60976 21.9263C8.47833 21.8553 8.34399 21.8275 8.34107 21.9047C8.33815 21.985 8.32062 22.0314 8.77039 22.5873Z" fill="#8C1539"/>
<path d="M8.25062 22.3711C8.25062 22.3711 7.88555 22.1364 7.72492 22.2383C7.56429 22.3402 7.78041 22.5255 7.91768 22.5008C8.05494 22.4761 7.94688 22.3433 8.26522 22.3773L8.25062 22.3711Z" fill="#8C1539"/>
<path d="M8.76722 21.6792C8.76722 21.6792 8.45472 21.3704 8.50437 21.1789C8.55402 20.9874 8.7789 21.1573 8.79643 21.3055C8.81103 21.4538 8.65916 21.3796 8.7789 21.6947L8.76722 21.6792Z" fill="#8C1539"/>
<path d="M9.43323 23.2361C9.43323 23.2361 9.30472 23.3813 8.98054 23.1712C8.65928 22.9612 8.14234 22.4392 7.89993 22.6122C7.89993 22.6122 8.01384 22.7296 8.01384 22.745C8.01384 22.745 7.79479 22.7604 7.75391 22.8963C7.75391 22.8963 7.92914 23.0353 7.9233 23.057C7.92038 23.0786 7.75391 23.2423 7.88533 23.3133C7.88533 23.3133 7.92038 23.2485 8.00215 23.3133C8.08393 23.3782 8.1365 23.5511 8.33218 23.5511C8.52785 23.5511 8.63592 23.2701 8.36138 23.0631C8.265 23.0014 8.16863 23.0415 8.19199 23.1403C8.19199 23.1403 8.41687 23.1465 8.39059 23.3473C8.36138 23.5481 8.13358 23.3442 8.06641 23.2299C7.99631 23.1156 8.03136 22.7944 8.29713 22.8655C8.5629 22.9365 8.7761 23.2299 8.86664 23.3102C8.95718 23.3967 9.39234 23.6067 9.43323 23.2361Z" fill="#8C1539"/>
<path d="M9.573 23.0723C9.573 23.0723 9.71903 22.9487 9.54963 22.5904C9.37732 22.2352 8.92463 21.6515 9.10863 21.4075C9.10863 21.4075 9.21085 21.5372 9.22545 21.5372C9.22545 21.5372 9.25758 21.3086 9.38608 21.2747C9.38608 21.2747 9.5029 21.4692 9.52335 21.4662C9.54379 21.4631 9.71026 21.3025 9.76867 21.4476C9.76867 21.4476 9.70442 21.4785 9.75991 21.5712C9.8154 21.6638 9.97311 21.7318 9.95851 21.9387C9.94391 22.1457 9.66938 22.2352 9.49706 21.9295C9.44741 21.8214 9.49122 21.7225 9.58468 21.7565C9.58468 21.7565 9.573 21.9943 9.76283 21.982C9.95267 21.9696 9.77744 21.7132 9.67814 21.6299C9.57592 21.5495 9.27218 21.5588 9.31599 21.843C9.36272 22.1271 9.61973 22.3773 9.68982 22.4792C9.75991 22.5812 9.92346 23.0599 9.573 23.0723Z" fill="#8C1539"/>
<path d="M10.745 23.0382C10.745 23.0382 10.4179 22.8529 10.4646 23.2575C10.5113 23.6621 10.9815 23.6591 11.2853 24.1841C11.589 24.7123 11.221 25.1015 11.221 25.1015C11.221 25.1015 11.2853 24.7524 11.0575 24.4559C10.8297 24.1594 10.1024 23.5201 10.0119 23.2513C9.92137 22.9826 9.95641 22.7325 10.1375 22.7016C10.3186 22.6676 10.5931 22.7355 10.745 23.0382Z" fill="#8C1539"/>
<path d="M9.30454 24.6196C9.30454 24.6196 9.09426 24.5146 9.10594 24.0884C9.11762 23.6622 9.51774 23.4985 9.93246 24.1069C10.3443 24.7154 10.1982 25.2127 10.7969 25.4567C10.7969 25.4567 10.7064 25.642 10.4027 25.5648C10.0989 25.4876 9.98503 25.1972 9.85652 24.6691C9.7251 24.1409 9.214 24.1749 9.30454 24.6196Z" fill="#8C1539"/>
<path d="M9.85352 23.5542C9.85352 23.5542 10.239 24.2893 10.2653 24.3851C10.2916 24.4808 10.5895 25.1943 10.8377 25.1819C10.8903 25.1819 11.0948 25.429 11.7198 27.1834C11.7577 27.2729 11.7402 27.3687 11.7285 27.4027C11.7168 27.4366 11.5942 27.7177 12.0877 28.1069C12.0877 28.1069 12.1257 27.6807 12.0877 27.5046C12.0498 27.3285 11.8891 27.3224 11.822 27.0753C11.7577 26.8251 11.2233 25.5371 11.0685 25.3024C10.9137 25.0676 11.048 25.0059 11.0217 24.907C10.9984 24.802 10.7618 24.1658 9.85352 23.5542Z" fill="#8C1539"/>
<path d="M11.556 24.947C11.556 24.947 11.3545 25.364 11.4859 25.7285C11.6203 26.0929 11.7838 26.3616 11.7692 26.4697C11.7692 26.4697 11.959 26.4327 12.035 26.1053C12.1138 25.7779 11.594 25.0737 11.556 24.947Z" fill="#8C1539"/>
<path d="M10.5547 25.707C10.5547 25.707 10.7942 26.2784 10.8584 26.5502C10.9227 26.822 11.2994 26.8375 11.4396 26.683C11.4396 26.683 11.2965 26.3062 11.2615 26.2136C11.2264 26.1209 11.1709 25.7379 10.5547 25.707Z" fill="#8C1539"/>
<path d="M12.4088 26.5964C12.2949 26.5902 11.9854 26.7169 11.9854 26.7169C12.07 26.4852 12.2949 26.3215 12.2949 26.3215C12.2979 26.3246 12.3008 26.3277 12.3037 26.3339C12.3475 26.4018 12.4088 26.5964 12.4088 26.5964Z" fill="#8C1539"/>
<path d="M11.4423 27.0506C11.4423 27.0506 10.6245 27.6683 10.499 28.2613C10.499 28.2613 10.423 28.1193 10.4405 28.0482C10.4405 28.0482 10.2127 28.1965 10.1631 28.1779C10.1631 28.1779 10.2974 27.8814 10.3062 27.8598C10.312 27.8382 10.2186 27.8382 10.2186 27.8382C10.2186 27.8382 10.5982 26.9888 11.4423 27.0506Z" fill="#8C1539"/>
<path d="M11.6971 27.3008C11.6971 27.3008 11.4255 27.3965 11.2386 27.7239C11.0546 28.0513 11.0984 28.2274 11.2269 28.3231C11.2269 28.3231 11.4839 28.1316 11.408 27.8969C11.408 27.8969 11.6971 27.8938 11.7117 27.8845C11.7234 27.8722 11.5219 27.5818 11.6971 27.3008Z" fill="#8C1539"/>
<path d="M11.9854 27.1216C11.9854 27.1216 12.0204 26.9579 12.5315 26.9795C12.5315 26.9795 12.6512 27.344 12.6629 27.4737C12.6629 27.4737 12.5636 27.3347 12.5198 27.3347C12.5198 27.3347 12.4176 27.5664 12.2803 27.5725C12.2803 27.5694 12.3008 27.2019 11.9854 27.1216Z" fill="#8C1539"/>
<path d="M11.7781 27.9431C11.7781 27.9431 11.8481 28.2396 11.7664 28.4033C11.6846 28.5701 11.5327 28.6659 11.3809 28.4929C11.3809 28.4929 11.5064 28.4589 11.5415 28.357C11.5765 28.2551 11.6992 27.9431 11.7781 27.9431Z" fill="#8C1539"/>
<path d="M11.8864 28.0852C11.8864 28.0852 11.9273 28.5701 11.793 28.6782C11.793 28.6782 12.0529 28.7184 12.0967 28.5022C12.1434 28.2829 11.904 28.0852 11.8864 28.0852Z" fill="#8C1539"/>
<path d="M12.2256 28.3818C12.2256 28.3818 12.1614 28.7957 12.2782 28.8266C12.395 28.8575 12.4739 28.6783 12.4038 28.6042C12.3337 28.5301 12.2373 28.4127 12.2256 28.3818Z" fill="#8C1539"/>
<path d="M12.6983 28.2922C12.6983 28.2922 12.5873 28.4652 12.5231 28.4775C12.4618 28.4899 12.2252 28.4374 12.2836 28.0173C12.2836 28.0173 12.5202 28.2613 12.5815 28.2799C12.6399 28.2953 12.6983 28.2922 12.6983 28.2922Z" fill="#8C1539"/>
<path d="M12.804 27.9678C12.7982 27.977 12.7923 27.9894 12.7836 28.0017C12.6609 28.2025 12.4681 28.0604 12.4302 27.9801C12.3922 27.8998 12.2725 27.7268 12.2725 27.7268C12.2725 27.7268 12.3542 27.6002 12.5265 27.7577C12.62 27.8442 12.7251 27.8504 12.7806 27.8689C12.7894 27.9029 12.7982 27.9338 12.804 27.9678Z" fill="#8C1539"/>
<path d="M8.94824 24.7617C8.94824 24.7617 9.40969 25.188 9.05922 25.6883C9.05922 25.6883 9.40385 25.6605 9.39217 25.2744C9.37756 24.8914 8.94824 24.7617 8.94824 24.7617Z" fill="#8C1539"/>
<path d="M8.58911 25.4043C8.58911 25.4043 8.56866 25.7935 8.82859 25.7225C9.0856 25.6483 9.17614 25.219 8.86364 24.9009C8.55114 24.5828 8.23864 24.87 8.2182 24.9688C8.2182 24.9688 8.0196 24.802 8.01376 24.7557C8.01376 24.7557 7.80056 24.87 8.05464 25.3456C8.05464 25.3456 7.80348 25.3426 7.78595 25.2839C7.78595 25.2839 7.63993 25.5526 8.09553 25.8769C8.09553 25.8769 7.9203 25.9788 7.89986 25.985C7.89986 25.985 8.02544 26.3464 8.43432 26.3155C8.8432 26.2846 9.255 26.0004 9.6814 26.0962C10.1078 26.1919 10.4057 26.6614 10.21 27.2699C10.1808 27.3317 10.2159 27.4181 10.2334 27.4274C10.2334 27.4274 10.3911 27.1587 10.3882 26.8714C10.3853 26.5842 10.356 26.2784 9.86247 25.9943C9.3689 25.707 8.70009 26.1765 8.30581 25.707C7.91154 25.2375 8.61539 24.6878 8.82567 25.1943C8.86656 25.2993 8.84904 25.6483 8.58911 25.4043Z" fill="#8C1539"/>
<path d="M10.1666 26.8188C10.1666 26.8188 9.32258 26.5656 8.64793 27.3007C8.64793 27.3007 8.68589 27.0196 8.76475 26.9609C8.76475 26.9609 8.49898 26.9485 8.48438 26.9578C8.48438 26.9578 8.65669 26.6551 8.87573 26.5995C8.87573 26.5995 8.8144 26.5779 8.76475 26.5872C8.76183 26.5841 9.60003 25.8613 10.1666 26.8188Z" fill="#8C1539"/>
<path d="M7.29491 32.8541C7.29491 32.8541 7.25987 32.1993 6.66699 31.912C6.66699 31.912 6.80134 31.8781 6.90356 31.9337C6.90356 31.9337 6.87727 31.7545 6.83931 31.7236C6.83931 31.7236 7.05251 31.8039 7.14012 31.9275C7.14012 31.9275 7.15473 31.8657 7.13136 31.8379C7.13136 31.8379 7.77681 32.2672 7.29491 32.8541Z" fill="#8C1539"/>
<path d="M7.80027 31.3839C7.80027 31.3839 7.59583 31.424 7.65424 31.5939C7.71265 31.7638 8.00178 31.8224 8.14197 31.6865C8.28216 31.5506 8.39314 31.1399 7.95506 30.9823C7.95506 30.9823 7.9901 30.7816 8.02807 30.7816C8.02807 30.7816 7.83531 30.7291 7.69513 31.0009C7.69513 31.0009 7.61627 30.8866 7.64256 30.7754C7.64256 30.7754 7.40307 30.8372 7.35926 31.1769C7.35926 31.1769 7.2512 31.0966 7.2512 31.075C7.2512 31.075 7.01756 31.2943 7.23076 31.5908C7.44396 31.8873 7.72141 32.1807 7.72433 32.3939C7.72725 32.607 7.53157 33.0239 7.18111 33.0178C7.11101 33.0178 7.02632 33.0857 7.09933 33.1444C7.17235 33.2062 7.65424 33.0363 7.80611 32.7738C7.95798 32.5112 7.92293 32.261 7.76522 32.0634C7.60751 31.8657 7.39139 31.5167 7.54326 31.2572C7.69513 30.9978 7.95798 31.0657 8.02515 31.2171C8.09232 31.3684 7.9901 31.5167 7.91417 31.5321C7.83531 31.5568 7.72433 31.495 7.80027 31.3839Z" fill="#8C1539"/>
<path d="M7.46184 33.7683C7.46184 33.7683 6.9449 33.3637 6.5331 33.4471C6.5331 33.4471 6.59735 33.339 6.64992 33.3359C6.64992 33.3359 6.52726 33.2185 6.50098 33.2092C6.50098 33.2092 6.6324 33.1722 6.74922 33.2216C6.74922 33.2216 6.73754 33.1691 6.72002 33.1567C6.72002 33.1567 7.3275 33.2494 7.46184 33.7683Z" fill="#8C1539"/>
<path d="M7.98187 32.7429C7.98187 32.7429 7.72486 33.0116 7.63433 33.0641C7.54671 33.1166 7.389 33.234 7.45033 33.3823C7.51166 33.5305 7.58468 33.583 7.58468 33.583C7.58468 33.583 7.91762 33.2834 7.98479 33.1661C8.05197 33.0487 8.00232 32.78 7.98187 32.7429Z" fill="#8C1539"/>
<path d="M9.8163 32.4402C9.8163 32.4402 9.8163 32.2148 9.69947 32.2518C9.58265 32.2889 9.45415 32.4526 9.42202 32.6194C9.39866 32.7306 9.33148 32.9344 9.20882 33.0827C9.14749 33.1537 9.07739 33.2124 8.98978 33.2433C8.72401 33.3329 8.58382 33.2526 8.53125 33.1908C8.53125 33.1908 8.15742 33.58 7.8566 33.8857C7.76314 33.8641 7.67553 33.8425 7.59375 33.8178C7.73686 33.7097 8.12821 33.4039 8.34433 33.0827C8.34433 33.0827 8.31805 33.0487 8.28884 33.0055C8.24796 32.9468 8.19246 32.8634 8.17786 32.8171C8.15158 32.7337 8.13697 32.5144 8.37062 32.3723C8.60718 32.2333 8.81162 32.0171 8.7795 31.875C8.74737 31.7329 8.56338 31.7422 8.50497 31.8225C8.50497 31.8225 8.59258 31.5136 8.88464 31.526C8.92261 31.5291 8.95765 31.5353 8.98394 31.5476C9.16209 31.6248 9.10368 31.8812 9.05987 31.9461C9.05403 31.9553 9.03943 31.9739 9.0219 31.9955C8.91968 32.1345 8.67436 32.4619 8.70648 32.5761C8.70648 32.5761 8.95181 32.3167 9.1212 32.1252C9.20298 32.0356 9.26431 31.9584 9.28183 31.9306C9.28183 31.9306 9.26139 32.0264 9.22342 32.1592C9.17085 32.3321 9.08908 32.57 8.97517 32.7398C8.98686 32.7275 9.19422 32.5236 9.26139 32.4001C9.28475 32.3538 9.32564 32.2735 9.37529 32.187C9.46875 32.0264 9.59433 31.8503 9.7316 31.8719C9.83382 31.8874 9.90391 31.9615 9.92436 32.0634C9.95356 32.1715 9.92144 32.3074 9.8163 32.4402Z" fill="#8C1539"/>
<path d="M8.96013 33.4286L8.52789 33.9877C8.37018 33.9753 8.21831 33.9568 8.07812 33.9321C8.28256 33.7004 8.62719 33.3947 8.96013 33.4286Z" fill="#8C1539"/>
<path d="M10.8204 33.2186C10.8204 33.2186 10.797 33.2649 10.7561 33.3205C10.689 33.4162 10.5692 33.5521 10.432 33.5768C10.2304 33.6108 9.36304 33.2803 8.78184 34C8.74096 34 8.70007 33.9969 8.65918 33.9969C8.86946 33.7127 9.26666 33.2649 9.67553 33.3328C9.83324 33.3575 9.96467 33.3699 10.0757 33.3668C10.3911 33.3575 10.5517 33.2402 10.6685 32.9993C10.8262 32.675 10.7386 32.536 10.4875 32.6286C10.2363 32.7213 10.2567 33.2186 10.4904 32.9375C10.4875 32.9529 10.4115 33.2834 10.1779 33.129C9.93839 32.9684 10.1224 32.2086 10.6919 32.4526C10.762 32.4773 10.835 32.536 10.9314 32.2642C10.9314 32.2642 11.0599 32.363 10.8408 32.7491C10.8408 32.7491 11.0044 32.6657 11.0248 32.607C11.0248 32.607 11.0949 32.8263 10.7007 33.2216C10.7036 33.2124 10.7737 33.234 10.8204 33.2186Z" fill="#8C1539"/>
<path d="M10.1139 33.8208C9.74007 33.9258 9.3896 33.9783 9.0625 33.9938C9.29614 33.8239 9.73131 33.583 10.1139 33.8208Z" fill="#8C1539"/>
<path d="M9.96727 30.9082C9.96727 30.9082 10.0198 30.8773 10.0812 30.7816C10.1425 30.6858 10.3294 30.5376 10.3937 30.5747C10.3937 30.5747 10.3732 30.7044 10.3849 30.7136C10.3849 30.7136 10.4754 30.6426 10.6069 30.7106C10.6069 30.7106 10.5193 30.8557 10.5426 30.899C10.5426 30.899 10.677 30.9051 10.7003 30.9916C10.7003 30.9916 10.5777 31.0194 10.566 31.1306C10.5572 31.2418 10.4813 31.4518 10.3761 31.4549C10.2739 31.458 10.1922 31.3932 10.1863 31.2542C10.1834 31.1183 10.271 30.8928 10.4024 31.0225C10.4024 31.0225 10.2272 31.1121 10.3294 31.2603C10.4316 31.4055 10.6565 30.9638 10.3732 30.8465C10.087 30.7291 10.0607 31.4209 9.94098 31.5661C9.82124 31.7113 9.70442 31.7113 9.56715 31.631C9.42989 31.5507 9.32767 31.6989 9.17288 31.4889C9.01517 31.2789 9.25757 30.9453 9.20208 30.7322C9.14659 30.5191 8.97428 30.4604 8.88374 30.6025C8.7932 30.7445 8.81657 30.9391 8.89542 30.9175C8.97428 30.8959 9.04437 30.7816 8.97136 30.726C8.97136 30.726 9.02685 30.6364 9.07358 30.7136C9.11739 30.7909 9.06774 31.0997 8.91587 31.1059C8.764 31.1121 8.70851 30.9638 8.73479 30.8094C8.764 30.655 8.83993 30.5901 8.72895 30.5592C8.72895 30.5592 8.71727 30.4048 8.92463 30.4789C8.92463 30.4789 8.92755 30.3368 8.89542 30.3059C8.89542 30.3059 8.97428 30.2473 9.13199 30.411C9.13199 30.411 9.16119 30.3276 9.14367 30.2967C9.14367 30.2967 9.24881 30.2843 9.32183 30.5469C9.39484 30.8094 9.43281 30.8032 9.43281 30.8032C9.43281 30.8032 9.45325 30.482 9.59052 30.4326C9.72778 30.3862 9.56131 30.2195 9.56715 30.1361C9.56715 30.1361 9.69274 30.0866 9.74531 30.1824C9.74531 30.1824 9.73947 29.6635 9.81832 29.543C9.9001 29.4226 9.96435 29.7284 9.94098 29.8921C9.91762 30.0558 9.84168 30.1361 9.93806 30.1392C10.0344 30.1422 10.052 30.2256 10.052 30.2256C10.052 30.2256 9.94098 30.414 9.93806 30.448C9.93514 30.4851 9.95851 30.553 9.98771 30.5685C10.0169 30.5839 10.0724 30.6858 9.94683 30.899L9.96727 30.9082Z" fill="#8C1539"/>
<path d="M2.41527 7.51168C3.0653 7.51168 3.59225 6.95439 3.59225 6.26695C3.59225 5.5795 3.0653 5.02222 2.41527 5.02222C1.76524 5.02222 1.23828 5.5795 1.23828 6.26695C1.23828 6.95439 1.76524 7.51168 2.41527 7.51168Z" fill="#8C1539"/>
<path d="M1.98308 6.77963C1.98308 6.8692 1.95095 6.94642 1.89838 7.0051C1.73483 6.87847 1.61801 6.69315 1.56836 6.47694C1.60341 6.46459 1.63845 6.45532 1.67642 6.45532C1.84581 6.45532 1.98308 6.60049 1.98308 6.77963Z" fill="white"/>
<path d="M2.04745 5.64301C2.04745 5.82215 1.91018 5.96732 1.74079 5.96732C1.69406 5.96732 1.64733 5.95496 1.60645 5.93334C1.67946 5.73258 1.81965 5.56579 1.99488 5.46387C2.02701 5.51637 2.04745 5.57815 2.04745 5.64301Z" fill="white"/>
<path d="M2.93181 5.53184C2.87924 5.62759 2.78287 5.69245 2.66896 5.69245C2.49957 5.69245 2.3623 5.54728 2.3623 5.36814C2.3623 5.36196 2.3623 5.35579 2.3623 5.3527C2.37983 5.3527 2.39443 5.34961 2.41195 5.34961C2.60763 5.34961 2.78871 5.41756 2.93181 5.53184Z" fill="white"/>
<path d="M3.28225 6.26692C3.28225 6.39664 3.25597 6.52019 3.21216 6.63138C3.07781 6.59741 2.97852 6.47077 2.97852 6.31634C2.97852 6.14955 3.09534 6.01365 3.24721 5.99512C3.26765 6.0816 3.28225 6.17426 3.28225 6.26692Z" fill="white"/>
<path d="M2.90933 7.02362C2.76914 7.12864 2.59975 7.18732 2.41575 7.18732C2.38655 7.18732 2.35734 7.18424 2.33105 7.18115C2.33105 7.17806 2.33105 7.17188 2.33105 7.16879C2.33105 6.98965 2.46832 6.84448 2.63771 6.84448C2.75454 6.84448 2.85676 6.91552 2.90933 7.02362Z" fill="white"/>
<path d="M2.6894 6.5541L2.25131 6.62823L2.04688 6.20817L2.3623 5.87769L2.75949 6.0908L2.6894 6.5541Z" fill="white"/>
<path d="M2.65432 8.47792L2.25781 8.05859L1.87576 8.46263L2.27227 8.88196L2.65432 8.47792Z" fill="#8C1539"/>
<path d="M3.29405 4.19764L3.01367 3.68408L2.54577 3.96978L2.82614 4.48334L3.29405 4.19764Z" fill="#8C1539"/>
<path d="M3.48663 19.1468L3.31432 18.841L3.47203 18.7422L3.96268 19.607L3.80497 19.7059L3.63266 19.4001L2.79154 19.9344L2.64551 19.6781L3.48663 19.1468Z" fill="#BCBAB7"/>
<path d="M3.90745 21.0186C4.07684 20.9105 4.27544 20.7901 4.38934 20.7252L4.38642 20.719C4.1703 20.7901 3.7877 20.926 3.41095 21.0372L3.27953 20.8055C3.54238 20.5461 3.85195 20.2372 4.02135 20.0673L4.01551 20.058C3.90453 20.1414 3.69717 20.2804 3.52485 20.3885L3.17146 20.614L3.04004 20.3793L4.03887 19.7461L4.25499 20.126C4.02135 20.3762 3.77894 20.6171 3.65044 20.7376V20.7406C3.80231 20.685 4.15277 20.5831 4.45943 20.4905L4.66971 20.8642L3.67088 21.4974L3.53361 21.2534L3.90745 21.0186Z" fill="#BCBAB7"/>
</g>
<defs>
<clipPath id="clip0_87_1244">
<rect width="15" height="34" fill="white"/>
</clipPath>
</defs>
</svg>
