<svg width="50" height="50" viewBox="0 0 50 50" fill="none" xmlns="http://www.w3.org/2000/svg">
<g id="&#208;&#188;&#208;&#176;&#209;&#130;&#209;&#135;-&#209;&#134;&#208;&#181;&#208;&#189;&#209;&#130;&#209;&#128;">
<rect id="Rectangle" width="50" height="50" rx="5" fill="#5334EA"/>
<path id="Vector" d="M39.9823 14.3765C39.9823 14.3539 39.971 14.3276 39.9635 14.2825H34.5771C34.5771 14.196 34.5771 14.1321 34.5771 14.0719C34.5884 12.8236 34.6034 11.5791 34.611 10.3309C34.6147 10.0338 34.5734 10 34.2729 10H15.6761C15.3756 10 15.3418 10.0263 15.3456 10.3346C15.3531 11.5491 15.3681 12.7673 15.3794 13.9817C15.3794 14.0794 15.3794 14.1772 15.3794 14.29H10.0156C10.0081 14.3426 10.0043 14.3652 10.0043 14.3915C9.99303 15.7714 9.98928 17.1475 10.1884 18.5198C10.5151 20.7569 11.2589 22.8324 12.551 24.6935C14.523 27.5359 17.2349 29.3256 20.5479 30.228C20.7432 30.2806 20.8934 30.3709 21.0362 30.5138C21.8287 31.3146 22.7114 31.9839 23.8045 32.326C23.9284 32.3636 23.9284 32.4426 23.9284 32.5403C23.9284 33.2434 23.9284 33.9427 23.9247 34.6458C23.9247 34.7436 23.9059 34.8451 23.8796 34.9391C23.6768 35.661 23.2223 36.1986 22.6213 36.6198C21.6897 37.274 20.623 37.5823 19.5149 37.7026C18.5834 37.8041 17.6443 37.8116 16.7053 37.8605C16.4724 37.8718 16.4349 37.8981 16.4349 38.135C16.4349 38.635 16.4349 39.1389 16.4349 39.6389C16.4349 39.9848 16.4499 39.9999 16.7917 39.9999H33.2287C33.2662 39.9999 33.3038 39.9999 33.3414 39.9999C33.4954 40.0036 33.5705 39.9322 33.5705 39.7705C33.5667 39.2065 33.5667 38.6426 33.5705 38.0786C33.5705 37.9169 33.4954 37.853 33.3376 37.8567C33.1047 37.8605 32.8756 37.8605 32.6427 37.8567C31.3731 37.8455 30.1148 37.7552 28.8941 37.3792C28.1053 37.1386 27.3728 36.7965 26.7906 36.1949C26.3624 35.7512 26.0657 35.2399 26.0694 34.5932C26.0732 33.9803 26.0732 33.3637 26.0732 32.7509C26.0732 32.3824 26.0732 32.3824 26.4112 32.2583C26.4526 32.2433 26.4939 32.2282 26.5352 32.2132C27.4893 31.8297 28.2705 31.2056 28.9917 30.4837C29.0856 30.3897 29.2209 30.3145 29.3486 30.2694C29.788 30.1227 30.2388 30.0137 30.6745 29.852C35.2007 28.1563 38.1418 24.9905 39.4451 20.3246C39.986 18.377 40.0386 16.3805 39.9823 14.3765ZM13.9971 22.9978C12.7613 20.9938 12.243 18.7868 12.1603 16.4444H15.5184C16.0104 20.1554 16.7466 23.8024 18.5346 27.16C16.6339 26.1937 15.1164 24.8138 13.9971 22.9978ZM20.2586 23.6031C19.9506 23.5919 19.6389 23.6031 19.3309 23.5994C19.0754 23.5956 18.9703 23.4828 18.9665 23.2309C18.9665 22.6293 18.9665 22.0278 18.9665 21.4262C18.9665 20.8246 18.9703 20.223 18.9628 19.6215C18.959 19.4222 19.083 19.238 19.3121 19.2417C19.6501 19.2492 19.9844 19.2342 20.3225 19.238C20.5441 19.2417 20.6605 19.3808 20.6605 19.6177C20.6605 20.0914 20.6605 20.5689 20.6605 21.0427C20.6605 21.7571 20.6568 22.4714 20.6643 23.1896C20.6643 23.4264 20.5554 23.6107 20.2586 23.6031ZM22.8992 23.5994C22.5649 23.6031 22.2306 23.5994 21.9001 23.5994C21.6785 23.5956 21.562 23.4753 21.5583 23.2535C21.5583 22.8399 21.5583 22.4263 21.5583 22.0165C21.5583 21.6142 21.5583 21.2156 21.5583 20.8133C21.5583 20.584 21.6747 20.4599 21.9001 20.4561C22.2419 20.4524 22.5837 20.4524 22.9255 20.4561C23.1246 20.4599 23.2523 20.5877 23.2523 20.7908C23.2523 21.4262 23.2523 22.0616 23.2523 22.7008C23.2523 22.8813 23.2561 23.0617 23.2523 23.2422C23.2523 23.4678 23.1321 23.5956 22.8992 23.5994ZM25.8478 20.6216C25.8478 21.4826 25.8478 22.3436 25.8478 23.2046C25.8478 23.4791 25.7314 23.5956 25.4572 23.5994C25.1492 23.5994 24.8374 23.6031 24.5256 23.5994C24.274 23.5994 24.15 23.4753 24.15 23.2272C24.15 21.4901 24.15 19.7493 24.15 18.0122C24.15 17.7566 24.2777 17.6325 24.5332 17.6287C24.8487 17.625 25.1604 17.6287 25.476 17.6287C25.7164 17.6287 25.8441 17.7603 25.8478 18.001C25.8516 18.8733 25.8478 19.7455 25.8478 20.6216ZM28.4433 23.2272C28.4433 23.4753 28.3231 23.5994 28.079 23.5994C27.7484 23.5994 27.4216 23.5919 27.0911 23.5994C26.877 23.6031 26.7493 23.4302 26.7493 23.2497C26.7531 22.0315 26.7493 20.8133 26.7493 19.5951C26.7493 19.3771 26.8582 19.253 27.0723 19.2455C27.4141 19.2342 27.7522 19.2342 28.094 19.238C28.3231 19.2417 28.4396 19.3771 28.4396 19.6064C28.4396 20.2155 28.4396 20.8246 28.4396 21.4337V23.2272H28.4433ZM28.7701 18.4709C28.7739 18.2717 28.9391 18.1025 29.1457 18.095C29.2509 18.0912 29.3561 18.095 29.4612 18.095C29.4688 18.0799 29.4725 18.0686 29.48 18.0574C28.2555 16.8505 27.0273 15.6435 25.799 14.4329C25.6563 14.6434 25.4947 14.8728 25.337 15.1021C24.5181 16.2978 23.6993 17.4896 22.8804 18.6853C22.7377 18.892 22.5123 18.9409 22.2982 18.8056C21.5921 18.3582 20.8859 17.907 20.1798 17.4558C19.9206 17.2904 19.6614 17.1212 19.3985 16.9557C19.1731 16.8129 19.1093 16.5873 19.2407 16.3842C19.3609 16.1887 19.6013 16.1474 19.8154 16.2865C20.6605 16.8241 21.5019 17.3656 22.3471 17.9032C22.3696 17.9182 22.3959 17.9295 22.4259 17.9483C22.595 17.7039 22.764 17.4558 22.9368 17.2076C23.7594 16.0082 24.582 14.8051 25.4083 13.6057C25.5886 13.3425 25.8553 13.3199 26.0845 13.5493C27.3728 14.8427 28.6574 16.1398 29.9458 17.437C29.9721 17.4633 29.9946 17.4971 30.0209 17.5272C30.0322 17.5235 30.0397 17.5197 30.051 17.5159C30.051 17.4144 30.051 17.3167 30.051 17.2152C30.0547 16.9971 30.22 16.8279 30.4341 16.8241C30.652 16.8204 30.8247 16.9858 30.8285 17.2076C30.8322 17.6438 30.8322 18.0799 30.8285 18.5161C30.8285 18.7041 30.6745 18.877 30.4867 18.8808C30.0359 18.8883 29.5852 18.8883 29.1345 18.8808C28.9128 18.8695 28.7664 18.6928 28.7701 18.4709ZM31.0351 23.2272C31.0351 23.4828 30.9111 23.6031 30.6595 23.5994C30.3364 23.5956 30.0172 23.5994 29.6941 23.5956C29.4688 23.5956 29.3411 23.4753 29.3411 23.2497C29.3373 22.4301 29.3373 21.6067 29.3411 20.787C29.3411 20.5765 29.4725 20.4524 29.6829 20.4524C30.0209 20.4486 30.359 20.4486 30.6933 20.4524C30.9111 20.4561 31.0313 20.5765 31.0313 20.7983C31.0313 21.2119 31.0313 21.6217 31.0313 22.0353C31.0351 22.4338 31.0351 22.8286 31.0351 23.2272ZM36.2824 22.509C35.1443 24.5694 33.5179 26.1222 31.4182 27.1825C33.2137 23.825 33.9386 20.1666 34.4344 16.4406H37.8337C37.7624 18.5837 37.3229 20.6216 36.2824 22.509Z" fill="white"/>
</g>
</svg>
