<svg width="23" height="23" viewBox="0 0 23 23" fill="none" xmlns="http://www.w3.org/2000/svg">
<path d="M3.77686 21.9917C3.66116 21.9336 3.52893 21.8838 3.42149 21.8008C3.12397 21.585 3 21.2779 3 20.921C3 20.5475 3 20.1657 3 19.7922C3 14.2397 3 8.6788 3 3.12623C3 2.53694 3.26446 2.16345 3.7686 2.03065C4.33058 1.88126 4.91736 2.29625 4.97521 2.87724C4.98347 3.00173 4.99174 3.12623 4.99174 3.25073C4.99174 9.08549 4.99174 14.9203 5 20.755C5 21.3692 4.80165 21.8008 4.19835 22C4.05785 21.9917 3.91736 21.9917 3.77686 21.9917Z" fill="#787878"/>
<g clip-path="url(#clip0_1_21461)">
<path d="M7.13774 8.85606C7.05736 8.8852 6.97744 8.91323 6.89707 8.94237C6.86243 8.95533 6.82824 8.96719 6.79301 8.97861C6.78146 8.98293 6.77037 8.98615 6.75987 8.9909C6.73423 8.99979 6.70963 9.00911 6.68445 9.01689C6.63571 9.03443 6.58638 9.05042 6.5366 9.06753C6.48278 9.08556 6.43045 9.10292 6.37707 9.11984C6.35339 9.12695 6.32925 9.13516 6.3066 9.1427C6.28292 9.1498 6.26028 9.15734 6.23659 9.16444C6.18172 9.18205 6.12625 9.19812 6.07078 9.21419C6.05264 9.21969 6.0345 9.22518 6.01576 9.22915C5.98803 9.23718 5.9618 9.24454 5.93452 9.25147C5.91937 9.25561 5.90423 9.25975 5.88909 9.26389C5.86331 9.27014 5.83858 9.27682 5.81234 9.28418C5.79211 9.28882 5.77292 9.29389 5.75269 9.29853C5.73395 9.30249 5.71627 9.30689 5.69708 9.31196C5.69303 9.31289 5.68899 9.31381 5.68494 9.31474C5.66725 9.31913 5.64852 9.3231 5.63083 9.32749C5.61464 9.3312 5.59846 9.33492 5.58272 9.33752C5.57208 9.33963 5.55994 9.34242 5.5493 9.34452C5.54525 9.34545 5.53971 9.34706 5.53566 9.34799L5.54923 11.799C5.55988 11.7969 5.56947 11.7943 5.58011 11.7922C5.5882 11.7904 5.59734 11.789 5.60544 11.7871C5.61862 11.7847 5.63076 11.782 5.64395 11.7796C5.65459 11.7775 5.66569 11.7743 5.67633 11.7722C5.70465 11.7657 5.73298 11.7592 5.76236 11.7531C5.7745 11.7503 5.78559 11.7471 5.79773 11.7443C5.80987 11.7415 5.82351 11.7381 5.83565 11.7353C5.84825 11.7314 5.86143 11.729 5.87403 11.7251C5.89726 11.7191 5.9205 11.7131 5.94373 11.7071C5.96037 11.7023 5.97806 11.6979 5.99424 11.6942C6.01598 11.6889 6.03667 11.6831 6.05885 11.6767C6.0629 11.6758 6.06695 11.6749 6.07099 11.6739C6.09468 11.6668 6.11792 11.6608 6.1416 11.6537C6.16634 11.647 6.19152 11.6393 6.21626 11.6326L6.21776 11.6319C6.24295 11.6241 6.26813 11.6163 6.29332 11.6085C6.31701 11.6014 6.34069 11.5943 6.36438 11.5872C6.39662 11.5772 6.43035 11.5664 6.46304 11.5552C6.50786 11.5413 6.5521 11.5258 6.59738 11.5107C6.62302 11.5018 6.64821 11.494 6.6728 11.4847C6.69544 11.4772 6.71703 11.4692 6.73967 11.4617C6.8181 11.4343 6.89697 11.4059 6.97585 11.3774C7.00149 11.3685 7.02608 11.3592 7.05172 11.3503C7.10195 11.3321 7.15264 11.3128 7.20288 11.2946C7.18127 10.4934 7.15984 9.68585 7.13774 8.85606ZM7.13774 8.85606C7.05736 8.8852 6.97744 8.91323 6.89707 8.94237C6.86243 8.95533 6.82824 8.96719 6.79301 8.97861C6.78146 8.98293 6.77037 8.98615 6.75987 8.9909C6.73423 8.99979 6.70963 9.00911 6.68445 9.01689C6.63571 9.03443 6.58638 9.05042 6.5366 9.06753C6.48278 9.08556 6.43045 9.10292 6.37707 9.11984C6.35339 9.12695 6.32925 9.13516 6.3066 9.1427C6.28292 9.1498 6.26028 9.15734 6.23659 9.16444C6.18172 9.18205 6.12625 9.19812 6.07078 9.21419C6.05264 9.21969 6.0345 9.22518 6.01576 9.22915C5.98803 9.23718 5.9618 9.24454 5.93452 9.25147C5.91937 9.25561 5.90423 9.25975 5.88909 9.26389C5.86331 9.27014 5.83858 9.27682 5.81234 9.28418C5.79211 9.28882 5.77292 9.29389 5.75269 9.29853C5.73395 9.30249 5.71627 9.30689 5.69708 9.31196C5.69303 9.31289 5.68899 9.31381 5.68494 9.31474C5.66725 9.31913 5.64852 9.3231 5.63083 9.32749C5.61464 9.3312 5.59846 9.33492 5.58272 9.33752C5.57208 9.33963 5.55994 9.34242 5.5493 9.34452C5.54525 9.34545 5.53971 9.34706 5.53566 9.34799L5.54923 11.799C5.55988 11.7969 5.56947 11.7943 5.58011 11.7922C5.5882 11.7904 5.59734 11.789 5.60544 11.7871C5.61862 11.7847 5.63076 11.782 5.64395 11.7796C5.65459 11.7775 5.66569 11.7743 5.67633 11.7722C5.70465 11.7657 5.73298 11.7592 5.76236 11.7531C5.7745 11.7503 5.78559 11.7471 5.79773 11.7443C5.80987 11.7415 5.82351 11.7381 5.83565 11.7353C5.84825 11.7314 5.86143 11.729 5.87403 11.7251C5.89726 11.7191 5.9205 11.7131 5.94373 11.7071C5.96037 11.7023 5.97806 11.6979 5.99424 11.6942C6.01598 11.6889 6.03667 11.6831 6.05885 11.6767C6.0629 11.6758 6.06695 11.6749 6.07099 11.6739C6.09468 11.6668 6.11792 11.6608 6.1416 11.6537C6.16634 11.647 6.19152 11.6393 6.21626 11.6326L6.21776 11.6319C6.24295 11.6241 6.26813 11.6163 6.29332 11.6085C6.31701 11.6014 6.34069 11.5943 6.36438 11.5872C6.39662 11.5772 6.43035 11.5664 6.46304 11.5552C6.50786 11.5413 6.5521 11.5258 6.59738 11.5107C6.62302 11.5018 6.64821 11.494 6.6728 11.4847C6.69544 11.4772 6.71703 11.4692 6.73967 11.4617C6.8181 11.4343 6.89697 11.4059 6.97585 11.3774C7.00149 11.3685 7.02608 11.3592 7.05172 11.3503C7.10195 11.3321 7.15264 11.3128 7.20288 11.2946C7.18127 10.4934 7.15984 9.68585 7.13774 8.85606ZM18.7005 11.0948C18.6788 10.282 18.6573 9.47445 18.6356 8.67065C18.6103 8.66676 18.6009 8.6629 18.5911 8.66279C18.5206 8.66493 18.4496 8.66818 18.3786 8.67143C17.7546 8.70292 17.1443 8.66506 16.5691 8.4102C16.5475 8.40009 16.5266 8.39152 16.5051 8.38141C16.4831 8.37241 16.4626 8.36274 16.4406 8.35374C16.3814 8.3282 16.3222 8.30267 16.2625 8.27824C16.2185 8.26025 16.1761 8.24157 16.1321 8.22357C16.1195 8.21843 16.107 8.21329 16.0944 8.20814C16.0703 8.19829 16.0463 8.18843 16.0216 8.17704C16.0111 8.17276 16.0007 8.16847 15.9912 8.16461C15.9891 8.16376 15.987 8.1629 15.986 8.16247C15.9859 8.15983 15.9857 8.15719 15.9862 8.15608C15.9793 7.86243 15.9724 7.56879 15.9654 7.27515C15.9643 7.21522 15.9626 7.15377 15.9614 7.09384C15.9597 7.03239 15.9584 6.96982 15.9567 6.90837C15.9533 6.75835 15.9489 6.6079 15.9451 6.45899C15.9442 6.41339 15.9433 6.36779 15.9409 6.32286C15.9385 6.23916 15.9367 6.15699 15.9343 6.07329C15.9319 5.98055 15.9281 5.88849 15.9257 5.79575C15.9245 5.74486 15.8658 5.67944 15.8173 5.65444C15.5254 5.50778 15.2305 5.36511 14.9321 5.2313C14.5297 5.04979 14.1065 4.94894 13.6536 4.90572C13.6747 5.72606 13.6956 6.53207 13.7164 7.32905C13.1562 7.30912 12.6145 7.28897 12.064 7.26915C12.0866 8.09784 12.1068 8.90231 12.1284 9.72154C12.3084 9.72672 12.4789 9.72804 12.6495 9.7384C13.0244 9.76004 13.4001 9.78586 13.7751 9.81015C13.7772 9.81101 13.7787 9.81033 13.7808 9.81119C13.8041 10.6143 13.8258 11.4181 13.848 12.2208C13.2904 12.2006 12.7471 12.1811 12.1945 12.1605C12.2027 12.4779 12.2033 12.778 12.2196 13.0755C12.2308 13.2752 12.1683 13.4487 12.074 13.6195C11.9853 13.7822 11.8895 13.9446 11.8239 14.1168C11.7228 14.3818 11.8104 14.5559 12.0767 14.5771C12.684 14.6253 13.2935 14.6473 13.9117 14.6807C13.8906 13.8694 13.8694 13.0671 13.8491 12.26C14.6859 12.3027 15.3892 12.6837 16.1213 13.057C16.0994 12.2209 16.0785 11.4239 16.0572 10.5802C16.888 11.0676 17.7615 11.2119 18.7005 11.0948ZM18.7653 13.5371C17.8298 13.6517 16.9547 13.5055 16.1275 13.0299C16.1265 13.116 16.1256 13.157 16.1262 13.1973C16.142 13.8126 16.1839 14.4269 16.1665 15.0427C16.1563 15.3901 16.2722 15.5487 16.5695 15.6795C17.2899 15.9977 18.0385 16.065 18.8307 15.9899C18.8088 15.1744 18.7874 14.3669 18.7653 13.5371ZM7.13774 8.85606C7.05736 8.8852 6.97744 8.91323 6.89707 8.94237C6.86243 8.95533 6.82824 8.96719 6.79301 8.97861C6.78146 8.98293 6.77037 8.98615 6.75987 8.9909C6.73423 8.99979 6.70963 9.00911 6.68445 9.01689C6.63571 9.03443 6.58638 9.05042 6.5366 9.06753C6.48278 9.08556 6.43045 9.10292 6.37707 9.11984C6.35339 9.12695 6.32925 9.13516 6.3066 9.1427C6.28292 9.1498 6.26028 9.15734 6.23659 9.16444C6.18172 9.18205 6.12625 9.19812 6.07078 9.21419C6.05264 9.21969 6.0345 9.22518 6.01576 9.22915C5.98803 9.23718 5.9618 9.24454 5.93452 9.25147C5.91937 9.25561 5.90423 9.25975 5.88909 9.26389C5.86331 9.27014 5.83858 9.27682 5.81234 9.28418C5.79211 9.28882 5.77292 9.29389 5.75269 9.29853C5.73395 9.30249 5.71627 9.30689 5.69708 9.31196C5.69303 9.31289 5.68899 9.31381 5.68494 9.31474C5.66725 9.31913 5.64852 9.3231 5.63083 9.32749C5.61464 9.3312 5.59846 9.33492 5.58272 9.33752C5.57208 9.33963 5.55994 9.34242 5.5493 9.34452C5.54525 9.34545 5.53971 9.34706 5.53566 9.34799L5.54923 11.799C5.55988 11.7969 5.56947 11.7943 5.58011 11.7922C5.5882 11.7904 5.59734 11.789 5.60544 11.7871C5.61862 11.7847 5.63076 11.782 5.64395 11.7796C5.65459 11.7775 5.66569 11.7743 5.67633 11.7722C5.70465 11.7657 5.73298 11.7592 5.76236 11.7531C5.7745 11.7503 5.78559 11.7471 5.79773 11.7443C5.80987 11.7415 5.82351 11.7381 5.83565 11.7353C5.84825 11.7314 5.86143 11.729 5.87403 11.7251C5.89726 11.7191 5.9205 11.7131 5.94373 11.7071C5.96037 11.7023 5.97806 11.6979 5.99424 11.6942C6.01598 11.6889 6.03667 11.6831 6.05885 11.6767C6.0629 11.6758 6.06695 11.6749 6.07099 11.6739C6.09468 11.6668 6.11792 11.6608 6.1416 11.6537C6.16634 11.647 6.19152 11.6393 6.21626 11.6326L6.21776 11.6319C6.24295 11.6241 6.26813 11.6163 6.29332 11.6085C6.31701 11.6014 6.34069 11.5943 6.36438 11.5872C6.39662 11.5772 6.43035 11.5664 6.46304 11.5552C6.50786 11.5413 6.5521 11.5258 6.59738 11.5107C6.62302 11.5018 6.64821 11.494 6.6728 11.4847C6.69544 11.4772 6.71703 11.4692 6.73967 11.4617C6.8181 11.4343 6.89697 11.4059 6.97585 11.3774C7.00149 11.3685 7.02608 11.3592 7.05172 11.3503C7.10195 11.3321 7.15264 11.3128 7.20288 11.2946C7.18127 10.4934 7.15984 9.68585 7.13774 8.85606ZM7.13774 8.85606C7.05736 8.8852 6.97744 8.91323 6.89707 8.94237C6.86243 8.95533 6.82824 8.96719 6.79301 8.97861C6.78146 8.98293 6.77037 8.98615 6.75987 8.9909C6.73423 8.99979 6.70963 9.00911 6.68445 9.01689C6.63571 9.03443 6.58638 9.05042 6.5366 9.06753C6.48278 9.08556 6.43045 9.10292 6.37707 9.11984C6.35339 9.12695 6.32925 9.13516 6.3066 9.1427C6.28292 9.1498 6.26028 9.15734 6.23659 9.16444C6.18172 9.18205 6.12625 9.19812 6.07078 9.21419C6.05264 9.21969 6.0345 9.22518 6.01576 9.22915C5.98803 9.23718 5.9618 9.24454 5.93452 9.25147C5.91937 9.25561 5.90423 9.25975 5.88909 9.26389C5.86331 9.27014 5.83858 9.27682 5.81234 9.28418C5.79211 9.28882 5.77292 9.29389 5.75269 9.29853C5.73395 9.30249 5.71627 9.30689 5.69708 9.31196C5.69303 9.31289 5.68899 9.31381 5.68494 9.31474C5.66725 9.31913 5.64852 9.3231 5.63083 9.32749C5.61464 9.3312 5.59846 9.33492 5.58272 9.33752C5.57208 9.33963 5.55994 9.34242 5.5493 9.34452C5.54525 9.34545 5.53971 9.34706 5.53566 9.34799L5.54923 11.799C5.55988 11.7969 5.56947 11.7943 5.58011 11.7922C5.5882 11.7904 5.59734 11.789 5.60544 11.7871C5.61862 11.7847 5.63076 11.782 5.64395 11.7796C5.65459 11.7775 5.66569 11.7743 5.67633 11.7722C5.70465 11.7657 5.73298 11.7592 5.76236 11.7531C5.7745 11.7503 5.78559 11.7471 5.79773 11.7443C5.80987 11.7415 5.82351 11.7381 5.83565 11.7353C5.84825 11.7314 5.86143 11.729 5.87403 11.7251C5.89726 11.7191 5.9205 11.7131 5.94373 11.7071C5.96037 11.7023 5.97806 11.6979 5.99424 11.6942C6.01598 11.6889 6.03667 11.6831 6.05885 11.6767C6.0629 11.6758 6.06695 11.6749 6.07099 11.6739C6.09468 11.6668 6.11792 11.6608 6.1416 11.6537C6.16634 11.647 6.19152 11.6393 6.21626 11.6326L6.21776 11.6319C6.24295 11.6241 6.26813 11.6163 6.29332 11.6085C6.31701 11.6014 6.34069 11.5943 6.36438 11.5872C6.39662 11.5772 6.43035 11.5664 6.46304 11.5552C6.50786 11.5413 6.5521 11.5258 6.59738 11.5107C6.62302 11.5018 6.64821 11.494 6.6728 11.4847C6.69544 11.4772 6.71703 11.4692 6.73967 11.4617C6.8181 11.4343 6.89697 11.4059 6.97585 11.3774C7.00149 11.3685 7.02608 11.3592 7.05172 11.3503C7.10195 11.3321 7.15264 11.3128 7.20288 11.2946C7.18127 10.4934 7.15984 9.68585 7.13774 8.85606ZM7.13774 8.85606C7.05736 8.8852 6.97744 8.91323 6.89707 8.94237C6.86243 8.95533 6.82824 8.96719 6.79301 8.97861C6.78146 8.98293 6.77037 8.98615 6.75987 8.9909C6.73423 8.99979 6.70963 9.00911 6.68445 9.01689C6.63571 9.03443 6.58638 9.05042 6.5366 9.06753C6.48278 9.08556 6.43045 9.10292 6.37707 9.11984C6.35339 9.12695 6.32925 9.13516 6.3066 9.1427C6.28292 9.1498 6.26028 9.15734 6.23659 9.16444C6.18172 9.18205 6.12625 9.19812 6.07078 9.21419C6.05264 9.21969 6.0345 9.22518 6.01576 9.22915C5.98803 9.23718 5.9618 9.24454 5.93452 9.25147C5.91937 9.25561 5.90423 9.25975 5.88909 9.26389C5.86331 9.27014 5.83858 9.27682 5.81234 9.28418C5.79211 9.28882 5.77292 9.29389 5.75269 9.29853C5.73395 9.30249 5.71627 9.30689 5.69708 9.31196C5.69303 9.31289 5.68899 9.31381 5.68494 9.31474C5.66725 9.31913 5.64852 9.3231 5.63083 9.32749C5.61464 9.3312 5.59846 9.33492 5.58272 9.33752C5.57208 9.33963 5.55994 9.34242 5.5493 9.34452C5.54525 9.34545 5.53971 9.34706 5.53566 9.34799L5.54923 11.799C5.55988 11.7969 5.56947 11.7943 5.58011 11.7922C5.5882 11.7904 5.59734 11.789 5.60544 11.7871C5.61862 11.7847 5.63076 11.782 5.64395 11.7796C5.65459 11.7775 5.66569 11.7743 5.67633 11.7722C5.70465 11.7657 5.73298 11.7592 5.76236 11.7531C5.7745 11.7503 5.78559 11.7471 5.79773 11.7443C5.80987 11.7415 5.82351 11.7381 5.83565 11.7353C5.84825 11.7314 5.86143 11.729 5.87403 11.7251C5.89726 11.7191 5.9205 11.7131 5.94373 11.7071C5.96037 11.7023 5.97806 11.6979 5.99424 11.6942C6.01598 11.6889 6.03667 11.6831 6.05885 11.6767C6.0629 11.6758 6.06695 11.6749 6.07099 11.6739C6.09468 11.6668 6.11792 11.6608 6.1416 11.6537C6.16634 11.647 6.19152 11.6393 6.21626 11.6326L6.21776 11.6319C6.24295 11.6241 6.26813 11.6163 6.29332 11.6085C6.31701 11.6014 6.34069 11.5943 6.36438 11.5872C6.39662 11.5772 6.43035 11.5664 6.46304 11.5552C6.50786 11.5413 6.5521 11.5258 6.59738 11.5107C6.62302 11.5018 6.64821 11.494 6.6728 11.4847C6.69544 11.4772 6.71703 11.4692 6.73967 11.4617C6.8181 11.4343 6.89697 11.4059 6.97585 11.3774C7.00149 11.3685 7.02608 11.3592 7.05172 11.3503C7.10195 11.3321 7.15264 11.3128 7.20288 11.2946C7.18127 10.4934 7.15984 9.68585 7.13774 8.85606ZM18.7329 6.02335C18.638 6.02842 18.5574 6.03421 18.4776 6.03513C18.1735 6.03735 17.869 6.0497 17.5673 6.03734C16.8792 6.0103 16.2929 5.68109 15.6945 5.39608C15.2538 5.18592 14.8233 4.95669 14.3422 4.84506C13.7351 4.70382 13.1164 4.67157 12.4934 4.66471C12.3853 4.6631 12.2765 4.65995 12.1627 4.65731C12.1512 4.21961 12.1379 3.80441 12.1306 3.38914C12.1247 3.16181 12.0245 3.00058 11.826 2.93612C11.6509 2.87998 11.4646 2.84248 11.2809 2.83448C10.6641 2.80948 10.0556 2.93135 9.44841 3.04726C8.43864 3.2388 7.47716 3.62589 6.50195 3.95695C6.17253 4.06897 5.84359 4.17085 5.50771 4.24791L5.52159 6.86835C6.02213 6.72944 6.51928 6.57493 7.01835 6.42766C7.03649 6.42217 7.05478 6.41931 7.07246 6.41492C7.07396 6.41424 7.07501 6.41467 7.07651 6.41399C7.07637 6.41135 7.07623 6.4087 7.07609 6.40606C7.05351 5.62519 7.03094 4.84431 7.01346 4.06294C7.01226 4.02109 7.05355 3.9501 7.08878 3.93867C7.94887 3.63804 8.80706 3.32112 9.70346 3.17364C9.72728 3.16918 9.75185 3.16889 9.79005 3.16514C9.80904 3.98462 9.82775 4.79881 9.84692 5.61189C9.84692 5.61189 9.84646 5.613 9.84751 5.61343C9.84901 5.61275 9.85156 5.6125 9.85261 5.61293C10.4179 5.50698 10.9837 5.4116 11.5569 5.47435C11.5827 5.47714 11.6078 5.47839 11.6316 5.48296C11.8465 5.52828 11.8526 5.53724 11.8587 5.76721C11.8765 6.46727 11.8953 7.16776 11.9141 7.86825C11.915 7.90482 11.9139 7.94053 11.9136 7.98306C11.2494 7.80811 10.5937 7.95587 9.91879 8.05186C9.94123 8.86887 9.96267 9.67642 9.98336 10.4798C10.3696 10.435 10.7427 10.3744 11.117 10.3558C11.3718 10.3425 11.6285 10.3842 11.8821 10.4156C11.9228 10.4207 11.981 10.5026 11.9826 10.5524C12.0077 11.2942 12.0251 12.0368 12.0441 12.7788C12.0452 12.8089 12.0412 12.8396 12.0417 12.8295C11.7024 12.8224 11.3722 12.7958 11.0434 12.8137C10.7161 12.831 10.3891 12.8923 10.0489 12.9352C10.0271 12.1315 10.0054 11.3277 9.98256 10.4937C9.62449 10.5772 9.27803 10.6383 8.94086 10.7394C8.4001 10.9019 7.86552 11.0941 7.32578 11.266C7.22608 11.2976 7.2009 11.3442 7.20429 11.4464C7.22843 12.2085 7.24806 12.9726 7.26857 13.7436C7.16465 13.7825 7.06073 13.8214 6.95622 13.8588C6.91453 13.874 6.87284 13.8893 6.83056 13.903C6.77478 13.9228 6.71945 13.9415 6.66412 13.9602C6.64148 13.9677 6.61884 13.9753 6.59575 13.9839C6.57056 13.9917 6.54597 14.001 6.52078 14.0088C6.46441 14.0271 6.40699 14.0449 6.34956 14.0628C6.33547 14.0674 6.32033 14.0715 6.30624 14.0761C6.2881 14.0816 6.26846 14.0878 6.25032 14.0933C6.23367 14.0981 6.21703 14.1029 6.20039 14.1077C6.17971 14.1135 6.15752 14.1199 6.13683 14.1256C6.1136 14.1316 6.08991 14.1388 6.06668 14.1448C6.04749 14.1498 6.0283 14.1549 6.00911 14.16C5.98738 14.1653 5.96669 14.171 5.94496 14.1764C5.86866 14.1955 5.79132 14.2143 5.71384 14.2304C5.7032 14.2325 5.69256 14.2346 5.68296 14.2371C5.66978 14.2395 5.65613 14.243 5.6419 14.2449C5.63126 14.247 5.62062 14.2491 5.60998 14.2512C5.59529 14.2542 5.5806 14.2573 5.56592 14.2603C5.56487 14.2599 5.56337 14.2606 5.56292 14.2617L5.56357 14.4183C5.87381 14.3502 6.17987 14.2803 6.48209 14.1959C6.9513 14.0648 7.41153 13.89 7.87218 13.7232C8.89996 13.3503 9.94518 13.0841 11.0219 12.9859C11.2073 12.9687 11.3927 12.9697 11.5885 12.9632C11.6 13.3919 11.6128 13.7965 11.6216 14.202C11.6296 14.5737 11.7454 14.7206 12.1071 14.7627C12.357 14.7913 12.6108 14.7983 12.863 14.8033C13.5533 14.8157 14.2439 14.8425 14.8905 15.0904C15.3217 15.2553 15.7415 15.4569 16.1517 15.67C16.9157 16.0668 17.7209 16.2555 18.5907 16.1851C18.7248 16.174 18.86 16.1661 19.0044 16.1567C18.9124 12.7688 18.8219 9.40092 18.7329 6.02335ZM6.97435 11.3781C6.99999 11.3692 7.02458 11.3599 7.05022 11.351C7.10045 11.3328 7.15114 11.3135 7.20138 11.2952C7.17977 10.4941 7.15879 9.68543 7.13729 8.85717C7.05691 8.88631 6.97699 8.91434 6.89662 8.94348C6.86198 8.95644 6.82779 8.96829 6.79255 8.97972C6.78101 8.98404 6.76991 8.98725 6.75941 8.992C6.73377 9.0009 6.70918 9.01022 6.68399 9.018C6.63526 9.03553 6.58593 9.05153 6.53615 9.06864C6.48232 9.08667 6.42999 9.10402 6.37662 9.12095C6.35293 9.12806 6.32879 9.13627 6.30615 9.1438C6.28246 9.15091 6.25982 9.15844 6.23614 9.16555C6.18126 9.18316 6.12579 9.19922 6.07033 9.21529C6.05219 9.22079 6.03404 9.22629 6.01531 9.23025C5.98758 9.23829 5.96134 9.24565 5.93406 9.25257C5.91892 9.25672 5.90378 9.26086 5.88864 9.265C5.86286 9.27125 5.83813 9.27793 5.81189 9.28528C5.79166 9.28992 5.77247 9.295 5.75224 9.29964C5.7335 9.3036 5.71581 9.30799 5.69663 9.31306C5.69258 9.31399 5.68853 9.31492 5.68449 9.31585C5.6668 9.32024 5.64807 9.32421 5.63038 9.3286C5.61419 9.33231 5.598 9.33603 5.58227 9.33863C5.57163 9.34074 5.55949 9.34352 5.54885 9.34563C5.5448 9.34656 5.53925 9.34817 5.53521 9.34909L5.54878 11.8001C5.55942 11.798 5.56902 11.7955 5.57966 11.7933C5.58775 11.7915 5.59689 11.7901 5.60498 11.7882C5.61817 11.7858 5.63031 11.7831 5.6435 11.7807C5.65414 11.7786 5.66523 11.7754 5.67587 11.7733C5.7042 11.7668 5.73253 11.7603 5.7619 11.7542C5.77404 11.7514 5.78514 11.7482 5.79728 11.7454C5.80942 11.7426 5.82306 11.7392 5.8352 11.7364C5.84779 11.7325 5.86098 11.7301 5.87357 11.7262C5.89681 11.7202 5.92004 11.7142 5.94328 11.7082C5.95992 11.7034 5.9776 11.699 5.99379 11.6953C6.01553 11.69 6.03621 11.6843 6.0584 11.6778C6.06245 11.6769 6.06649 11.676 6.07054 11.675C6.09423 11.6679 6.11746 11.6619 6.14115 11.6548C6.16588 11.6482 6.19107 11.6404 6.2158 11.6337L6.2173 11.633C6.24249 11.6252 6.26768 11.6174 6.29287 11.6097C6.31655 11.6026 6.34024 11.5954 6.36393 11.5883C6.39616 11.5783 6.4299 11.5675 6.46258 11.5563C6.50741 11.5424 6.55164 11.5269 6.59693 11.5118C6.62257 11.5029 6.64775 11.4951 6.67235 11.4858C6.69499 11.4783 6.71658 11.4703 6.73922 11.4628C6.81764 11.4354 6.89606 11.4081 6.97435 11.3781Z" fill="#EE0000"/>
<path d="M7.07515 6.41438C7.07359 6.41503 7.07248 6.41458 7.07092 6.41523C7.07072 6.41256 7.07051 6.40989 7.07031 6.40723L7.07515 6.41438Z" fill="white"/>
<path d="M9.85489 5.61025C9.85489 5.61025 9.85443 5.61135 9.85554 5.61181C9.85398 5.61246 9.85131 5.61266 9.8502 5.61221L9.85489 5.61025Z" fill="white"/>
<path d="M12.0404 12.8305C11.7011 12.8235 11.3709 12.7969 11.0422 12.8148C10.7149 12.8321 10.3879 12.8934 10.0476 12.9363C10.0259 12.1325 10.0041 11.3287 9.98128 10.4948C9.62321 10.5783 9.27675 10.6393 8.93958 10.7404C8.39882 10.903 7.86424 11.0951 7.3245 11.2671C7.2248 11.2987 7.19962 11.3452 7.20301 11.4474C7.22715 12.2096 7.24678 12.9737 7.26729 13.7447C7.16337 13.7836 7.05945 13.8225 6.95494 13.8598C6.91325 13.8751 6.87156 13.8903 6.82928 13.9041C6.7735 13.9239 6.71817 13.9426 6.66284 13.9613C6.6402 13.9688 6.61756 13.9764 6.59447 13.985C6.56928 13.9928 6.54469 14.0021 6.5195 14.0099C6.46313 14.0282 6.40571 14.046 6.34828 14.0639C6.33419 14.0685 6.31905 14.0726 6.30496 14.0772C6.28682 14.0827 6.26718 14.0888 6.24904 14.0943C6.2324 14.0992 6.21575 14.104 6.19911 14.1088C6.17843 14.1146 6.15624 14.121 6.13555 14.1267C6.11232 14.1327 6.08863 14.1398 6.0654 14.1458C6.04621 14.1509 6.02702 14.156 6.00783 14.161C5.9861 14.1664 5.96541 14.1721 5.94368 14.1774C5.86738 14.1966 5.79004 14.2154 5.71256 14.2315C5.70192 14.2336 5.69128 14.2357 5.68168 14.2382C5.6685 14.2406 5.65486 14.244 5.64062 14.246C5.62998 14.2481 5.61934 14.2502 5.6087 14.2523C5.59401 14.2553 5.57933 14.2584 5.56464 14.2614C5.56359 14.261 5.56209 14.2616 5.56209 14.2616L5.549 11.8005C5.55964 11.7984 5.56924 11.7959 5.57988 11.7938C5.58797 11.7919 5.59711 11.7905 5.6052 11.7886C5.61839 11.7863 5.63053 11.7835 5.64372 11.7811C5.65436 11.779 5.66545 11.7758 5.67609 11.7737C5.70442 11.7672 5.73275 11.7607 5.76212 11.7546C5.77426 11.7518 5.78536 11.7486 5.7975 11.7458C5.80964 11.743 5.82328 11.7396 5.83542 11.7368C5.84801 11.7329 5.8612 11.7305 5.87379 11.7267C5.89703 11.7207 5.92026 11.7147 5.9435 11.7087C5.96014 11.7038 5.97782 11.6994 5.99401 11.6957C6.01575 11.6904 6.03643 11.6847 6.05862 11.6782C6.06267 11.6773 6.06671 11.6764 6.07076 11.6754C6.09445 11.6683 6.11768 11.6623 6.14137 11.6552C6.1661 11.6486 6.19129 11.6408 6.21602 11.6341L6.21752 11.6334C6.24271 11.6256 6.2679 11.6178 6.29309 11.6101C6.31677 11.603 6.34046 11.5959 6.36415 11.5887C6.39638 11.5787 6.43012 11.5679 6.4628 11.5568C6.50763 11.5428 6.55187 11.5273 6.59715 11.5122C6.62279 11.5033 6.64797 11.4955 6.67257 11.4862C6.69521 11.4787 6.7168 11.4707 6.73944 11.4632C6.81786 11.4358 6.89674 11.4074 6.97561 11.3789C7.00125 11.37 7.02585 11.3607 7.05149 11.3518C7.10172 11.3336 7.15241 11.3143 7.20264 11.2961C7.18104 10.4949 7.16006 9.68626 7.13855 8.858C7.05818 8.88714 6.97826 8.91517 6.89788 8.94431C6.86324 8.95727 6.82905 8.96913 6.79382 8.98056C6.78227 8.98488 6.77118 8.98809 6.76068 8.99284C6.73504 9.00173 6.71045 9.01105 6.68526 9.01884C6.63653 9.03637 6.5872 9.05237 6.53742 9.06947C6.48359 9.0875 6.43126 9.10486 6.37789 9.12179C6.3542 9.12889 6.33006 9.1371 6.30742 9.14464C6.28373 9.15175 6.26109 9.15928 6.2374 9.16639C6.18253 9.18399 6.12706 9.20006 6.07159 9.21613C6.05345 9.22163 6.03531 9.22713 6.01658 9.23109C5.98884 9.23913 5.96261 9.24648 5.93533 9.25341C5.92019 9.25755 5.90505 9.26169 5.88991 9.26584C5.86413 9.27208 5.83939 9.27876 5.81316 9.28612C5.79292 9.29076 5.77374 9.29583 5.7535 9.30047C5.73477 9.30444 5.71708 9.30883 5.69789 9.3139C5.69385 9.31483 5.6898 9.31576 5.68575 9.31668C5.66807 9.32108 5.64933 9.32504 5.63164 9.32943C5.61546 9.33315 5.59927 9.33686 5.58354 9.33947C5.5729 9.34157 5.56076 9.34436 5.55011 9.34647C5.54607 9.34739 5.54052 9.349 5.53647 9.34993L5.52076 6.86833C6.0213 6.72942 6.51845 6.57491 7.01753 6.42764C7.03567 6.42214 7.05395 6.41929 7.07164 6.41489C7.09366 7.22398 7.11523 8.03417 7.13733 8.86397C8.06265 8.53833 8.96568 8.20745 9.91629 8.05891C9.9084 7.74676 9.89915 7.43794 9.89108 7.13219C9.88874 7.03042 9.88536 6.92822 9.88257 6.82755C9.87801 6.67446 9.8745 6.5218 9.86949 6.36982C9.86553 6.21826 9.86157 6.06671 9.85716 5.91626C9.85436 5.8156 9.85202 5.71382 9.84923 5.61316C10.4171 5.50696 10.9829 5.41158 11.5561 5.47433C11.5819 5.47712 11.607 5.47837 11.6308 5.48294C11.8457 5.52826 11.8518 5.53722 11.8579 5.76719C11.8757 6.46725 11.8945 7.16774 11.9133 7.86823C11.9142 7.9048 11.913 7.94051 11.9127 7.98304C11.2486 7.80809 10.5928 7.95585 9.91796 8.05183C9.94041 8.86885 9.96184 9.6764 9.98254 10.4798C10.3688 10.435 10.7419 10.3744 11.1162 10.3558C11.371 10.3424 11.6277 10.3842 11.8813 10.4156C11.922 10.4206 11.9801 10.5026 11.9818 10.5524C12.0069 11.2942 12.0243 12.0368 12.0433 12.7787C12.0435 12.8111 12.0399 12.8407 12.0404 12.8305Z" fill="#F2C94C"/>
<path d="M15.9862 8.16237C16.181 8.24472 16.3768 8.32486 16.5692 8.4101C17.1444 8.66497 17.7558 8.70325 18.3788 8.67133C18.4498 8.66808 18.5208 8.66483 18.5913 8.66269C18.601 8.6628 18.6109 8.66555 18.6358 8.67055C18.6575 9.47435 18.6789 10.2819 18.7006 11.0947C17.7617 11.2119 16.8882 11.0675 16.0579 10.5816C16.0803 11.4257 16.1012 12.2227 16.122 13.0585C15.39 12.6851 14.6862 12.3053 13.8498 12.2614C13.8702 13.0686 13.8913 13.8708 13.9125 14.6821C13.2942 14.6488 12.6843 14.6279 12.077 14.5796C11.8107 14.5585 11.7241 14.3847 11.8242 14.1194C11.8898 13.9472 11.9846 13.7844 12.0743 13.622C12.1676 13.4508 12.2311 13.2778 12.2199 13.078C12.2036 12.7805 12.203 12.4804 12.1948 12.163C12.7478 12.1826 13.2907 12.2032 13.8483 12.2233C13.827 11.4184 13.8053 10.6146 13.782 9.81152L13.7765 9.81312C13.7912 9.81009 13.8077 9.80262 13.8216 9.80445C14.3868 9.87169 14.9236 10.0294 15.4262 10.2946C15.6253 10.3994 15.829 10.4931 16.0592 10.6054C16.0368 9.77033 16.0149 8.96388 15.9931 8.15744L15.9862 8.16237Z" fill="#F2C94C"/>
<path d="M13.7848 9.81146C13.4072 9.78742 13.0305 9.76117 12.653 9.73978C12.4835 9.72985 12.3119 9.7281 12.1319 9.72292C12.1104 8.90369 12.0891 8.09879 12.0676 7.27053C12.6191 7.29078 13.1613 7.30982 13.72 7.33043C13.6991 6.53345 13.6787 5.72633 13.6572 4.9071C14.1105 4.94921 14.5337 5.05006 14.9344 5.22961C15.2329 5.36342 15.5277 5.50608 15.8197 5.65275C15.8681 5.67775 15.9258 5.74274 15.927 5.79363C15.9521 6.58328 15.969 7.37216 15.9879 8.16188L15.9933 8.15763C15.5691 7.96073 15.1525 7.74235 14.7161 7.57533C14.4066 7.45642 14.0703 7.40921 13.7227 7.32378C13.7258 7.51633 13.7284 7.66217 13.7321 7.80844C13.7471 8.47636 13.7621 9.14428 13.7772 9.81221C13.7793 9.81306 13.7848 9.81146 13.7848 9.81146Z" fill="#F2C94C"/>
<path d="M7.07544 6.41401C7.05273 5.6305 7.03001 4.84698 7.01239 4.06297C7.01119 4.02111 7.05247 3.95012 7.08816 3.93759C7.94825 3.63695 8.8054 3.3196 9.70284 3.17256C9.72667 3.16809 9.75123 3.16781 9.78943 3.16406C9.80797 3.98464 9.82714 4.79773 9.84585 5.61192L9.8508 5.60877C9.57579 5.66552 9.2962 5.70358 9.02709 5.78471C8.37344 5.98115 7.72392 6.19737 7.07247 6.40633L7.07544 6.41401Z" fill="#F2C94C"/>
<path d="M18.8305 15.99C18.0383 16.0651 17.2898 15.9978 16.5693 15.6796C16.2721 15.5488 16.1561 15.3902 16.1663 15.0428C16.1837 14.427 16.1429 13.8131 16.126 13.1974C16.1254 13.1571 16.1263 13.1161 16.1274 13.03C16.9545 13.5056 17.8296 13.6518 18.7662 13.5376C18.7872 14.367 18.8087 15.1745 18.8305 15.99Z" fill="#F2C94C"/>
<path d="M7.07161 6.40768C7.72306 6.19871 8.37258 5.98249 9.02623 5.78606C9.29534 5.70493 9.57598 5.66729 9.84994 5.61012C9.87197 6.4192 9.8934 7.22675 9.91564 8.05919C8.96398 8.20731 8.06201 8.53862 7.13564 8.86382C7.11444 8.03181 7.09273 7.21898 7.07161 6.40768Z" fill="#EE0000"/>
<path d="M13.7729 9.81274C13.7579 9.14482 13.7428 8.4769 13.7278 7.80898C13.7241 7.66271 13.7225 7.5173 13.7184 7.32432C14.066 7.40974 14.4019 7.45806 14.7118 7.57587C15.1482 7.74289 15.5638 7.96083 15.989 8.15817C16.0109 8.96461 16.0328 9.77105 16.0552 10.6061C15.825 10.4938 15.6218 10.399 15.4222 10.2953C14.9181 10.0308 14.3828 9.87242 13.8176 9.80517C13.8041 9.80224 13.7876 9.80971 13.7729 9.81274Z" fill="#EE0000"/>
<path d="M5.55895 14.2616C5.55086 14.2634 5.54276 14.2653 5.53408 14.2656C5.54322 14.2642 5.55131 14.2623 5.55895 14.2616Z" fill="black"/>
</g>
<defs>
<clipPath id="clip0_1_21461">
<rect width="17" height="13" fill="white" transform="translate(6.875 0.908203) rotate(22.2622)"/>
</clipPath>
</defs>
</svg>
