<svg width="35" height="35" viewBox="0 0 35 35" fill="none" xmlns="http://www.w3.org/2000/svg">
<g id="play podcast">
<path id="play podcast_2" d="M17.4856 2.83561e-05C7.82118 0.017264 -0.0171989 7.86525 2.83422e-05 17.5115C0.0172556 27.175 7.86712 35.0172 17.5144 35C27.1788 34.9827 35.0172 27.1348 35 17.4885C34.9885 7.82503 27.1386 -0.0172073 17.4856 2.83561e-05ZM24.1526 18.5169C21.3273 20.2864 18.4963 22.0502 15.671 23.8198C15.2691 24.0725 14.8556 24.1587 14.4249 23.9174C14.0057 23.6819 13.8622 23.2969 13.8679 22.8316C13.8737 21.0563 13.8679 19.2753 13.8679 17.5C13.8679 15.7305 13.8737 13.9667 13.8622 12.1972C13.8622 11.7203 14 11.3296 14.4307 11.0883C14.8614 10.847 15.2748 10.9447 15.671 11.1917C18.4963 12.9613 21.3273 14.7251 24.1526 16.4946C25.0197 17.0289 25.0197 17.9769 24.1526 18.5169Z" fill="#5334EA"/>
</g>
</svg>
