<svg width="25" height="25" viewBox="0 0 25 25" fill="none" xmlns="http://www.w3.org/2000/svg">
<path d="M12.4898 2.02544e-05C5.58657 0.0123315 -0.0122849 5.61804 2.02444e-05 12.5082C0.0123254 19.4107 5.61938 25.0123 12.5103 25C19.4135 24.9877 25.0123 19.382 25 12.4918C24.9918 5.58932 19.3848 -0.012291 12.4898 2.02544e-05ZM17.2519 13.2264C15.2338 14.4903 13.2117 15.7502 11.1936 17.0141C10.9065 17.1947 10.6112 17.2563 10.3035 17.0839C10.0041 16.9156 9.90158 16.6407 9.90568 16.3083C9.90978 15.0402 9.90568 13.7681 9.90568 12.5C9.90568 11.2361 9.90978 9.97622 9.90158 8.71227C9.90158 8.37165 10 8.0926 10.3076 7.92024C10.6153 7.74789 10.9106 7.81765 11.1936 7.99411C13.2117 9.25806 15.2338 10.5179 17.2519 11.7819C17.8712 12.1635 17.8712 12.8406 17.2519 13.2264Z" fill="white"/>
</svg>
