<svg width="38" height="38" viewBox="0 0 38 38" fill="none" xmlns="http://www.w3.org/2000/svg">
<g id="play icon">
<g id="Vector" filter="url(#filter0_d_1_21992)">
<path d="M18.9877 2.43053e-05C10.7039 0.0147978 3.98526 6.74164 4.00002 15.0098C4.01479 23.2928 10.7432 30.0147 19.0123 30C27.2961 29.9852 34.0147 23.2584 34 14.9902C33.9901 6.70717 27.2617 -0.0147491 18.9877 2.43053e-05ZM24.7022 15.8716C22.2806 17.3884 19.854 18.9002 17.4323 20.4169C17.0878 20.6336 16.7334 20.7075 16.3642 20.5006C16.0049 20.2987 15.8819 19.9688 15.8868 19.5699C15.8917 18.0483 15.8868 16.5217 15.8868 15C15.8868 13.4833 15.8917 11.9714 15.8819 10.4547C15.8819 10.046 16 9.7111 16.3692 9.50428C16.7383 9.29745 17.0927 9.38116 17.4323 9.59292C19.854 11.1097 22.2806 12.6215 24.7022 14.1382C25.4454 14.5962 25.4454 15.4087 24.7022 15.8716Z" fill="white"/>
</g>
</g>
<defs>
<filter id="filter0_d_1_21992" x="0" y="0" width="38" height="38" filterUnits="userSpaceOnUse" color-interpolation-filters="sRGB">
<feFlood flood-opacity="0" result="BackgroundImageFix"/>
<feColorMatrix in="SourceAlpha" type="matrix" values="0 0 0 0 0 0 0 0 0 0 0 0 0 0 0 0 0 0 127 0" result="hardAlpha"/>
<feOffset dy="4"/>
<feGaussianBlur stdDeviation="2"/>
<feComposite in2="hardAlpha" operator="out"/>
<feColorMatrix type="matrix" values="0 0 0 0 0 0 0 0 0 0 0 0 0 0 0 0 0 0 0.25 0"/>
<feBlend mode="normal" in2="BackgroundImageFix" result="effect1_dropShadow_1_21992"/>
<feBlend mode="normal" in="SourceGraphic" in2="effect1_dropShadow_1_21992" result="shape"/>
</filter>
</defs>
</svg>
