<svg width="50" height="50" viewBox="0 0 50 50" fill="none" xmlns="http://www.w3.org/2000/svg">
<g id="play icon">
<circle id="Ellipse 9" cx="24.5" cy="24.5" r="13.5" fill="white"/>
<path id="Vector" d="M24.9795 4.05088e-05C11.1731 0.0246629 -0.0245698 11.2361 4.04888e-05 25.0164C0.0246508 38.8214 11.2387 50.0246 25.0205 50C38.8269 49.9753 50.0246 38.7639 50 24.9836C49.9836 11.1786 38.7695 -0.0245819 24.9795 4.05088e-05ZM34.5037 26.4527C30.4676 28.9806 26.4233 31.5003 22.3872 34.0282C21.813 34.3893 21.2223 34.5125 20.6071 34.1677C20.0082 33.8312 19.8031 33.2813 19.8113 32.6165C19.8195 30.0804 19.8113 27.5361 19.8113 25C19.8113 22.4721 19.8195 19.9524 19.8031 17.4245C19.8031 16.7433 20 16.1852 20.6153 15.8405C21.2305 15.4957 21.8212 15.6353 22.3872 15.9882C26.4233 18.5161 30.4676 21.0358 34.5037 23.5637C35.7424 24.327 35.7424 25.6812 34.5037 26.4527Z" fill="#5334EA"/>
</g>
</svg>
