<svg width="22" height="19" viewBox="0 0 22 19" fill="none" xmlns="http://www.w3.org/2000/svg">
<g id="present icon" clip-path="url(#clip0_1_37851)">
<g id="present">
<path d="M7.50217 8.40726C7.52913 8.38024 7.52913 8.35077 7.53158 8.32129C7.56344 7.7883 7.66881 7.26759 7.80849 6.75178C7.91877 6.3416 8.0609 5.94124 8.25205 5.56299C8.4628 5.15034 8.74462 4.7942 9.09015 4.48963C9.34011 4.26857 9.63173 4.13594 9.9552 4.06471C10.2444 4.00084 10.5384 3.98611 10.8325 4.02049C11.2246 4.06471 11.5775 4.21453 11.8863 4.46261C12.32 4.80893 12.592 5.25842 12.6974 5.80369C12.8101 6.38827 12.695 6.93109 12.3666 7.42724C12.1289 7.78584 11.8176 8.06339 11.4525 8.28691C11.3716 8.33603 11.2859 8.3827 11.205 8.43182C11.1952 8.43919 11.1829 8.44656 11.1633 8.4613C11.1952 8.46375 11.2148 8.46621 11.232 8.46621C11.8838 8.47603 12.5357 8.4834 13.19 8.49323C13.3713 8.49568 13.5502 8.50551 13.7291 8.51288C13.8884 8.51779 14.0305 8.56446 14.1702 8.64306C14.479 8.81499 14.7191 9.05078 14.8686 9.375C14.9446 9.54202 14.9813 9.71641 14.9838 9.90063C14.9887 10.2764 14.9985 10.6547 15.0009 11.0305C15.0034 11.4038 15.0009 11.7772 15.0009 12.1505C15.0009 12.1726 15.0009 12.1923 15.0009 12.2193C12.7611 12.2193 10.5237 12.2193 8.28146 12.2193C8.27901 12.1923 8.27656 12.1677 8.27656 12.1431C8.27656 11.7182 8.27656 11.2957 8.27656 10.8708C8.27656 10.3501 8.27656 9.8294 8.27656 9.30869C8.27656 9.28412 8.27656 9.25956 8.27656 9.235C8.22019 9.21781 6.78415 9.21781 6.72779 9.235C6.72779 10.2248 6.72779 11.2171 6.72779 12.2045C6.72044 12.2119 6.71799 12.2144 6.71799 12.2144C6.71554 12.2168 6.71553 12.2168 6.71308 12.2168C6.70573 12.2193 6.69838 12.2217 6.69103 12.2217C4.47325 12.2217 2.25548 12.2217 0.0377044 12.2217C0.0303527 12.2217 0.0230009 12.2193 0.010748 12.2168C0.00584688 12.2045 0.000945721 12.1898 0.000945721 12.1751C0.0033963 11.4382 -0.0088566 10.7013 0.0156492 9.96695C0.0230009 9.7508 0.0548585 9.54202 0.150431 9.34553C0.304818 9.02622 0.542524 8.79288 0.858649 8.63323C1.03754 8.54235 1.22624 8.51533 1.42228 8.51042C2.01777 8.49814 2.61326 8.48832 3.20875 8.47603C3.39255 8.47358 3.57634 8.47112 3.76014 8.46621C3.77484 8.46621 3.78954 8.46375 3.8165 8.4613C3.79934 8.44656 3.79199 8.43674 3.78219 8.43182C3.67437 8.36551 3.56654 8.3041 3.46116 8.23533C3.1818 8.04866 2.93919 7.82023 2.72109 7.56724C2.59121 7.41741 2.50544 7.24057 2.43192 7.05635C2.30449 6.74196 2.24323 6.41774 2.26283 6.07879C2.27753 5.82334 2.3388 5.58018 2.43682 5.34438C2.63287 4.87771 2.96125 4.53138 3.395 4.2784C3.59595 4.1605 3.8116 4.07699 4.04195 4.03769C4.20614 4.00821 4.37278 4.00821 4.53942 4.01313C4.66685 4.01804 4.79428 4.02049 4.91926 4.04014C5.23293 4.08681 5.51475 4.21453 5.77451 4.39629C6.07103 4.60507 6.30874 4.87279 6.50969 5.17491C6.767 5.56299 6.95079 5.98791 7.09538 6.43002C7.22035 6.81319 7.30858 7.20618 7.37719 7.60163C7.41885 7.83988 7.45561 8.07813 7.46786 8.31884C7.47276 8.36551 7.47522 8.36551 7.50217 8.40726ZM9.12201 7.5918C9.16367 7.58689 9.19307 7.58689 9.22003 7.57952C9.35236 7.54759 9.48714 7.51321 9.61702 7.47882C9.965 7.38303 10.2983 7.2553 10.6071 7.06863C10.7737 6.96793 10.9305 6.8574 11.0653 6.71249C11.1364 6.63634 11.2001 6.55283 11.2271 6.44967C11.3055 6.15739 11.2516 5.89703 11.0359 5.67351C10.835 5.46965 10.5973 5.41316 10.3252 5.47211C10.1782 5.50404 10.0557 5.58755 9.9503 5.69316C9.75916 5.87984 9.62927 6.10826 9.519 6.34651C9.41607 6.56757 9.33275 6.796 9.25924 7.02688C9.21023 7.18162 9.17102 7.33882 9.12936 7.49601C9.12446 7.52549 9.12691 7.5525 9.12201 7.5918ZM5.87254 7.58935C5.86518 7.54514 5.86273 7.51075 5.85538 7.47882C5.83333 7.38057 5.80882 7.28478 5.78431 7.18653C5.68629 6.82301 5.55641 6.46932 5.37262 6.13774C5.27949 5.97071 5.17412 5.81352 5.03689 5.67843C4.91191 5.55316 4.76732 5.46965 4.59088 5.45246C4.30661 5.42298 4.07871 5.53106 3.89982 5.74966C3.67191 6.02721 3.69642 6.45213 3.90472 6.6781C3.94883 6.72477 3.99294 6.77389 4.04195 6.81565C4.25025 6.99986 4.48796 7.13495 4.73792 7.24548C5.06629 7.39285 5.41183 7.48373 5.75981 7.56724C5.79167 7.57952 5.82597 7.58198 5.87254 7.58935Z" fill="white"/>
<path d="M14.2583 13.0074C14.2607 13.0295 14.2607 13.0491 14.2607 13.0663C14.2558 14.4393 14.2509 15.8148 14.246 17.1878C14.246 17.3548 14.2436 17.5219 14.224 17.6864C14.1774 18.0745 13.9985 18.3914 13.702 18.6443C13.5403 18.7819 13.354 18.8752 13.1482 18.9342C13.0109 18.9735 12.8688 18.9784 12.7291 18.9808C12.3444 18.9882 11.9572 18.9956 11.5725 18.9956C10.5016 18.998 9.43065 18.9956 8.35729 18.9956C8.33279 18.9956 8.31073 18.9956 8.28868 18.9956C8.27398 18.9489 8.27152 13.0737 8.28378 13.0074C8.32544 13 14.1725 12.9951 14.2583 13.0074Z" fill="white"/>
<path d="M6.72056 13.0074C6.72056 15.0043 6.72056 16.9987 6.72056 18.9956C6.70095 18.998 6.68625 19.0005 6.67155 19.0005C5.40705 19.0005 4.145 19.0005 2.8805 18.9956C2.61338 18.9956 2.34872 18.9784 2.08161 18.9686C1.8439 18.9587 1.62335 18.89 1.4273 18.75C1.21655 18.5977 1.04011 18.411 0.920034 18.1801C0.824461 17.9959 0.768098 17.797 0.763196 17.5857C0.753394 16.8145 0.741141 16.0432 0.738691 15.272C0.73379 14.5425 0.738691 13.8155 0.738691 13.086C0.738691 13.0614 0.738691 13.0368 0.738691 13.0123C0.790153 13 6.64459 12.9951 6.72056 13.0074Z" fill="white"/>
</g>
<circle id="Ellipse" cx="18.001" cy="4" r="4" fill="#EE0000"/>
</g>
<defs>
<clipPath id="clip0_1_37851">
<rect width="22.001" height="19.0005" fill="white"/>
</clipPath>
</defs>
</svg>
