<svg width="22" height="22" viewBox="0 0 22 22" fill="none" xmlns="http://www.w3.org/2000/svg">
<g id="icon &#208;&#186;&#209;&#128;&#208;&#176;&#209;&#129;&#208;&#189; &#209;&#132;&#208;&#187;&#208;&#176;&#208;&#179;">
<path id="Vector" d="M3.77686 20.9917C3.66116 20.9336 3.52893 20.8838 3.42149 20.8008C3.12397 20.585 3 20.2779 3 19.921C3 19.5475 3 19.1657 3 18.7922C3 13.2397 3 7.6788 3 2.12623C3 1.53694 3.26446 1.16345 3.7686 1.03065C4.33058 0.881258 4.91736 1.29625 4.97521 1.87724C4.98347 2.00173 4.99174 2.12623 4.99174 2.25073C4.99174 8.08549 4.99174 13.9203 5 19.755C5 20.3692 4.80165 20.8008 4.19835 21C4.05785 20.9917 3.91736 20.9917 3.77686 20.9917Z" fill="#787878"/>
<path id="Vector_2" d="M6.01345 2.51033C6.67573 2.72332 7.32376 2.78296 7.98603 2.7574C8.83346 2.72332 9.6524 2.53589 10.4713 2.28881C11.5182 1.97358 12.5579 1.63278 13.6118 1.34311C14.5589 1.079 15.5203 0.925639 16.4959 1.0364C17.1938 1.11307 17.8703 1.30051 18.497 1.67538C18.618 1.74354 18.7248 1.83726 18.8245 1.94802C19.0524 2.19509 19.0595 2.46773 18.8388 2.72332C18.6821 2.90224 18.5112 3.06412 18.3474 3.23451C17.6282 3.9587 16.9801 4.76808 16.3677 5.62006C16.1683 5.90122 16.1612 6.17385 16.3464 6.49761C16.5458 6.84692 16.7665 7.17067 16.9517 7.5285C17.5498 8.66164 18.1338 9.8033 18.7177 10.945C18.7747 11.0557 18.8103 11.1835 18.8459 11.3113C18.8958 11.4817 18.8886 11.6436 18.7747 11.7799C18.6608 11.9162 18.5183 11.8907 18.383 11.831C18.1551 11.7373 17.9344 11.6265 17.7065 11.5499C16.795 11.2261 15.8692 11.1835 14.9292 11.3113C13.4765 11.5073 12.0807 12.0525 10.6707 12.47C9.67376 12.7682 8.66967 13.0238 7.63709 12.9982C7.13148 12.9812 6.61876 12.8619 6.11315 12.7767C6.07042 12.7682 6.03481 12.683 6.00633 12.6234C5.99209 12.5893 6.00633 12.5467 6.00633 12.5041C6.00633 9.25803 6.00633 6.01198 6.00633 2.76592C6.01345 2.68924 6.01345 2.61256 6.01345 2.51033Z" fill="#EE0000"/>
</g>
</svg>
