<svg width="16" height="18" viewBox="0 0 16 18" fill="none" xmlns="http://www.w3.org/2000/svg">
<g id="Frame" clip-path="url(#clip0_128_6226)">
<path id="Vector" d="M11.9744 6.97268C11.9744 7.05513 11.9744 7.11402 11.9744 7.16997C11.9714 8.8778 12.0255 10.5886 11.9564 12.2935C11.8603 14.6462 10.6804 16.3834 8.52462 17.3964C6.54001 18.3268 4.5584 18.1708 2.7119 16.9989C1.09959 15.9712 0.189851 14.4754 0.0247166 12.5879C-0.218481 9.81711 1.50792 7.30836 4.20111 6.46916C4.75656 6.29544 5.32703 6.2071 5.9125 6.2071C6.30282 6.2071 6.522 6.40733 6.525 6.79012C6.528 7.39964 6.525 8.00622 6.525 8.61574C6.525 8.89547 6.525 9.1752 6.525 9.45493C6.525 9.86422 6.32984 10.0615 5.9155 10.0762C4.96073 10.1116 4.16508 10.78 3.97293 11.7075C3.78978 12.6027 4.27617 13.5243 5.14087 13.913C6.47996 14.5137 8.02022 13.5567 8.03222 12.108C8.04423 10.5179 8.03523 8.92786 8.03523 7.3378C8.03523 5.09995 8.03523 2.8621 8.03523 0.621299C8.03523 0.200229 8.23939 0 8.66874 0C9.55446 0 10.4402 0 11.3229 0C11.7733 0 11.9624 0.173728 11.9774 0.61541C12.0375 2.16424 13.0913 3.46278 14.6046 3.83674C14.8628 3.90152 15.136 3.92508 15.4032 3.94274C15.7935 3.96925 16.0007 4.16653 16.0007 4.54932C16.0007 5.43857 16.0007 6.32783 16.0007 7.21413C16.0007 7.61459 15.7725 7.8266 15.3612 7.81777C14.2022 7.79421 13.1063 7.53803 12.0735 7.01391C12.0525 7.00507 12.0285 6.99624 11.9744 6.97268Z" fill="white"/>
</g>
<defs>
<clipPath id="clip0_128_6226">
<rect width="16" height="18" fill="white"/>
</clipPath>
</defs>
</svg>
