<svg width="18" height="18" viewBox="0 0 18 18" fill="none" xmlns="http://www.w3.org/2000/svg">
<g id="search icon" clip-path="url(#clip0_1_37875)">
<path id="Vector" d="M6.94599 0C7.23627 0 7.52407 0 7.81436 0C7.84909 0.00751148 7.88631 0.0175268 7.92104 0.0200306C8.20388 0.057588 8.4892 0.0776186 8.76708 0.132703C13.7689 1.10919 16.3045 6.79538 13.7093 11.2171C13.6547 11.3123 13.6721 11.3548 13.7391 11.425C15.1012 12.7945 16.4633 14.1666 17.8229 15.5412C17.8924 15.6114 17.9395 15.699 17.9991 15.7791C17.9991 15.8542 17.9991 15.9293 17.9991 16.0045C17.9097 16.3049 17.7559 16.5678 17.5401 16.7932C17.2994 17.041 17.0587 17.2864 16.8131 17.5268C16.5997 17.7346 16.3591 17.8998 16.0688 17.98C15.8728 18.0351 15.714 17.995 15.5652 17.8448C14.2155 16.4752 12.8608 15.1131 11.5086 13.7485C11.4764 13.716 11.4441 13.6859 11.4168 13.6584C11.4044 13.6584 11.3995 13.6584 11.3945 13.6609C11.3623 13.6809 11.3325 13.7009 11.3002 13.721C9.56349 14.7951 7.69527 15.1231 5.71291 14.6699C1.31153 13.6634 -1.17944 8.84351 0.554809 4.63708C1.60429 2.10071 3.51966 0.598414 6.19919 0.0976492C6.44482 0.0500765 6.69788 0.0325497 6.94599 0ZM12.2926 7.42885C12.2926 4.69217 10.0969 2.47378 7.38513 2.47128C4.65598 2.46877 2.45033 4.68215 2.44785 7.42635C2.44785 10.168 4.65598 12.3964 7.37521 12.3964C10.0845 12.3964 12.2951 10.1655 12.2926 7.42885Z" fill="#787878"/>
</g>
<defs>
<clipPath id="clip0_1_37875">
<rect width="18" height="18" fill="white"/>
</clipPath>
</defs>
</svg>
