<svg width="11" height="13" viewBox="0 0 11 13" fill="none" xmlns="http://www.w3.org/2000/svg">
<g id="share" clip-path="url(#clip0_21_9850)">
<g id="Group">
<path id="Vector" d="M5.5514 13C4.31776 13 3.18692 13 1.95327 13C1.23364 13 0.719626 12.7023 0.308411 12.1069C0.102804 11.9084 0 11.6107 0 11.313C0 9.72519 0 8.1374 0 6.54962C0 6.15267 0.205607 5.9542 0.514019 5.9542C0.82243 5.9542 1.13084 6.15267 1.13084 6.45038C1.13084 6.54962 1.13084 6.54962 1.13084 6.64885C1.13084 8.1374 1.13084 9.62595 1.13084 11.2137C1.13084 11.7099 1.43925 11.9084 1.85047 11.9084C4.21495 11.9084 6.57944 11.9084 9.04673 11.9084C9.45794 11.9084 9.76636 11.7099 9.76636 11.2137C9.76636 9.72519 9.76636 8.23664 9.76636 6.64885C9.76636 6.54962 9.76636 6.45038 9.76636 6.35114C9.97196 6.05343 10.1776 5.85496 10.486 5.9542C10.7944 5.9542 11 6.25191 11 6.45038V6.54962C11 8.1374 11 9.62595 11 11.2137C11 12.1069 10.3832 12.8015 9.45794 13C9.35514 13 9.14953 13 9.04673 13C7.91589 13 6.68224 13 5.5514 13Z" fill="#787878"/>
<path id="Vector_2" d="M4.83255 1.98482C4.83255 1.98482 4.83255 2.08405 4.72975 2.08405C4.31853 2.58024 3.90732 2.97718 3.4961 3.37413C3.18769 3.67184 2.67367 3.5726 2.46806 3.17565C2.36526 2.87794 2.46806 2.67947 2.67367 2.58024C3.3933 1.88558 4.01012 1.29016 4.72975 0.595502C4.83255 0.496266 4.93535 0.397029 5.14096 0.198556C5.34657 8.2559e-05 5.75778 -0.0991541 5.96339 0.198556C6.78582 0.992449 7.60825 1.78634 8.43068 2.58024C8.63629 2.77871 8.63629 3.17565 8.43068 3.47336C8.22507 3.67184 7.81386 3.67184 7.60825 3.47336C7.09423 2.97718 6.68302 2.58024 6.2718 2.18329C6.2718 2.08405 6.169 2.08405 6.169 1.98482C6.169 2.08405 6.169 2.08405 6.169 2.18329C6.169 4.16802 6.169 6.15275 6.169 8.13749C6.169 8.23672 6.169 8.33596 6.169 8.4352C5.96339 8.73291 5.75778 8.93138 5.44937 8.83214C5.14096 8.83214 4.93535 8.63367 4.93535 8.33596C4.93535 8.23672 4.93535 8.23672 4.93535 8.13749C4.93535 6.15275 4.93535 4.16802 4.93535 2.18329C4.93535 2.18329 4.93535 2.08405 4.83255 1.98482C4.83255 2.08405 4.83255 2.08405 4.83255 1.98482Z" fill="#787878"/>
</g>
</g>
<defs>
<clipPath id="clip0_21_9850">
<rect width="11" height="13" fill="white"/>
</clipPath>
</defs>
</svg>
