<svg width="12" height="12" viewBox="0 0 12 12" fill="none" xmlns="http://www.w3.org/2000/svg">
<g id="icon star" clip-path="url(#clip0_1_38159)">
<path id="Vector" d="M2.17401 11.5091C2.21452 11.3249 2.27079 11.0557 2.33155 10.7889C2.56561 9.75464 2.80192 8.7204 3.04048 7.68616C3.05848 7.6106 3.02472 7.57755 2.98196 7.53976C2.22802 6.86208 1.47409 6.1844 0.720147 5.50671C0.555856 5.35795 0.387064 5.21391 0.229525 5.05807C0.153006 4.98015 0.0854888 4.8857 0.038227 4.78652C-0.0382921 4.62123 0.0112202 4.46303 0.17101 4.39455C0.306044 4.33552 0.456832 4.29774 0.603118 4.28593C1.40882 4.21273 2.21677 4.14662 3.02247 4.0805C3.38481 4.04981 3.74715 4.02383 4.10949 3.98841C4.14775 3.98369 4.19952 3.93646 4.21527 3.89632C4.48309 3.22808 4.7464 2.55512 5.01197 1.88452C5.20552 1.39574 5.39907 0.90459 5.59937 0.418168C5.64213 0.311911 5.70514 0.208015 5.77941 0.123009C5.9212 -0.0422799 6.09674 -0.0375573 6.23403 0.132454C6.30379 0.21746 6.36231 0.318995 6.40282 0.422891C6.85068 1.5445 7.29629 2.66846 7.7374 3.79479C7.78691 3.9223 7.83643 3.99313 7.99397 4.00258C8.9437 4.0687 9.89119 4.1537 10.8409 4.23398C11.1065 4.2576 11.3743 4.2694 11.6331 4.32371C12.036 4.40636 12.117 4.68499 11.8289 4.99431C11.6084 5.22808 11.3608 5.43351 11.12 5.64839C10.4268 6.27412 9.7314 6.8975 9.03373 7.51851C8.96171 7.58227 8.9437 7.63894 8.96621 7.73811C9.23628 8.91639 9.50409 10.097 9.76741 11.2753C9.79892 11.4146 9.81917 11.5634 9.80567 11.705C9.78316 11.953 9.62787 12.0545 9.39832 11.9813C9.29254 11.9483 9.18901 11.894 9.09449 11.8349C8.25503 11.3013 7.41782 10.7629 6.58061 10.2269C6.42757 10.1277 6.27003 10.0356 6.12375 9.92937C6.03598 9.86562 5.96846 9.86562 5.87394 9.92465C4.89494 10.5575 3.9137 11.1856 2.9302 11.8137C2.84018 11.8703 2.7479 11.927 2.65113 11.9624C2.35181 12.0734 2.16951 11.9317 2.17401 11.5091Z" fill="#FF9C00"/>
</g>
<defs>
<clipPath id="clip0_1_38159">
<rect width="12" height="12" fill="white"/>
</clipPath>
</defs>
</svg>
