<svg width="17" height="17" viewBox="0 0 17 17" fill="none" xmlns="http://www.w3.org/2000/svg">
<g id="Star">
<path id="Star_2" d="M7.59383 1.94165C7.95293 1.1722 9.04707 1.1722 9.40617 1.94165L11.0509 5.46583C11.1502 5.67867 11.3213 5.84976 11.5342 5.94909L15.0583 7.59383C15.8278 7.95293 15.8278 9.04707 15.0583 9.40617L11.5342 11.0509C11.3213 11.1502 11.1502 11.3213 11.0509 11.5342L9.40617 15.0583C9.04707 15.8278 7.95293 15.8278 7.59383 15.0583L5.94909 11.5342C5.84976 11.3213 5.67867 11.1502 5.46583 11.0509L1.94165 9.40617C1.1722 9.04707 1.1722 7.95293 1.94165 7.59383L5.46583 5.94909C5.67867 5.84976 5.84976 5.67867 5.94909 5.46583L7.59383 1.94165Z" fill="#5334EA"/>
</g>
</svg>
