<svg width="46" height="29" viewBox="0 0 46 29" fill="none" xmlns="http://www.w3.org/2000/svg">
<path d="M23.8152 27.8528C23.4165 28.4139 22.5835 28.4138 22.1848 27.8528L17.194 20.8292C16.7235 20.1671 17.1969 19.25 18.0091 19.25L27.9909 19.25C28.8031 19.25 29.2765 20.1671 28.806 20.8292L23.8152 27.8528Z" fill="#FF5353"/>
<rect width="46" height="23" rx="3" fill="#FF5353"/>
<g clip-path="url(#clip0_51_14051)">
<path d="M12.5028 16.8776C10.7759 16.8776 9.0439 16.8728 7.317 16.8824C7.07176 16.8824 6.99513 16.8251 7.00024 16.591C7.07687 14.6805 8.51254 12.8177 10.7146 12.2636C11.5474 12.0535 12.3955 12.0726 13.2487 12.1108C14.2552 12.1585 15.1647 12.4642 15.9617 13.0278C17.1674 13.8828 17.8572 15.0196 17.9849 16.4382C18.0258 16.8776 18.0207 16.8776 17.5608 16.8776C15.8697 16.8776 14.1888 16.8776 12.5028 16.8776Z" fill="white"/>
<path d="M12.4978 10.9865C11.0213 10.9865 9.83084 9.89274 9.83595 8.51236C9.84617 7.11766 10.9804 6.01909 12.5029 5.99999C13.9641 5.98088 15.175 7.14154 15.1699 8.51236C15.1648 9.88318 13.9744 10.9865 12.4978 10.9865Z" fill="white"/>
</g>
<defs>
<clipPath id="clip0_51_14051">
<rect width="11" height="11" fill="white" transform="translate(7 6)"/>
</clipPath>
</defs>
</svg>
