<svg width="30" height="30" viewBox="0 0 30 30" fill="none" xmlns="http://www.w3.org/2000/svg">
<rect width="30" height="30" rx="3" fill="black"/>
<g clip-path="url(#clip0_128_6224)">
<path d="M18.9744 12.9727C18.9744 13.0551 18.9744 13.114 18.9744 13.17C18.9714 14.8778 19.0255 16.5886 18.9564 18.2935C18.8603 20.6462 17.6804 22.3834 15.5246 23.3964C13.54 24.3268 11.5584 24.1708 9.7119 22.9989C8.09959 21.9712 7.18985 20.4754 7.02472 18.5879C6.78152 15.8171 8.50792 13.3084 11.2011 12.4692C11.7566 12.2954 12.327 12.2071 12.9125 12.2071C13.3028 12.2071 13.522 12.4073 13.525 12.7901C13.528 13.3996 13.525 14.0062 13.525 14.6157C13.525 14.8955 13.525 15.1752 13.525 15.4549C13.525 15.8642 13.3298 16.0615 12.9155 16.0762C11.9607 16.1116 11.1651 16.78 10.9729 17.7075C10.7898 18.6027 11.2762 19.5243 12.1409 19.913C13.48 20.5137 15.0202 19.5567 15.0322 18.108C15.0442 16.5179 15.0352 14.9279 15.0352 13.3378C15.0352 11.1 15.0352 8.8621 15.0352 6.6213C15.0352 6.20023 15.2394 6 15.6687 6C16.5545 6 17.4402 6 18.3229 6C18.7733 6 18.9624 6.17373 18.9774 6.61541C19.0375 8.16424 20.0913 9.46278 21.6046 9.83674C21.8628 9.90152 22.136 9.92508 22.4032 9.94274C22.7935 9.96925 23.0007 10.1665 23.0007 10.5493C23.0007 11.4386 23.0007 12.3278 23.0007 13.2141C23.0007 13.6146 22.7725 13.8266 22.3612 13.8178C21.2022 13.7942 20.1063 13.538 19.0735 13.0139C19.0525 13.0051 19.0285 12.9962 18.9744 12.9727Z" fill="white"/>
</g>
<defs>
<clipPath id="clip0_128_6224">
<rect width="16" height="18" fill="white" transform="translate(7 6)"/>
</clipPath>
</defs>
</svg>
