<svg width="16" height="13" viewBox="0 0 16 13" fill="none" xmlns="http://www.w3.org/2000/svg">
<g id="twitter">
<path id="Path" d="M14.3874 3.24477C14.3874 3.3913 14.3874 3.53784 14.3874 3.66345C14.3874 7.99678 11.0785 13 5.04712 13C3.18325 13 1.46597 12.4557 0 11.5346C0.251309 11.5556 0.52356 11.5765 0.774869 11.5765C2.30366 11.5765 3.72775 11.0531 4.85864 10.1739C3.41361 10.153 2.19895 9.19002 1.80105 7.89211C2.01047 7.93398 2.19895 7.95491 2.42932 7.95491C2.72251 7.95491 3.01571 7.91304 3.28796 7.82931C1.7801 7.53623 0.649215 6.21739 0.649215 4.62641C0.649215 4.60547 0.649215 4.60547 0.649215 4.58454C1.08901 4.83575 1.59162 4.98229 2.13613 5.00322C1.25654 4.41707 0.670157 3.41224 0.670157 2.26087C0.670157 1.65378 0.837696 1.08857 1.10995 0.607085C2.72251 2.59581 5.15183 3.89372 7.87435 4.04026C7.81152 3.80998 7.79058 3.53784 7.79058 3.28663C7.79058 1.46538 9.25654 0 11.0785 0C12.0209 0 12.8796 0.397746 13.466 1.02576C14.2199 0.879227 14.911 0.607085 15.5602 0.230274C15.3089 1.00483 14.7853 1.63285 14.1152 2.05153C14.7853 1.96779 15.4136 1.80032 16 1.52818C15.5812 2.19807 15.0366 2.78422 14.3874 3.24477Z" fill="white"/>
</g>
</svg>
