<svg width="30" height="30" viewBox="0 0 30 30" fill="none" xmlns="http://www.w3.org/2000/svg">
<g id="twitter">
<rect id="Rectangle" width="30" height="30" rx="3" fill="#29ABE2"/>
<path id="Path" d="M22.1859 11.4944C22.1859 11.6522 22.1859 11.81 22.1859 11.9452C22.1859 16.6119 18.4634 22 11.678 22C9.58115 22 7.64921 21.4138 6 20.4219C6.28272 20.4444 6.58901 20.467 6.87173 20.467C8.59162 20.467 10.1937 19.9034 11.466 18.9565C9.84031 18.934 8.47382 17.8969 8.02618 16.4992C8.26178 16.5443 8.47382 16.5668 8.73298 16.5668C9.06283 16.5668 9.39267 16.5217 9.69895 16.4316C8.00262 16.1159 6.73037 14.6957 6.73037 12.9823C6.73037 12.9597 6.73037 12.9597 6.73037 12.9372C7.22513 13.2077 7.79058 13.3655 8.40314 13.3881C7.41361 12.7568 6.75393 11.6747 6.75393 10.4348C6.75393 9.781 6.94241 9.1723 7.24869 8.65378C9.06283 10.7955 11.7958 12.1932 14.8586 12.351C14.788 12.1031 14.7644 11.81 14.7644 11.5395C14.7644 9.5781 16.4136 8 18.4634 8C19.5236 8 20.4895 8.42834 21.1492 9.10467C21.9974 8.94686 22.7749 8.65378 23.5052 8.24799C23.2225 9.08213 22.6335 9.75845 21.8796 10.2093C22.6335 10.1192 23.3403 9.93881 24 9.64573C23.5288 10.3671 22.9162 10.9984 22.1859 11.4944Z" fill="white"/>
</g>
</svg>
