<svg width="63" height="21" viewBox="0 0 63 21" fill="none" xmlns="http://www.w3.org/2000/svg">
<g id="&#208;&#187;&#208;&#184;&#208;&#179;&#208;&#176; &#209;&#129;&#209;&#130;&#208;&#176;&#208;&#178;&#208;&#190;&#208;&#186; &#208;&#187;&#208;&#190;&#208;&#179;&#208;&#190;">
<g id="Vector">
<path d="M3.94084 20.9795C2.61098 20.9795 1.32057 20.9795 0 20.9795C0 20.8806 0 20.7961 0 20.7092C0 13.9027 0 7.09858 0 0.294467C0 0 0 0 0.29475 0C21.1083 0 41.9195 0 62.7331 0C62.8167 0 62.9002 0 63 0C63 6.99962 63 13.9775 63 20.9723C61.7119 20.9723 60.4238 20.9723 59.1079 20.9723C59.1033 20.8589 59.094 20.7454 59.094 20.6296C59.094 15.1699 59.094 9.71016 59.094 4.25046C59.094 3.7991 59.1125 3.87634 58.7273 3.87634C40.5804 3.87393 22.4335 3.87634 4.28665 3.87634C4.18221 3.87634 4.07545 3.87634 3.94548 3.87634C3.94084 9.58223 3.94084 15.2664 3.94084 20.9795Z" fill="white"/>
<path d="M32.1626 14.7354C31.7286 14.7354 31.2969 14.7402 30.8629 14.7282C30.8235 14.7257 30.7562 14.6099 30.7538 14.5447C30.7446 14.1006 30.7492 13.6589 30.7492 13.2148C30.7492 12.9252 30.6587 12.8358 30.3779 12.8358C30.1017 12.8358 29.8232 12.8334 29.547 12.8358C29.3172 12.8383 29.229 12.9276 29.2151 13.1665C29.2128 13.21 29.2128 13.2558 29.2128 13.2993C29.2128 15.2495 29.2128 17.1998 29.2128 19.15C29.2128 19.5458 29.2662 19.6013 29.6421 19.6013C29.9114 19.6013 30.1829 19.6038 30.4521 19.5989C30.6564 19.5941 30.7492 19.5 30.7515 19.2852C30.7562 18.8652 30.7585 18.4428 30.7492 18.0228C30.7469 17.8635 30.7863 17.7959 30.9488 17.8008C31.3039 17.8104 31.659 17.8056 32.0141 17.8032C32.1324 17.8032 32.1997 17.8297 32.1974 17.9745C32.1881 18.5731 32.2113 19.1717 32.1765 19.7679C32.1371 20.4582 31.5592 20.9892 30.8931 20.994C30.2595 20.9989 29.6282 20.9989 28.9946 20.994C28.2891 20.9892 27.7251 20.4268 27.7228 19.6931C27.7135 17.3953 27.7158 15.0975 27.7228 12.8021C27.7251 12.0949 28.3146 11.4939 28.9969 11.4842C29.6375 11.477 30.2757 11.477 30.9163 11.4842C31.5592 11.4914 32.1394 12.0249 32.1765 12.6886C32.2113 13.3282 32.1905 13.9727 32.1928 14.6147C32.1905 14.6461 32.1765 14.6823 32.1626 14.7354Z" fill="white"/>
<path d="M10.2443 11.4794C10.8129 14.6533 11.3769 17.8032 11.9455 20.9723C11.4256 20.9723 10.9267 20.9723 10.4091 20.9723C10.0006 18.3318 9.59447 15.696 9.186 13.0603C9.16511 13.0579 9.14423 13.0555 9.12566 13.0531C9.10477 13.1086 9.0746 13.1617 9.06764 13.2172C8.83555 14.7909 8.60578 16.3646 8.37602 17.9383C8.23444 18.9062 8.09055 19.8765 7.94201 20.842C7.93273 20.8951 7.86543 20.982 7.82133 20.982C7.35483 20.9916 6.88602 20.9892 6.38935 20.9892C6.47523 20.5161 6.55413 20.0696 6.63537 19.6231C6.96725 17.7839 7.29913 15.9471 7.63102 14.1078C7.77723 13.2969 7.91881 12.4859 8.07198 11.6749C8.08591 11.6025 8.16714 11.4866 8.2182 11.4866C8.88661 11.4745 9.5527 11.4794 10.2443 11.4794Z" fill="white"/>
<path d="M15.4431 16.9415C15.4083 17.0163 15.3688 17.0911 15.3409 17.1684C14.8837 18.3752 14.4242 19.5796 13.9763 20.7889C13.9183 20.9482 13.8417 21.0013 13.6815 20.994C13.3404 20.982 12.9992 20.9892 12.6325 20.9892C12.6278 20.9095 12.6209 20.8396 12.6209 20.7696C12.6209 18.3776 12.6232 15.9833 12.6162 13.5913C12.6162 13.3934 12.6719 13.3331 12.8576 13.3451C13.1199 13.3596 13.3821 13.3451 13.6467 13.35C14.1132 13.3572 14.0691 13.2679 14.0714 13.7796C14.0738 14.9623 14.0714 16.1426 14.0738 17.3253C14.0738 17.4146 14.0877 17.5039 14.097 17.5932C14.1155 17.5956 14.1364 17.598 14.155 17.6028C14.1875 17.528 14.2246 17.4532 14.2525 17.3759C14.705 16.1136 15.1599 14.8513 15.6032 13.5841C15.6682 13.3982 15.7564 13.3355 15.9421 13.3451C16.2252 13.3596 16.5107 13.3548 16.7938 13.3475C16.9423 13.3427 16.9934 13.4006 16.9934 13.5551C16.9888 14.1247 16.9911 14.692 16.9911 15.2616C16.9911 17.0791 16.9888 18.8941 16.9957 20.7116C16.9957 20.9289 16.954 21.0109 16.7265 20.9989C16.3389 20.9771 15.949 20.994 15.5266 20.994C15.5266 19.6351 15.5266 18.298 15.5266 16.9608C15.4964 16.9536 15.4686 16.9463 15.4431 16.9415Z" fill="white"/>
<path d="M45.6004 17.2215C45.6631 17.248 45.7258 17.2746 45.7861 17.3011C46.2689 17.5208 46.5706 17.8876 46.5938 18.4452C46.6123 18.8941 46.6147 19.3455 46.5891 19.7944C46.5543 20.4027 45.9857 20.9747 45.4032 20.9844C44.4586 20.9989 43.514 20.9892 42.5671 20.9868C42.5392 20.9868 42.5137 20.9771 42.4696 20.9675C42.4649 20.8782 42.458 20.7913 42.458 20.7044C42.458 18.3559 42.458 16.0074 42.458 13.6589C42.458 13.35 42.458 13.35 42.7643 13.35C43.5325 13.35 44.2984 13.35 45.0666 13.35C45.9927 13.3524 46.5474 13.9292 46.5474 14.8971C46.5474 15.2374 46.559 15.5778 46.5427 15.9157C46.5149 16.4732 46.2572 16.8763 45.749 17.0911C45.6979 17.1129 45.6515 17.137 45.6004 17.1611C45.6028 17.1829 45.6004 17.2022 45.6004 17.2215ZM43.9178 16.5794C44.2334 16.5794 44.5236 16.5819 44.8137 16.5794C44.9831 16.577 45.0806 16.4805 45.0829 16.3043C45.0875 15.8771 45.0852 15.4474 45.0829 15.0202C45.0829 14.8633 44.9947 14.7571 44.8531 14.7499C44.5444 14.7354 44.2334 14.7451 43.9155 14.7451C43.9178 15.363 43.9178 15.9567 43.9178 16.5794ZM43.9178 19.5965C44.2659 19.5965 44.6048 19.6086 44.9436 19.5869C45.0179 19.582 45.1432 19.4541 45.1479 19.3769C45.1688 18.9641 45.1734 18.5514 45.1479 18.1387C45.1432 18.0518 45.0017 17.9118 44.9135 17.9045C44.5839 17.8756 44.252 17.8925 43.9178 17.8925C43.9178 18.4693 43.9178 19.0197 43.9178 19.5965Z" fill="white"/>
<path d="M51.6254 17.1732C51.6254 17.9769 51.6277 18.7831 51.6254 19.5869C51.6231 20.3882 51.0475 20.9892 50.284 20.9892C49.7594 20.9892 49.2326 20.9916 48.7081 20.9892C48.042 20.9868 47.4873 20.4534 47.4223 19.7631C47.413 19.6689 47.4084 19.5724 47.4084 19.4758C47.4084 17.948 47.427 16.4201 47.4014 14.8923C47.3875 13.963 48.0188 13.3186 48.8891 13.35C49.4276 13.3693 49.9706 13.3379 50.5044 13.3934C51.1404 13.4562 51.6208 14.0523 51.6254 14.7185C51.6277 15.5343 51.6254 16.355 51.6254 17.1732ZM48.852 17.166C48.852 17.8587 48.8497 18.5538 48.852 19.2465C48.852 19.5193 48.9332 19.5989 49.1978 19.6013C49.3742 19.6038 49.5529 19.6013 49.7293 19.6013C50.1285 19.6013 50.1772 19.5507 50.1772 19.1283C50.1772 18.0373 50.1772 16.9439 50.1772 15.8529C50.1772 15.6019 50.1818 15.3509 50.1749 15.0999C50.1656 14.8368 50.0704 14.7451 49.8175 14.7426C49.6179 14.7402 49.4206 14.7402 49.221 14.7426C48.9495 14.7451 48.852 14.8464 48.852 15.1312C48.852 15.8071 48.852 16.4877 48.852 17.166Z" fill="white"/>
<path d="M57.163 20.9892C56.6501 20.9892 56.1743 20.9964 55.7009 20.9795C55.6405 20.9771 55.5616 20.8709 55.5314 20.7937C55.1531 19.8958 54.7795 18.9955 54.4128 18.0928C54.3455 17.9238 54.2666 17.8297 54.0647 17.9142C54.0647 18.9183 54.0647 19.9368 54.0647 20.9699C53.5819 20.9699 53.1177 20.9699 52.628 20.9699C52.628 20.8878 52.628 20.8082 52.628 20.7309C52.628 18.3607 52.6304 15.9881 52.6234 13.6179C52.6234 13.4079 52.6721 13.3306 52.881 13.3427C53.185 13.3596 53.4937 13.3644 53.7978 13.3427C54.0252 13.3258 54.067 13.4151 54.0647 13.6324C54.053 14.5254 54.06 15.4209 54.06 16.3139C54.06 16.3936 54.06 16.4732 54.06 16.5481C54.2318 16.6277 54.2875 16.5384 54.3385 16.4057C54.7075 15.4547 55.0858 14.5085 55.4525 13.5599C55.5106 13.4103 55.5848 13.3427 55.7473 13.3475C56.179 13.3596 56.613 13.3524 57.0887 13.3524C57.0493 13.4658 57.0261 13.5455 56.9936 13.6227C56.5364 14.7426 56.0815 15.8626 55.6196 16.9801C55.5616 17.1225 55.5663 17.2335 55.6266 17.3735C56.1093 18.4886 56.5851 19.6086 57.0609 20.7285C57.0911 20.7961 57.1189 20.8709 57.163 20.9892Z" fill="white"/>
<path d="M22.2223 20.9795C21.7349 20.9795 21.2684 20.9795 20.7718 20.9795C20.8484 20.5861 20.918 20.2072 20.9946 19.8282C21.417 17.7404 21.8417 15.6526 22.2571 13.5624C22.2896 13.3982 22.3477 13.3403 22.5055 13.3427C23.0532 13.35 23.5986 13.3475 24.1463 13.3427C24.2786 13.3427 24.3482 13.3765 24.3784 13.5286C24.8635 15.9784 25.3555 18.4283 25.8452 20.8782C25.8498 20.8999 25.8498 20.9216 25.8522 20.9651C25.3787 20.9651 24.9099 20.9651 24.4086 20.9651C24.3645 20.7309 24.3065 20.4823 24.274 20.2313C24.2554 20.0841 24.1974 20.0286 24.0558 20.0286C23.5591 20.0334 23.0625 20.0334 22.5635 20.0286C22.4312 20.0286 22.3778 20.0817 22.3593 20.2192C22.3268 20.4703 22.2711 20.714 22.2223 20.9795ZM22.6331 18.701C23.0927 18.701 23.529 18.701 23.9978 18.701C23.7843 17.3687 23.5731 16.0533 23.3619 14.7378C23.3317 14.7378 23.3038 14.7402 23.2737 14.7402C23.0625 16.0557 22.849 17.3711 22.6331 18.701Z" fill="white"/>
<path d="M36.6953 20.9916C36.7997 20.4654 36.8949 19.9755 36.9923 19.4855C37.3846 17.5401 37.7814 15.5947 38.1644 13.6493C38.2108 13.4151 38.2897 13.3355 38.5218 13.3451C39.0324 13.3644 39.5453 13.3572 40.0559 13.3475C40.216 13.3451 40.281 13.4031 40.3112 13.5599C40.6083 15.0661 40.9123 16.5722 41.2117 18.0783C41.3904 18.9714 41.5668 19.8668 41.7455 20.7599C41.7571 20.8251 41.7664 20.8902 41.7803 20.9916C41.4461 20.9916 41.1304 20.9916 40.8148 20.9916C40.339 20.9916 40.339 20.9916 40.2462 20.5016C40.158 20.0358 40.158 20.0358 39.6915 20.0358C39.3016 20.0358 38.9094 20.043 38.5195 20.0334C38.3663 20.0286 38.3013 20.0913 38.2804 20.2385C38.2526 20.4341 38.227 20.632 38.1783 20.8251C38.1621 20.8902 38.0831 20.9844 38.0298 20.9868C37.6004 20.9964 37.1687 20.9916 36.6953 20.9916ZM39.9282 18.701C39.7124 17.3591 39.5012 16.0508 39.29 14.7426C39.2598 14.7451 39.2297 14.7475 39.2018 14.7475C38.9906 16.0605 38.7771 17.3735 38.5636 18.701C39.0347 18.701 39.4664 18.701 39.9282 18.701Z" fill="white"/>
<path d="M35.5047 14.7378C35.5047 16.828 35.5047 18.8917 35.5047 20.9747C35.0173 20.9747 34.5531 20.9747 34.0704 20.9747C34.0657 20.8637 34.0564 20.7551 34.0564 20.6465C34.0564 18.7783 34.0564 16.9101 34.0564 15.0419C34.0564 14.7402 34.0564 14.7402 33.7686 14.7402C33.4275 14.7402 33.0886 14.7402 32.7103 14.7402C32.7103 14.4265 32.7103 14.1272 32.7103 13.8279C32.7103 13.3524 32.7103 13.3524 33.1722 13.3524C34.3164 13.3524 35.4606 13.3572 36.6047 13.3475C36.8113 13.3451 36.8809 13.4103 36.867 13.6227C36.8508 13.9027 36.8484 14.1851 36.867 14.4651C36.8833 14.7016 36.7951 14.7523 36.5862 14.7426C36.2334 14.7257 35.8806 14.7378 35.5047 14.7378Z" fill="white"/>
<path d="M19.4234 14.7402C19.4234 16.8305 19.4234 18.8941 19.4234 20.9747C18.9383 20.9747 18.4718 20.9747 17.9914 20.9747C17.9867 20.8758 17.9775 20.7816 17.9775 20.6875C17.9775 18.3462 17.9775 16.0074 17.9775 13.6661C17.9775 13.35 17.9775 13.35 18.2768 13.35C19.1727 13.35 20.0662 13.3548 20.9621 13.3451C21.164 13.3427 21.222 13.4127 21.2127 13.613C21.1988 13.922 21.2035 14.2334 21.2104 14.5423C21.2151 14.6968 21.1617 14.7451 21.0132 14.7426C20.4979 14.7354 19.978 14.7402 19.4234 14.7402Z" fill="white"/>
</g>
</g>
</svg>
