<svg width="30" height="30" viewBox="0 0 30 30" fill="none" xmlns="http://www.w3.org/2000/svg">
<g id="vk">
<rect id="Rectangle" width="30" height="30" rx="3" fill="#5181B8"/>
<path id="Vector" fill-rule="evenodd" clip-rule="evenodd" d="M23.587 10.6771C23.7122 10.2868 23.587 10 22.9915 10H21.0223C20.5215 10 20.2908 10.2478 20.1657 10.5211C20.1657 10.5211 19.1642 12.8043 17.7455 14.2875C17.2865 14.7168 17.0779 14.8533 16.8276 14.8533C16.7024 14.8533 16.5212 14.7168 16.5212 14.3266V10.6771C16.5212 10.2087 16.3759 10 15.9586 10H12.8641C12.5513 10 12.3631 10.2174 12.3631 10.4234C12.3631 10.8675 13.0723 10.9699 13.1454 12.2188V14.9316C13.1454 15.5263 13.0306 15.6342 12.7803 15.6342C12.1127 15.6342 10.489 13.3405 9.52573 10.7162C9.33697 10.2061 9.14764 10 8.64437 10H6.67516C6.11253 10 6 10.2478 6 10.5211C6 11.0089 6.6677 13.4289 9.10854 16.6295C10.7359 18.815 13.0284 20 15.1146 20C16.3665 20 16.5212 19.7368 16.5212 19.2836V17.6316C16.5212 17.1053 16.6398 17.0003 17.036 17.0003C17.3283 17.0003 17.8289 17.1368 18.9973 18.1907C20.3325 19.4395 20.5525 20 21.3036 20H23.2728C23.8354 20 24.1167 19.7368 23.9544 19.2175C23.7769 18.6999 23.1394 17.9491 22.2935 17.0588C21.8346 16.5513 21.146 16.0049 20.9376 15.7317C20.6454 15.3804 20.7288 15.2243 20.9376 14.9122C20.9376 14.9122 23.3366 11.7505 23.587 10.6771Z" fill="white"/>
</g>
</svg>
