<svg width="22" height="13" viewBox="0 0 22 13" fill="none" xmlns="http://www.w3.org/2000/svg">
<g id="vk">
<path id="Vector" fill-rule="evenodd" clip-rule="evenodd" d="M21.4952 0.880238C21.6482 0.372895 21.4952 0 20.7673 0H18.3605C17.7485 0 17.4666 0.322092 17.3136 0.677368C17.3136 0.677368 16.0895 3.64564 14.3556 5.57375C13.7946 6.13189 13.5397 6.30928 13.2337 6.30928C13.0807 6.30928 12.8593 6.1319 12.8593 5.62455V0.880238C12.8593 0.27129 12.6817 0 12.1716 0H8.38946C8.00712 0 7.7771 0.282579 7.7771 0.550448C7.7771 1.12775 8.64389 1.26083 8.73329 2.88446V6.41105C8.73329 7.18421 8.59301 7.32447 8.287 7.32447C7.47109 7.32447 5.4865 4.34268 4.30922 0.93104C4.07851 0.267869 3.84712 0 3.232 0H0.825193C0.137532 0 0 0.322092 0 0.677368C0 1.31163 0.816081 4.45763 3.79932 8.61832C5.78838 11.4595 8.59026 13 11.1401 13C12.6701 13 12.8593 12.6579 12.8593 12.0686V9.92105C12.8593 9.23684 13.0042 9.10034 13.4885 9.10034C13.8457 9.10034 14.4575 9.27789 15.8856 10.6479C17.5175 12.2713 17.7863 13 18.7044 13H21.1112C21.7988 13 22.1427 12.6579 21.9443 11.9827C21.7273 11.3098 20.9482 10.3338 19.9143 9.17646C19.3533 8.51671 18.5118 7.80633 18.257 7.45122C17.9 6.99451 18.0019 6.79165 18.257 6.38591C18.257 6.38591 21.1892 2.27586 21.4952 0.880408V0.880238Z" fill="white"/>
</g>
</svg>
