<svg width="22" height="22" viewBox="0 0 22 22" fill="none" xmlns="http://www.w3.org/2000/svg">
<g id="icon &#209;&#129;&#208;&#178;&#208;&#184;&#209;&#129;&#209;&#130;&#208;&#190;&#208;&#186;">
<path id="Vector" d="M16.2772 5.57452C16.7889 4.59052 17.5309 4.10527 18.5544 4.34789C19.322 4.52313 19.8337 5.07578 19.9616 5.89802C20.1407 7.00333 19.6674 7.78513 18.7079 8.29735C19.1173 9.60485 19.2708 10.9123 18.887 12.2468C17.8124 15.9941 13.9616 17.5442 10.7889 15.4953C10.4563 15.2797 10.2644 15.374 10.0213 15.5762C8.57569 16.7354 7.11727 17.8812 5.71002 19C4.46908 17.6925 3.25373 16.3984 2 15.0775C2.08955 14.9696 2.24307 14.7944 2.40938 14.6326C4.52026 12.4355 6.63113 10.2384 8.72921 8.02776C9.04904 7.70426 9.33049 7.34031 9.62473 6.98985C10.9296 5.37233 13.258 4.03787 16.2772 5.57452ZM12.0554 10.7506C11.3518 10.0092 10.7122 9.33526 10.1237 8.72869C9.91898 8.90392 9.65032 9.14655 9.45842 9.32178C10.1109 10.0227 10.7505 10.7102 11.4286 11.4246C11.6333 11.1954 11.8891 10.9258 12.0554 10.7506ZM18.0171 7.27292C18.3497 6.84158 18.6311 6.62591 18.6823 6.3698C18.7591 5.96542 18.4776 5.62843 18.1066 5.68235C17.8635 5.72279 17.5181 6.03281 17.4925 6.26196C17.467 6.51807 17.7612 6.80114 18.0171 7.27292Z" fill="#27AE60"/>
<path id="Vector_2" d="M6.63081 5.83086C6.49009 6.00609 6.36216 6.16784 6.18305 6.39699C5.26194 5.77694 4.36642 5.15689 3.44531 4.52336C3.95704 4.01114 4.44318 3.52589 4.95491 3.01367C5.49222 3.93027 6.05512 4.87382 6.63081 5.83086Z" fill="#27AE60"/>
<path id="Vector_3" d="M7.25781 3C7.89747 3 8.49875 3 9.17679 3C8.98489 4.03791 8.80579 5.04886 8.5883 6.04634C8.56272 6.16765 8.30685 6.30244 8.17892 6.28896C8.05099 6.27548 7.8463 6.10025 7.82071 5.96546C7.61602 4.99495 7.44971 4.01095 7.25781 3Z" fill="#27AE60"/>
<path id="Vector_4" d="M6.57036 7.63676C6.73667 8.21637 6.54478 8.40508 6.08422 8.47248C5.23987 8.60727 4.39552 8.82294 3.5 9.01165C3.5 8.33768 3.5 7.69067 3.5 6.98975C4.53625 7.20542 5.5597 7.42109 6.57036 7.63676Z" fill="#27AE60"/>
</g>
</svg>
