<svg width="19" height="13" viewBox="0 0 19 13" fill="none" xmlns="http://www.w3.org/2000/svg">
<g id="youtube">
<path id="Exclude" fill-rule="evenodd" clip-rule="evenodd" d="M16.934 0.397647C17.7479 0.611765 18.3895 1.23882 18.6087 2.03412C19.0156 3.48706 18.9999 6.51529 18.9999 6.51529C18.9999 6.51529 18.9999 9.52824 18.6087 10.9812C18.3895 11.7765 17.7479 12.4035 16.934 12.6176C15.4472 13 9.49996 13 9.49996 13C9.49996 13 3.56835 13 2.06589 12.6024C1.25205 12.3882 0.610376 11.7612 0.391267 10.9659C0 9.52824 0 6.5 0 6.5C0 6.5 0 3.48706 0.391267 2.03412C0.610376 1.23882 1.2677 0.596471 2.06589 0.382353C3.5527 0 9.49996 0 9.49996 0C9.49996 0 15.4472 0 16.934 0.397647ZM12.5511 6.50002L7.60547 9.28355V3.71649L12.5511 6.50002Z" fill="white"/>
</g>
</svg>
